<mxfile host="app.diagrams.net" modified="2020-11-17T12:09:46.908Z" agent="5.0 (Windows NT 10.0; Win64; x64) AppleWebKit/537.36 (KHTML, like Gecko) Chrome/86.0.4240.198 Safari/537.36" etag="GRNe3Avqn9L6ON-loYnm" version="13.9.2" type="github">
  <diagram id="yW75_JPqD1sycUoZqWB1" name="Page-1">
    <mxGraphModel dx="782" dy="468" grid="0" gridSize="10" guides="1" tooltips="1" connect="1" arrows="1" fold="1" page="1" pageScale="1" pageWidth="827" pageHeight="1169" math="0" shadow="0">
      <root>
        <mxCell id="0" />
        <mxCell id="1" parent="0" />
        <mxCell id="zl-Cs-IY_Ymrk6EpAjJ--1" value="" style="shape=image;verticalLabelPosition=bottom;verticalAlign=top;imageAspect=0;aspect=fixed;image=data:image/svg+xml,PHN2ZyB4bWxucz0iaHR0cDovL3d3dy53My5vcmcvMjAwMC9zdmciIHZlcnNpb249IjEiIHZpZXdCb3g9IjAgMCA0OCA0OCIgZW5hYmxlLWJhY2tncm91bmQ9Im5ldyAwIDAgNDggNDgiPiYjeGE7ICAgIDxyZWN0IHg9IjE3IiB5PSIyOSIgZmlsbD0iIzAzOUJFNSIgd2lkdGg9IjE0IiBoZWlnaHQ9IjIiLz4mI3hhOyAgICA8cmVjdCB4PSIxMyIgeT0iMzMiIGZpbGw9IiMwMzlCRTUiIHdpZHRoPSIyMiIgaGVpZ2h0PSIyIi8+JiN4YTsgICAgPHJlY3QgeD0iOSIgeT0iMzciIGZpbGw9IiMwMzlCRTUiIHdpZHRoPSIzMCIgaGVpZ2h0PSIyIi8+JiN4YTsgICAgPHJlY3QgeD0iNSIgeT0iNDEiIGZpbGw9IiMwMzlCRTUiIHdpZHRoPSIzOCIgaGVpZ2h0PSIyIi8+JiN4YTsgICAgPHBhdGggZmlsbD0iIzgxRDRGQSIgZD0iTTM1LDEzYy0wLjQsMC0wLjgsMC0xLjIsMC4xQzMyLjksOC41LDI4LjksNSwyNCw1Yy00LjEsMC03LjYsMi41LTkuMiw2Yy0wLjMsMC0wLjUsMC0wLjgsMCBjLTQuNCwwLTgsMy42LTgsOHMzLjYsOCw4LDhjMi40LDAsMTguNSwwLDIxLDBjMy45LDAsNy0zLjEsNy03QzQyLDE2LjEsMzguOSwxMywzNSwxM3oiLz4mI3hhOyAgICA8cGF0aCBmaWxsPSIjMDM5QkU1IiBkPSJNMjgsMjFjMC0yLjItMS44LTQtNC00cy00LDEuOC00LDRjMCwwLjUsMCw2LDAsNmg4QzI4LDI3LDI4LDIxLjUsMjgsMjF6Ii8+JiN4YTs8L3N2Zz4=" vertex="1" parent="1">
          <mxGeometry x="108" y="211" width="57" height="57" as="geometry" />
        </mxCell>
        <mxCell id="zl-Cs-IY_Ymrk6EpAjJ--2" value="" style="rounded=0;whiteSpace=wrap;html=1;" vertex="1" parent="1">
          <mxGeometry x="243" y="155" width="38" height="28" as="geometry" />
        </mxCell>
        <mxCell id="zl-Cs-IY_Ymrk6EpAjJ--3" value="" style="endArrow=classic;html=1;exitX=1;exitY=0.25;exitDx=0;exitDy=0;entryX=0;entryY=0.5;entryDx=0;entryDy=0;" edge="1" parent="1" source="zl-Cs-IY_Ymrk6EpAjJ--1" target="zl-Cs-IY_Ymrk6EpAjJ--2">
          <mxGeometry width="50" height="50" relative="1" as="geometry">
            <mxPoint x="375" y="268" as="sourcePoint" />
            <mxPoint x="425" y="218" as="targetPoint" />
          </mxGeometry>
        </mxCell>
        <mxCell id="zl-Cs-IY_Ymrk6EpAjJ--4" value="" style="rounded=0;whiteSpace=wrap;html=1;fillColor=#cce5ff;strokeColor=#36393d;" vertex="1" parent="1">
          <mxGeometry x="357" y="155" width="35" height="28" as="geometry" />
        </mxCell>
        <mxCell id="zl-Cs-IY_Ymrk6EpAjJ--5" value="" style="rounded=0;whiteSpace=wrap;html=1;fillColor=#cce5ff;strokeColor=#36393d;" vertex="1" parent="1">
          <mxGeometry x="319" y="155" width="38" height="28" as="geometry" />
        </mxCell>
        <mxCell id="zl-Cs-IY_Ymrk6EpAjJ--9" value="" style="endArrow=classic;html=1;exitX=1;exitY=0.5;exitDx=0;exitDy=0;" edge="1" parent="1" source="zl-Cs-IY_Ymrk6EpAjJ--2" target="zl-Cs-IY_Ymrk6EpAjJ--5">
          <mxGeometry width="50" height="50" relative="1" as="geometry">
            <mxPoint x="375" y="268" as="sourcePoint" />
            <mxPoint x="425" y="218" as="targetPoint" />
          </mxGeometry>
        </mxCell>
        <mxCell id="zl-Cs-IY_Ymrk6EpAjJ--10" value="" style="rounded=0;whiteSpace=wrap;html=1;fillColor=#cce5ff;strokeColor=#36393d;" vertex="1" parent="1">
          <mxGeometry x="392" y="155" width="56" height="28" as="geometry" />
        </mxCell>
        <mxCell id="zl-Cs-IY_Ymrk6EpAjJ--11" value="·······" style="text;html=1;resizable=0;autosize=1;align=center;verticalAlign=middle;points=[];fillColor=none;strokeColor=none;rounded=0;" vertex="1" parent="1">
          <mxGeometry x="403" y="160" width="38" height="18" as="geometry" />
        </mxCell>
        <mxCell id="zl-Cs-IY_Ymrk6EpAjJ--12" value="" style="rounded=0;whiteSpace=wrap;html=1;fillColor=#cce5ff;strokeColor=#36393d;" vertex="1" parent="1">
          <mxGeometry x="448" y="155" width="47" height="28" as="geometry" />
        </mxCell>
        <mxCell id="zl-Cs-IY_Ymrk6EpAjJ--14" value="" style="rounded=0;whiteSpace=wrap;html=1;fillColor=#cce5ff;strokeColor=#36393d;" vertex="1" parent="1">
          <mxGeometry x="367" y="227.5" width="43" height="28" as="geometry" />
        </mxCell>
        <mxCell id="zl-Cs-IY_Ymrk6EpAjJ--15" value="" style="rounded=0;whiteSpace=wrap;html=1;fillColor=#cce5ff;strokeColor=#36393d;" vertex="1" parent="1">
          <mxGeometry x="319" y="227.5" width="48" height="28" as="geometry" />
        </mxCell>
        <mxCell id="zl-Cs-IY_Ymrk6EpAjJ--17" value="" style="rounded=0;whiteSpace=wrap;html=1;fillColor=#cce5ff;strokeColor=#36393d;" vertex="1" parent="1">
          <mxGeometry x="410" y="227.5" width="56" height="28" as="geometry" />
        </mxCell>
        <mxCell id="zl-Cs-IY_Ymrk6EpAjJ--18" value="·······" style="text;html=1;resizable=0;autosize=1;align=center;verticalAlign=middle;points=[];fillColor=none;strokeColor=none;rounded=0;" vertex="1" parent="1">
          <mxGeometry x="419" y="232.5" width="38" height="18" as="geometry" />
        </mxCell>
        <mxCell id="zl-Cs-IY_Ymrk6EpAjJ--19" value="" style="rounded=0;whiteSpace=wrap;html=1;fillColor=#cce5ff;strokeColor=#36393d;" vertex="1" parent="1">
          <mxGeometry x="466" y="227.5" width="47" height="28" as="geometry" />
        </mxCell>
        <mxCell id="zl-Cs-IY_Ymrk6EpAjJ--21" value="" style="rounded=0;whiteSpace=wrap;html=1;" vertex="1" parent="1">
          <mxGeometry x="243" y="227.5" width="47" height="28" as="geometry" />
        </mxCell>
        <mxCell id="zl-Cs-IY_Ymrk6EpAjJ--23" value="" style="endArrow=classic;html=1;exitX=1;exitY=0.5;exitDx=0;exitDy=0;entryX=0;entryY=0.5;entryDx=0;entryDy=0;" edge="1" parent="1" source="zl-Cs-IY_Ymrk6EpAjJ--21" target="zl-Cs-IY_Ymrk6EpAjJ--15">
          <mxGeometry width="50" height="50" relative="1" as="geometry">
            <mxPoint x="375" y="268" as="sourcePoint" />
            <mxPoint x="425" y="218" as="targetPoint" />
          </mxGeometry>
        </mxCell>
        <mxCell id="zl-Cs-IY_Ymrk6EpAjJ--24" value="" style="endArrow=classic;html=1;exitX=1;exitY=0.5;exitDx=0;exitDy=0;entryX=0;entryY=0.5;entryDx=0;entryDy=0;" edge="1" parent="1" source="zl-Cs-IY_Ymrk6EpAjJ--1" target="zl-Cs-IY_Ymrk6EpAjJ--21">
          <mxGeometry width="50" height="50" relative="1" as="geometry">
            <mxPoint x="375" y="268" as="sourcePoint" />
            <mxPoint x="425" y="218" as="targetPoint" />
          </mxGeometry>
        </mxCell>
        <mxCell id="zl-Cs-IY_Ymrk6EpAjJ--25" value="" style="endArrow=none;dashed=1;html=1;exitX=0;exitY=0.25;exitDx=0;exitDy=0;entryX=1;entryY=0.25;entryDx=0;entryDy=0;" edge="1" parent="1" source="zl-Cs-IY_Ymrk6EpAjJ--2" target="zl-Cs-IY_Ymrk6EpAjJ--2">
          <mxGeometry width="50" height="50" relative="1" as="geometry">
            <mxPoint x="375" y="268" as="sourcePoint" />
            <mxPoint x="425" y="218" as="targetPoint" />
          </mxGeometry>
        </mxCell>
        <mxCell id="zl-Cs-IY_Ymrk6EpAjJ--27" value="" style="endArrow=none;dashed=1;html=1;exitX=0;exitY=0.75;exitDx=0;exitDy=0;entryX=1;entryY=0.75;entryDx=0;entryDy=0;" edge="1" parent="1" source="zl-Cs-IY_Ymrk6EpAjJ--2" target="zl-Cs-IY_Ymrk6EpAjJ--2">
          <mxGeometry width="50" height="50" relative="1" as="geometry">
            <mxPoint x="253" y="172" as="sourcePoint" />
            <mxPoint x="291" y="172" as="targetPoint" />
            <Array as="points" />
          </mxGeometry>
        </mxCell>
        <mxCell id="zl-Cs-IY_Ymrk6EpAjJ--28" value="" style="endArrow=none;dashed=1;html=1;" edge="1" parent="1">
          <mxGeometry width="50" height="50" relative="1" as="geometry">
            <mxPoint x="244" y="169" as="sourcePoint" />
            <mxPoint x="281" y="169" as="targetPoint" />
          </mxGeometry>
        </mxCell>
        <mxCell id="zl-Cs-IY_Ymrk6EpAjJ--30" value="" style="endArrow=none;dashed=1;html=1;exitX=0;exitY=0.25;exitDx=0;exitDy=0;entryX=1;entryY=0.25;entryDx=0;entryDy=0;" edge="1" parent="1" source="zl-Cs-IY_Ymrk6EpAjJ--21" target="zl-Cs-IY_Ymrk6EpAjJ--21">
          <mxGeometry width="50" height="50" relative="1" as="geometry">
            <mxPoint x="273" y="192" as="sourcePoint" />
            <mxPoint x="311" y="192" as="targetPoint" />
          </mxGeometry>
        </mxCell>
        <mxCell id="zl-Cs-IY_Ymrk6EpAjJ--32" value="" style="endArrow=none;dashed=1;html=1;exitX=0;exitY=0.5;exitDx=0;exitDy=0;entryX=1;entryY=0.5;entryDx=0;entryDy=0;" edge="1" parent="1" source="zl-Cs-IY_Ymrk6EpAjJ--21" target="zl-Cs-IY_Ymrk6EpAjJ--21">
          <mxGeometry width="50" height="50" relative="1" as="geometry">
            <mxPoint x="283" y="202" as="sourcePoint" />
            <mxPoint x="321" y="202" as="targetPoint" />
          </mxGeometry>
        </mxCell>
        <mxCell id="zl-Cs-IY_Ymrk6EpAjJ--33" value="" style="endArrow=none;dashed=1;html=1;exitX=0;exitY=0.75;exitDx=0;exitDy=0;entryX=1;entryY=0.75;entryDx=0;entryDy=0;" edge="1" parent="1" source="zl-Cs-IY_Ymrk6EpAjJ--21" target="zl-Cs-IY_Ymrk6EpAjJ--21">
          <mxGeometry width="50" height="50" relative="1" as="geometry">
            <mxPoint x="293" y="212" as="sourcePoint" />
            <mxPoint x="331" y="212" as="targetPoint" />
          </mxGeometry>
        </mxCell>
        <mxCell id="zl-Cs-IY_Ymrk6EpAjJ--46" value="" style="rounded=0;whiteSpace=wrap;html=1;" vertex="1" parent="1">
          <mxGeometry x="243" y="294" width="59" height="28" as="geometry" />
        </mxCell>
        <mxCell id="zl-Cs-IY_Ymrk6EpAjJ--50" value="" style="endArrow=none;dashed=1;html=1;entryX=1;entryY=0.25;entryDx=0;entryDy=0;exitX=0;exitY=0.25;exitDx=0;exitDy=0;" edge="1" parent="1" source="zl-Cs-IY_Ymrk6EpAjJ--46" target="zl-Cs-IY_Ymrk6EpAjJ--46">
          <mxGeometry width="50" height="50" relative="1" as="geometry">
            <mxPoint x="254" y="179" as="sourcePoint" />
            <mxPoint x="291" y="179" as="targetPoint" />
          </mxGeometry>
        </mxCell>
        <mxCell id="zl-Cs-IY_Ymrk6EpAjJ--51" value="" style="endArrow=none;dashed=1;html=1;entryX=1;entryY=0.75;entryDx=0;entryDy=0;exitX=0;exitY=0.75;exitDx=0;exitDy=0;" edge="1" parent="1" source="zl-Cs-IY_Ymrk6EpAjJ--46" target="zl-Cs-IY_Ymrk6EpAjJ--46">
          <mxGeometry width="50" height="50" relative="1" as="geometry">
            <mxPoint x="264" y="189" as="sourcePoint" />
            <mxPoint x="301" y="189" as="targetPoint" />
          </mxGeometry>
        </mxCell>
        <mxCell id="zl-Cs-IY_Ymrk6EpAjJ--52" value="" style="endArrow=none;dashed=1;html=1;entryX=1;entryY=0.5;entryDx=0;entryDy=0;exitX=0;exitY=0.5;exitDx=0;exitDy=0;" edge="1" parent="1" source="zl-Cs-IY_Ymrk6EpAjJ--46" target="zl-Cs-IY_Ymrk6EpAjJ--46">
          <mxGeometry width="50" height="50" relative="1" as="geometry">
            <mxPoint x="274" y="199" as="sourcePoint" />
            <mxPoint x="311" y="199" as="targetPoint" />
          </mxGeometry>
        </mxCell>
        <mxCell id="zl-Cs-IY_Ymrk6EpAjJ--53" value="" style="rounded=0;whiteSpace=wrap;html=1;fillColor=#cce5ff;strokeColor=#36393d;" vertex="1" parent="1">
          <mxGeometry x="319" y="294" width="59" height="28" as="geometry" />
        </mxCell>
        <mxCell id="zl-Cs-IY_Ymrk6EpAjJ--54" value="" style="rounded=0;whiteSpace=wrap;html=1;fillColor=#cce5ff;strokeColor=#36393d;" vertex="1" parent="1">
          <mxGeometry x="420" y="294" width="59" height="28" as="geometry" />
        </mxCell>
        <mxCell id="zl-Cs-IY_Ymrk6EpAjJ--55" value="" style="rounded=0;whiteSpace=wrap;html=1;fillColor=#cce5ff;strokeColor=#36393d;" vertex="1" parent="1">
          <mxGeometry x="378" y="294" width="42" height="28" as="geometry" />
        </mxCell>
        <mxCell id="zl-Cs-IY_Ymrk6EpAjJ--56" value="" style="endArrow=classic;html=1;exitX=1;exitY=0.75;exitDx=0;exitDy=0;entryX=0;entryY=0.5;entryDx=0;entryDy=0;" edge="1" parent="1" source="zl-Cs-IY_Ymrk6EpAjJ--1" target="zl-Cs-IY_Ymrk6EpAjJ--46">
          <mxGeometry width="50" height="50" relative="1" as="geometry">
            <mxPoint x="375" y="268" as="sourcePoint" />
            <mxPoint x="425" y="218" as="targetPoint" />
          </mxGeometry>
        </mxCell>
        <mxCell id="zl-Cs-IY_Ymrk6EpAjJ--57" value="·······" style="text;html=1;resizable=0;autosize=1;align=center;verticalAlign=middle;points=[];fillColor=none;strokeColor=none;rounded=0;" vertex="1" parent="1">
          <mxGeometry x="428" y="299.5" width="38" height="18" as="geometry" />
        </mxCell>
        <mxCell id="zl-Cs-IY_Ymrk6EpAjJ--58" value="" style="rounded=0;whiteSpace=wrap;html=1;fillColor=#cce5ff;strokeColor=#36393d;" vertex="1" parent="1">
          <mxGeometry x="479" y="294" width="47" height="28" as="geometry" />
        </mxCell>
        <mxCell id="zl-Cs-IY_Ymrk6EpAjJ--59" value="" style="endArrow=classic;html=1;exitX=1;exitY=0.5;exitDx=0;exitDy=0;entryX=0;entryY=0.5;entryDx=0;entryDy=0;" edge="1" parent="1" source="zl-Cs-IY_Ymrk6EpAjJ--46" target="zl-Cs-IY_Ymrk6EpAjJ--53">
          <mxGeometry width="50" height="50" relative="1" as="geometry">
            <mxPoint x="375" y="268" as="sourcePoint" />
            <mxPoint x="425" y="218" as="targetPoint" />
          </mxGeometry>
        </mxCell>
        <mxCell id="zl-Cs-IY_Ymrk6EpAjJ--61" value="" style="shape=image;verticalLabelPosition=bottom;labelBackgroundColor=#ffffff;verticalAlign=top;aspect=fixed;imageAspect=0;image=data:image/png,iVBORw0KGgoAAAANSUhEUgAAAKoAAABYCAYAAABlLGyQAAAMXklEQVR4Ae1dVa8USxe9/4kH3IIElyDBHYITPLi7e3iABHeXQOC7BJcQHIIHDRbcw0PdrP7u6runp7um5gycnj69d3JSPd27S9Zepbuqz19GRRFIAAJ/JSCPmkVFwChRlQSJQECJmggzaSaVqMqBRCCgRE2EmTSTSlTlQCIQUKImwkyaSSWqciARCChRE2EmzaQSVTmQCASUqIkwk2ZSiaocSAQCStREmEkzqURVDiQCASVqIsykmVSiKgcSgYASNRFm0kwqUZUDiUAgcUS9ePGiwZ9KuhBIFFEbN25sypUr5/2ly0xa2sQQddq0aT5JQda3b9+q9VKEQCKIeuvWrQySgqj3799PkZm0qIkg6uTJk7OIev78ebVeihAoeqL+/b+/s0iKFvXQoUMpMpMWtaiJ+vPnT9OpY6dQom7cuFGtlyIEipqoK1euDCUpWtRly5alyExa1KIl6s2bN03FihU9ovbq1SuLsFOmTFHrpQiBoiXqiBEjPHLWqFHDhBF18ODBKTKTFrUoibpv3z6/Bd2wYYMZNGiQ/xvdPv46d+6s1ksRAkVH1A8fPpiWLVt6ZBwyZIhnirDlKXipVNKDQNERdenSpR5JK1SoYK5fv+5ZAhMntqQMq1Spkh4raUmL62t+d+7cMZUqVfJIiRk/Zdu2bVlEBWG/fftGFQ3LOAJF1aJOmDDBI2STJk3M+/fvfehPnjwZStTnz5/7OnpRthEoGqKePn3aJ+P69eszUL93757/jF0/Qg4NMpTL0I9Pnz6ZCxcuGPQu+/fvN7ncxm/evDHbt283Z86cMV++fClDSJji6fr79u3rkbFt27YGHikpnz9/DiXq8ePHpVqZuUal7dq1a2iZsSz3+PHjjLIeOXLE4L6sxHXr1jXz5883T58+zdBN6o+iaFF3797tg7xnz55QLLn4L42xa9euUN0k39yxY4ePRdWqVU2LFi1MmzZt/Hsof8eOHQ1aWwhISkyw3sw/3hs2bFiS4fDzHjtR3717Z5o3b+6BbQO1du3avkFohFWrVvkFKQsX0mUMwkp59eqVGTVqlI9Bv379Mki6bt06Xx090IABA3zdgwcP+s+SehE7URcsWOABWr58eeuYs2nTpj7wJOq8efOSintWvtFFs1xZD/+9cfXqVV+HughlhcXEE92+fD5x4sSoKBNzP1ai4uwTAV2xYoUVtPbt2/u6fGfcuHHWd5L0cODAgV75cu0KY9kZtm7dOmOZbujQoVk4wWGSdImVqOye2rVrZz5+/GjFMszf379/f+s7SXnILj9Xy4flOBKUIVzMUrA3gs8YHj58WKok8jo2om7dutUH1GUMJcdnNECHDh0SCXow0/Xq1fOwOHXqVPBRxm/ZAxEDOEmkBCs0VlFyNQLy/WK9joWomBg0bNjQM87YsWOdsJkzZ45PbBqpUaNGTu8WsxJn+ZjJ5xK0niw7QpAwKJcvX/aWqtCyDh8+PMNxEtRN0u9YiErfPcB0XbRfs2ZNhpFgqMqVKycJ69C84uAiuv6zZ8+GPpc3OVQiWcvSZFKWM+y61ImKxWqOo2CgfP5oIBl+/fo1rFxl7t6TJ0+yKuqxY8fKXDmjClTqREUrIIlW6HXQSxNV0KTf37lzZwZu1apV8xf9k142l/yXKlEx8Md6aaHklO+n5fM+WBGQ5S4rKx4uJIVOqRKVG6CxMbokglZEGgvXaTk2Te8dy48hU5qk1Igqz+e7TBzCjFC/fv0sokrXYdg7ZeEehjckKEPskEqTlApR5fl87OgpqfCICo2FcNGiRc7RYesbZtm2dUXo4AQshhS271v9+vXLPHz40GA4I/fOOmcmD0W5aYdl/13b+GAblNdW1u/fv3u4AZNcu7HglMgVXx5F91VLhajopgAwFraxZ7KkggN9NBRD12PTQYfByJEjDQwAAekwyQurCMEu9sCBAwbuXByVYR4QYpvdiRMnSlo08+jRI/Py5cvQ98ePH5+RFvY95JK9e/d6O6lmzpwZqYolP+zQYjlQBqxxUzZv3mzgNeRzhhgvP3jwgGoGa7fdunUzNWvWzNAtFBM/gdIYo2KdlEYNGl1mxOWae1YJGEIsaucSnMMCiNjUAaLxfeTn0qVL3sI5ThXgi4EYlqAyzZ4929ejaxN+eLzbp08fs3btWq8VAjmbNWvm3ceBQ26/y5UnPkee4K9nnuBZCkpwfGrbZcZ36aHCRuowwdgeacIriDyQsMATreKYMWM8zFChgRkExGU+6RXEs+rVqxv8Xrx4sbl7967X+nLNF/GihS1U/niLipOkKFyhrSkKChAJFMMww0pQML7DOSyATOG7rVq1Mhj39uzZk4/8EOexeH4L+tihhDBsv6x0Rsh0/MgiLn78+JHVCiEN2b2ihWN+Geaq8HS1guBII0y6d+9upFeQxEYasBUqdtA9i3hYKaGHfCCE1zAoskGYNWtW8HHev/8oUemBQmGmT5+ed+aCL6CbR1zyL9exaYKJBXMIjcg40JJKYsg04dakHgi9fPly+di/RqtKPexechW0ZnxPhvIs2JYtW7J0cu2NGD16tPeO3P4n88RjP4wHY3a2qMzH0aNH5Sv+tSQ0dHmk3Vf49wI9E+NC61qo/DGizpgxw88oMgyCFCqYOLHwMrTFi25Vrjni+ArfxamBc+fORb6OI9nUZfcfpszKAF0MH1xFvsd05Ic1MG5t0KCBnwfq2DavEKPevXtnHelhvjCswVIfJ5XYXcW4EQbPrPE9hJKoqMhRkzCMkRmny/BMphF2/duIirEZXHoYp2D3OTPJEAXEsYl8BV0f3oNRg7WecWO8iLGwnAgwHejgXcqSJUv8vMn7fM4QkwXGD6PaJoHyvFJwZz7jCwuRZ6aBEEMRTlIwG+/Ro4f3HJVNfhY+Kt9soevUqeOtSISliXtIC2NPCiZczIes1HwuQ2kD2+Rx9erVfpxF0fVj5iwnAyywLYwCWgIitwHa4gp7hvxEiVw5sK1FSpdlPsYLG9dF5QX3SXLk+fbt2wZHc9AacSM17oO8mJBwjwTKjFYRRMeQBpWD8WBFIN9Dj3Jmb7ONPGGAymtbImN+kNdNmzbZIHB6VnCLCnDDyGK753IoD4DZ4rA9k5MEiQJIxPdyAS1dljbjyTEvti7mK2iVatWq5eeL+UNIkjJOdPnyefAaLePr16+p7hSioZHx2CqvtImt8qI3kBNR9hJOGYpQKpioiBfGyvcvIj/+bRQu3zilvh+RuIAXi0axAY1X5JKQzXhywjhp0iSRmvvlixcvzMKFC/3xH1ojdOMcQ8qYMNFCi4uuG2XBMAuTppJ6+zBGJya5Kq88wm2rvHJyaevdZLlyXf8WouZKpFiec20PhrEBDU+Tq/E6dfrvi9hJ3Hfg2kpiOyUxQWirvBiTUnfu3Lm/xfypISq8T2gxCKANaLkyYGt55ZgNkwyMLylo3ZMg0oliq7xy2IEFftv4VE788KUXCjCRGPG+S5gaol65csUnKcaEdJ+GgcQlHpA6ai0S70k96S169uyZl5bN8GHpxnEPpyRYeSWpgnmRTg0MTaJEEhpDBSlwFpQUk9QQFWuDNEiudT34rakLF2uUyL0BWKWgcHO4bUmLunGGciIMbxR6nSiRk0uQNkqmTp3qYyd3tnHpDCsVJZHUEJWTDxAweMRYAofJCklq83rhH7JRDyG9SVxZyGfhX6Zfmtc8WIj8Y9OOTXCQkOW9du1apKpcwYDfn9KlS5eCvhKeGqLKvay2tU7pUbF5o2AAfr0FzgwKKgQ2rdiGFtSNO+RGdhAwavMK8ijPa+FbWDbp2+f/H7tDnBR09yDwjRs3eCvvMDVEZWsgXZRhaAFU6tIXHqaHe9IpgfcwMcHiedR2vah44rqP7p5l5V6IsLzIY9pwNNhk757/XKeo6Bi7g6Q2t68tPj5LDVHR0uFDa7m+GoING2ghgxMBAhYM0QKjm8dmFJA1CS0py8BxZ65hCta0gR8wCVvbZXwMgSGWpYAjJpzYs1CopIaohQKl78eLgBI1Xvw1dUcElKiOQKlavAgoUePFX1N3RECJ6giUqsWLgBI1Xvw1dUcElKiOQKlavAgoUePFX1N3RECJ6giUqsWLgBI1Xvw1dUcElKiOQKlavAgoUePFX1N3RECJ6giUqsWLgBI1Xvw1dUcElKiOQKlavAgoUePFX1N3RECJ6giUqsWLgBI1Xvw1dUcElKiOQKlavAgoUePFX1N3RECJ6giUqsWLwD+0cKwjyylVNAAAAABJRU5ErkJggg==;" vertex="1" parent="1">
          <mxGeometry x="102.06" y="172" width="59.89" height="31" as="geometry" />
        </mxCell>
        <mxCell id="zl-Cs-IY_Ymrk6EpAjJ--62" value="" style="rounded=0;whiteSpace=wrap;html=1;fillColor=#cce5ff;strokeColor=#36393d;" vertex="1" parent="1">
          <mxGeometry x="60.06" y="155" width="42" height="61" as="geometry" />
        </mxCell>
        <mxCell id="zl-Cs-IY_Ymrk6EpAjJ--63" value="" style="shape=image;verticalLabelPosition=bottom;labelBackgroundColor=#ffffff;verticalAlign=top;aspect=fixed;imageAspect=0;image=data:image/png,iVBORw0KGgoAAAANSUhEUgAAAJoAAABMCAYAAACVmK4lAAAJo0lEQVR4Ae1c98sUPRD+/icRLChYEMWOWLFgxfdVfxAbNhCxi9gRBRERe0WwISpWbCAqduyKitgb4g/5eBYmzOayu7l3N7k7dgaO7GaTzOTJs8mk7P2nRASBAAj8F0CHqBAElBBNSBAEASFaEJhFiRBNOBAEASFaEJhFiRBNOBAEASFaEJhFiRBNOBAEASFaEJhFiRBNOBAEASFaEJhFiRBNOBAEASFaEJhFiRBNOBAEASFaEJhFiRBNOBAEASFaEJhFiRBNOBAEASFaEJhFSU2J9urVK3X58mW1Z88etW/fPnXz5k31+fNna6vs3LlTrVq1yvpMIusfgZoQ7cyZM2r06NGqVatW1t/p06c1cvfv31fTpk2L0i1YsEDHy0VjIRCUaE+ePFFz587V5GrTpo1asWKFOnfunEKPNWXKFP0MZNuxY4e+BylPnjzZWOiKtRqBYETDENmrVy9NnN69e6vbt29rQ+hi1qxZOo3Z43348IGSSdhgCAQh2qFDh2LkGTRoUCpMeG6SDEOtSOMi4J1ou3fvjpGmXbt26unTp6mIbd68OZYHpHOZCGAi8eDBg2hSkapAHgZHwCvRnj17prp27RojzdatW50qafZofIJABdy9e1dNmDBBDRgwQLVt21brgc5Gl6TZt496ffnyJXo5//7966P4qEyvROOOP4iDIfH379+Zlbl27ZomDRHu58+fFflsPR/Sz549uyJtI0WcPXtW9e3bV6F+PmXp0qWqf//+Mazx4q5evVph4lakeCPa0aNHYxUAATCLdJGNGzfG8mb5Z48fP1aYXBApXXtNF1tCpXnx4oU6cuRI1ENTPXwR7c6dO6pTp04ar+HDh0edQMeOHXUcbFi/fn1h1fdGtEmTJsWMhuE3btxwMtxcY3MBvEuXLlrfxYsXnfTUOhF6jyFDhij4rUQuHrrUu9o6/Pv3T+uCO2KOFGvWrNHPYYuLb+xigxeioYfhgOEaYLoMm0hj5r169WpqXV6+fBnL8/Xr19T0eR5i9wL2IcwrIBp6EbgUWNZBwyOO6u+DaMuXL4/Kt/m8VJ+9e/dqG2ALlqbyiheirV27NmYojB0zZoyTrefPn6/I++fPn9S8fJgeOnRoatq8D4skms0Wn0R7/fp1hG23bt2iYfHSpUs2ExTWKzt06KDboV+/furHjx/WtK6RXoiGxqa3kkLsALgIumrKg3DYsGGZ2RYtWqTz4I31KY1MNEwyOLbYiUmS6dOnx9ImkTIpvxnvhWj8baCKHT9+3NRtvTf9MxfiDBw4UIOC3s2nNDLRMBRTe1CYhJWZFhO0PFI40bD+Q5Xg4du3bzPt/PTpU0XeU6dOpeb7/v17LM/z589T0+d92MhEw/DH22T+/PmJcFA9KT2G9DxSONGwiErGUdijRw8nG+GgUh4K379/n5oXG/KUdsSIEda0mEwsWbIkcrRxHCnPYig1AEIf4tNHg73o8WfMmKGWLVumcIomScwdnbxLRoUTDetB1PAUzpw5M6k+sXjTP+vTp0/sue2G58HU3BQ+BNCQjllVS6XRieZabxzJovZDeP36ddes1nSFE822POE6TTf9s8WLF1uN5pFYbCRAbt26xR9FPRiWDvB2fvv2Tc2bNy9Km2cYKAPRPn78qLp3765xxQv/69evGLbV3hRONBjQs2dPbSRI4LIOYxs209Z6oIf7Z+ituIBMY8eOVW/evImisS1FhMyzF1oGom3fvl1jBcyy2oHjnnTthWhoYGpUhAcPHkzSH8XbSIZ8WefPuH/W1NQUlYWTIejF+H4nyMbtgX0tlZBEyzvTa0kdsWaJJSXCa926dS0ppiKPF6LxBVQYnDZ0JpFs5MiRFcaaEdj8JUA2bNgQ9ZzYJIbjbwoNsdgTzdppMPPy+5BEs/mc3BYf19ynTVtnq1a3F6LBCPQwRAKEOPtvCicZ9wmQ3mWPbdy4cVoHHftO+64AJLEJ4qv5wb5q0ifptdnCZ50rV660JfEWx0nW3NxcqB5vRIOVGMI42ebMmRM1EEgEBxPP2rdvH/V4PB2us/wC+Gf45oDnA1C7du3KPFjJEQQJeBm+rrnOtGtONFvPnJY3z7MrV65oHFwWyavV5ZVoMObEiROxIzy8IeFHPXz4MCIVj8d1ln924cIFDQwahzcQ8k+dOlVhTc9Fqu2dUH61eVzsQBpej4ULF7pmy5UOJzgI/zQ3J48S70SDcVjyuHfvXrRYiBkN9s34TgHvslHhrPNnKHPTpk0aHNpHxfBsTkRsQ3YewKgHROhDONHSVu6L1O2bZLA1CNGyQCFHnSrs4p9NnjxZE83c3+Tl4SRJkRKSaHzmXGQdeFmEOUaeJEEaHGPKIzUnGhYHqbIUwl9Ik3fv3sXymOfPiAwoDz0EF0wW0iYMPK3tmsoO0aNhq8inwL0ARmkHUuHaII3r6egke2tOtGPHjsVIg0plCY48Ix1+tvNnfCjGnh4JhmscYW4UooEI1Qh2P8zePSk/eqjWrVtHLk1SGsQTlnk/3q450fheJYiDmWqWcD/GNjMjcFAeNtFJcFQJcY8ePaKoqsOQPRrcA1fhLyzWCtPOj2ErDuuNwIl+W7Zs0dcUh5D+jiJvD15zomG9Bo1PPxdfAF8IUXrbOTcOOgeoualZuW7wJzVwSKJNnDgxyYyKeHMdMqnXPnDggMaOMHQJ63KvswKFhAj8m5BZSbxFWULfcGIYxHBhCma4VO62bdsU/ECUi3zmxruZN+u+SKKhF0HvzH9kN4Xoefhz/uJwWyk9hfjoxRRzx4bSZoWwIa/UrEeDv4Tey6wk/uwFR42ShBoa+TAEJAmIZZa9f//+pOTO8aQ/qcGdC2L+j2ln2n2SXixw05/kjB8/PvoYyLTFhkmaLnoGoueVoEQbNWpUReNTZZJCG7BYG4PvhY8t0gRfYx0+fDj6p6I8fhnXUSTReLlFXuNAY+fOnYssMndZwYhGDZREKFs8hsa8vkFuhIwCqB62F8BIWrNb7JEOHjy4ZvptioMRDcrRdaOBsn5w5uFbIX29SSMQDUs+IRZ7q2mboESrxrB6TlvPvRmdiEn7HqAW2ArRaoG6R53YJ8Y6mm027lFtZtFCtEyIGicBHcF23R0IWTMhWki0Peoi37Ee/VpUW4jmsfFDF12vJBOihWZCifVJj1bixg9ZdSFaSLRLrEuIVuLGD1l1IVpItEusS4hW4sYPWXUhWki0S6xLiFbixg9ZdSFaSLRLrEuIVuLGD1l1IVpItEusS4hW4sYPWXUhWki0S6xLiFbixg9ZdSFaSLRLrEuIVuLGD1n1/wH4hIaOq7dDmQAAAABJRU5ErkJggg==;" vertex="1" parent="1">
          <mxGeometry x="461.53000000000003" y="199.88" width="55.95" height="27.62" as="geometry" />
        </mxCell>
        <mxCell id="zl-Cs-IY_Ymrk6EpAjJ--64" value="" style="shape=image;verticalLabelPosition=bottom;labelBackgroundColor=#ffffff;verticalAlign=top;aspect=fixed;imageAspect=0;image=data:image/png,iVBORw0KGgoAAAANSUhEUgAAAI4AAABTCAYAAABJXT/5AAAJHUlEQVR4Ae1c16sVPxD+/U++WFCwPCg2RKxYsOK96oOIig1EVCyICoooiIjYsSDYEBUrioqK2LErKmLFAr7kx7c4YTYn2c3JZtdz2Rm47N5sZibz5TvJbJJz/lMigkAAAv8F6IiKIKCEOEKCIASEOEGwiZIQRzgQhIAQJwg2URLiCAeCEBDiBMEmSkIc4UAQAkKcINhESYgjHAhCQIgTBJsoCXGEA0EICHGCYBMlIY5wIAgBIU4QbKIkxBEOBCEgxAmCTZSEOMKBIASEOEGwiZIQRzgQhIAQJwg2URLiCAeCEBDiBMEmSkIc4UAQAkKcINhESYgjHAhCoDLivHr1Sl2+fFnt3btX7d+/X924cUN9/vzZ2uhdu3aptWvXWp9JYWsgUDpxzpw5oyZMmKA6depk/Tt9+rRG4v79+2r27NlJvSVLluhyuWk9BEojzpMnT9TChQs1WTp37qxWr16tzp07pzCizJw5Uz8DeXbu3Kn/B8lOnjzZemhJizQCpRAHU9KAAQM0EQYOHKju3LmjndLNvHnzdB1zRPrw4QNVk2sLIhCdOIcOHUqRYfjw4Zlh47lJGkxtIq2NQFTi7NmzJ0WCrl27qqdPn2YisGXLlpQOSOSTGCOxfvDgQZJkZzqQh6UgEI04z549U3369EmRYNu2bV6NNkccnjCTgbt376qpU6eqoUOHqi5dumg/8NnRxfV2WXZceLMNlWjE4YkwiIAp6NevX7ntunbtmiYBEejHjx8NeraRCfXnz5/fULcjFZw9e1YNHjxYIb6q5P3792rFihUJ7qE+oxDn6NGjDZ2PtyQf2bRpU0o3L795/PixQrJNJPMd1XzaUlWdFy9eqCNHjiQjKMVRNnG+fPmibt++rdasWaN69uyp8QuNOQpxpk+frhtCQFy/ft2rTeYajw+AvXv31v4uXrzo5edfV8I0O3LkSIW8jzDiV5+4m40BUxH89uvXz+oT/kOlMHEwAnAAcA9wfKYp1DF1r169mhnLy5cvUzpfv37NrF/kIYBH+4rkAuQfHdijR49kCscyBPI4lFH8ZREH9kEcfEDhg2Iiv9S+Zq+FibNhwwYdPDVm4sSJXu04f/58g+7v378zdfm0OGrUqMy6RR8SyDGIY2tL2cSx+aSYqK9sdXzKChMHnUeNoCtWiH0Er92kg+vo0aNz1ZYtW6Z1Vq1alVu/SAUCWYjTiGJh4nTv3l13JJHg+PHjjZ4sJWZ+40OEYcOGaX8YfcoUIY4b3ULEwfoDkYVf37596/b498mnT58adE+dOpWp9/3795TO8+fPM+sXfSjEcSNYiDhYlOOEwT0SMR9BcmjqYn0hS7BBSjpjx461VkVyjTUK5A84vlFkcU2IY4U4KSxEHKxHUEfSde7cuW5v7ImZ3wwaNIg9td9ynfXr1zdUwlsDtYOm0H379jXU8y0Q4riRKkQc2+u072ulmd8sX77c3cq/T8aMGaOJcevWrVR9jDBYrcZ+2bdv39SiRYuSuigPFSGOG7lCxIHZ/v37687Epx1HKvLENk3Z9qe4HZ7fYDThAnJMmjRJvXnzJinGNgSNPEX2soQ4HOX0fWHioMOok3A9ePBg2oPxn4000Ms7f8Pzm7a2tsQqdt4xyvD9KpCHtwftC5UqiYOtlyqEYiKM/vz5E+S2MHH4ghwakzVVuUgzbty43MavW7dOE2Ljxo3JyDZkyJAkETaVaUrDnlbeSrSpy/8nkHEtQzBSUgfacrYyfFJM5Pfnz59BbgoTB14xAlBDcMXZYVM4afr27Zuq73P+ZvLkyVqHjplmnUt2dTbKm/lDPM3Ud/k18cD/nDjYfKxC0D7eV8gHQyQKceDYPMm3YMGCBHCQAm9MaGy3bt2SEYk3HPc++Q3OLHM9jGy7d+/OPSjGQTFB4/Zi3nOfWfecOFhCqEJMDLCeFiLRiAPnJ06cSB154J2BPOThw4cJSXg57vPymwsXLmjSAGwOOPRnzZqlsKbkIwCumT/Yb6Y+6voKj2Pp0qW+aoXqoX0c/7y1M5ezqMSBE7yi37t3TyH32bFjh7p06ZLiK8l8rQUB4LU8TzZv3qyDpX0wTIdmYm6bIvNsZz0nkJshQ5Y98xknzuLFi83HpfxPMRF5Xr9+HeQnOnHyWkGJKzXcJ7+ZMWOGJo65P8XtYac+phDIVRCHvxnGjMG0RTER/jjyGyKVEufjx4+aANTwK1euZLb73bt3KR3z/A0HAp9gLkiesxJoXtd2T7arIM6cOXNsTYheRjER/jhPFSKVEufYsWMpEqDxeYIjlhSk7fwNn/pWrlypzWF6xBHJjkIc5GnNCN6GzNHXR98kDtKKEKmUOHyvCWTAm1ie8DzA9ubBiYNNTRIc7YCPR48eUVHTVwK5ihEH07Gv8A8g1qqQR/oKxUQfRtsXJX1sVUqc9vZ2PXqg4ThCmSf4BgAFaTvnw0HkHdze1q58N1xdbSCQuV1X3ZBy/qGYNm2atwlzHayZUZViIkxv3rzp7ZdXrIw4+LUKaixdMVrkCX2HCtOObbEKQy3Z2759u0IeBbvQMzdC83yZzwnkGMTZunVrsowAstAftZuuWAmnZ7i6/FJ9uuIQvEu4PdyTDl2x72fWcdni5ZUQB/mG7Xvi+PEBHM1wCXUcgsRut0v4dEWAHDhwwFXdu5z8uzrQ25BS1oVPaqvr6vKLBVP60YYpU6YkXw5wtcVl21UOEvlIacQZP358A7tdjaVyG1BYm0HukrfegLeDw4cPJ7+EUSSv4aDFJA63G/MePyPTq1evmCa9bJVCHAKcCOFzxVQUuuHmFWlAJYrDRugAc6WoYI9rxIgRpdjOMloKceAQ0wcAz/tDcovcxCffyQqkjGcdgThYoqhq8ZBjXBpxuJOOfN/Kow2dOMB0VbUIcapGPKI/7PNhHcf2thnRjdWUEMcKS+sXYgMZuWPI6nGM6IQ4MVCs2AblXv8yLxTiVNzpsdz9S9IgBiFOrJ6smR0hTs06PFa4QpxYSNbMjhCnZh0eK1whTiwka2ZHiFOzDo8VrhAnFpI1syPEqVmHxwpXiBMLyZrZEeLUrMNjhSvEiYVkzewIcWrW4bHCFeLEQrJmdoQ4NevwWOEKcWIhWTM7QpyadXiscP8HjOE/uzQulj8AAAAASUVORK5CYII=;" vertex="1" parent="1">
          <mxGeometry x="435.75" y="125" width="51.33" height="30" as="geometry" />
        </mxCell>
        <mxCell id="zl-Cs-IY_Ymrk6EpAjJ--65" value="" style="shape=image;verticalLabelPosition=bottom;labelBackgroundColor=#ffffff;verticalAlign=top;aspect=fixed;imageAspect=0;image=data:image/png,iVBORw0KGgoAAAANSUhEUgAAAJMAAABJCAYAAAA5QBRcAAAJj0lEQVR4Ae1c56sUMRD3f/KLHRui2BCxN6z4nvpBRMUGKioWREVFFETsvSDYEBW7oiAiduyKiigqNvRD5LcwYTaX3c3eJXt372bgsbndZDL55bfJZJJ9rZSIIOAJgVae9IgaQUAJmYQE3hAQMnmDUhQJmYQD3hAQMnmDUhQJmYQD3hAQMnmDUhQJmYQD3hAQMnmDUhQJmYQD3hAQMnmDUhQJmYQD3hAQMnmDUhQJmYQD3hAQMnmDUhQJmYQD3hAQMnmDUhQJmYQD3hAQMnmDUhQJmYQD3hAQMnmDUhQVTqbXr1+rq1evqn379qkDBw6o27dvqy9fvlh7Yvfu3Wr16tXWZ3Kz9hAojEznzp1TY8eOVa1bt7b+nT17VqPz4MEDNWPGjCjfwoUL9X1J1DYCwcn09OlTNW/ePE2gNm3aqJUrV6oLFy4ojDzTpk3Tz0ConTt36t8g3unTp2sbQbFOIxCUTJjO+vTpo8nRt29fdffuXV05JWbPnq3zmCPXx48fKZtcaxyBYGQ6cuRIjCCDBw9OhQLPTSJhWhSpHwSCkGnv3r0xYrRr1049e/YsFZXNmzfHyoBYLs43nPeHDx9GjnxqBfIwOALeyfT8+XPVvXv3GDG2bt3q1BBzZOJOOSm4d++emjRpkho4cKBq27atrgd11rskrWrrpV3eycSdbZAD09evX78y8bh586YmBpHqx48fJeVsIxjyz5kzpyRvPd04f/686t+/v0L7QsqhQ4fU6NGjVa9evTTeXbp0UfPnz1cnT56sqGqvZDp+/Lg2kAiB1ZmLbNy4MVY2y1968uSJgkNP9biOfi62FJXn5cuX6tixY9FIS+0ISSbyS6dOnRqR9tKlS2r9+vWqR48eGsdly5aV3XyvZJoyZYo2isC5deuWk3FmDMoF1G7duun6Ll++7FRPtTNhih46dKiCH0kY8atLu8tpA+pFPQjHmAJ/loiGPD179jSzOP32RiaMFBwUpAGYyxSHPGbZGzdupDbg1atXsTJfv35NzV/JQ0TpYR+ulQo6tVOnTlHnISQCv5A6GnWEIBMCxoQv6rTJrl27dJ5y7fBGpnXr1sWMgUHjxo2z2V1y7+LFiyVlf//+XZKP3+BT6rBhw/gj72mfZLIZF5pMZt/YCMsJh76DTXnFG5nQocR+uiLS7SIIAVAZXIcPH55ZbMmSJbrMihUrMvNXkqHeyTR37lyNFfC1EeXatWuxPJhV8oo3MnXs2DFmDIx2XR2Y/pILOQYNGqTrwygVUuqdTPfv39dYde7cWZ04caIELiwE+AsNvy6veCET4iPcEEq/e/cu057Pnz+XlD1z5kxque/fv8fKvHjxIjV/pQ/rnUxoP+JzmN6SgsdYDVO/4bp06dLcsHkhEwzlhiCNOIaLwAE1y3748CG1KDaJqcyoUaOseeHAY5mLIR1HXSoJCLYEMllBYjfHjx+vMQW2OLmRV7yQCfES6ly6zpo1y8kW01/q169fZjleZu3atSX58QaSHTT97t+/vySf642WTibzhbY56C5YeSGTbWnvapDpL7kMryNHjtRkuXPnTqydGIkQM8H+4Ldv36LILohlczpjBVN+tGQyHT58WGMJnFz7zQaXFzJBce/evWNG4fhJlphvBBqDe2nC/SWMOlxAGAzXb9++jW5ji4VGqEr27loamYCR2V8cx3LT3shkzrlgfJrYiISOzzq/xP2lpqamqAqK4PL9ORCKiIQr7CtXiiQTtpVCC0Yf/OEUK4V0EEjF6dbHjx+XXb03MvEgIjovbbhMIhI2ILNkzZo1miQbNmyIzpMPGDAgcrbNsjQdYg8vK6JuluW/iySTzQfktoRIo6/oxUPoIGt2SLLBG5lQAUYKMgpX24qAEwl7QDy/y/mlCRMm6DJ0xDftnDiIYBPcz/MHO/PkT6rXZgumZ8Jh1apVtizB73FCwZZyCOWVTGgx3zCEUYi+AlgQBSs13Gvfvn00chGAdM1qAPwlnCGn/LgChD179iTGT2y9AHu4jlBpW922e5xMleza23S73kM4xsTh+vXrrsWjfN7JBK2nTp2KHQ/hRsKvefToUcR8fh/pLH8JRyaoDDqAdwLuT58+PQrOuSCQd5SB/rxlXOxAHt6OxYsXuxbzno/8J8I477GeIGRCKxEuQBgfvtT27dvVlStXFI+Im8Nq1vkl6Ny0aZMmE+37YSo1nX/b9FoJ8jSS4RpCOJkWLFgQogqnkRtTLBEJVxwpyiPByJRlBDnHZLyLv4RDXZTf3I/j+rBL7lOKJBNfkfpoA15g+gYRKza8xElivuDAOo9UhUyfPn3SpCByYNc6Td6/fx8rY55fog6HPrzpXOCgpznpPK8tTbqLGJlmzpxpM6Hse+Yq28SGK8YUS/2BK17QPFIVMmHXmhuNdJbwXW3b+SX+Vi1fvlyrw5uJM871Qib4fXkEUX5zlOblaVTiePPnPM1HfuRftGgRf5yZrgqZ+N4ajMYKMEu4X2Fb8XAyYWOXBMdgUEclwbgiRyZ0qKvwlxKxNPilpuzYsSP24iadtPz582fsax9glkZSsx78rgqZmpubnRrIDcaXG2gg/mznpDiwfDpqbmpWrpvOvD6eLpJMkydP5lWnps04nW30xfKecEvzl7BIony42nSlGlMNMuG/oHCjkU5rJDWAvpHDlIWh3RR+AGzbtm0Kfhn0opy5GWyWzfrtk0xbtmyJfDqMtPRn4oGIPj3Dlb8c3FazXNKBNh4oBlnxif7fv3+1Kpwf47pGjBih/vz5o5+7JgodmeC/2P6vAL6YwDGWJKHORIPxfVeS8KmOwDl48GBSduf7VH9SpzorUioiONnmek2qFyShf/wxceLE6AOOJFtwzp7vUCD4i7Ng2D4hOzBV4sOCf//+JalJvR+cTGPGjNHGktFZVxt4iB3BF3rz5k1qg/CVzNGjR6NPeirxk3glPsnE9fpM44OArl27ZqoENpjCQKQOHTpE/ipWcVjg4NRrJRKUTNQJWeThzzGNwRmsJaF22EheK3Yi4DhkyJCqmhOUTGgZph50QtYfHGj4Oi7+U9GI1QOZEC7xHfDMi3NwMuU1qFbz1/KoRA42prpqipCpmuh7qhv7mnCebatcT1U4qREyOcFUu5koPpQ3wBiiRUKmEKgWpJN8uVrxM4VMBXV8qGpqhUhon5ApVC83oF4hUwN2eqgmC5lCIduAeoVMDdjpoZosZAqFbAPqFTI1YKeHarKQKRSyDahXyNSAnR6qyUKmUMg2oF4hUwN2eqgmC5lCIduAev8DVndUxrPj7zsAAAAASUVORK5CYII=;" vertex="1" parent="1">
          <mxGeometry x="476.5" y="266.84000000000003" width="52" height="25.82" as="geometry" />
        </mxCell>
        <mxCell id="zl-Cs-IY_Ymrk6EpAjJ--66" value="" style="shape=image;verticalLabelPosition=bottom;labelBackgroundColor=#ffffff;verticalAlign=top;aspect=fixed;imageAspect=0;image=data:image/png,iVBORw0KGgoAAAANSUhEUgAAAG8AAABaCAYAAAC2cgh+AAAHT0lEQVR4Ae2b30sUURTH+598MyIVHzIpIiQqshDElzIfUuwnVqCkEKVvij0oaJGaIZRIUFBZCQr9ovBHEpZS+AtBUQm58R04lzuzM3f3rrOzc91zYJnZuWfunPv97P09u0+wWavAPmsj58AFw7P4R8DwGJ7FClgcOtc8hmexAhaHzjWP4VmsgMWhc81jeBYrYHHoXPMYnsUKWBw61zyGZ7ECFofONY/hWayAxaFzzWN4Fitgcehc8xiexQpYHDrXPIZnsQIWhx55zfv27Zt4+fKl6O/vF+3t7fJTX18vamtrxa9fvyyWM9rQI4V3//59kZeXp/0sLy9Hq4DFT4sU3pEjR7TgkM6WugKRwhsfHxf0QZPprYU3b95MPXL2zN5Ltz9+/EiANzQ0xEgMFIi05qlxPX36NAHe/Py86sLnSRTIGjw0kWqzyf1dElI+yVmDV1RU5ILH/Z0PnSSXsgJvenraBQ41kPu7JKR8krMCr6+vLwEe93c+dJJcygq8a9euueBxf5eEUkByVuCVlpa64N2+fTsgPL6sUyByeGge1VEmzoeHh3UxclqAApHDw8DEC29paSkgPL6sUyByeN753YkTJ3TxcZpGgcjheRenW1paNOFxkk6BSOH59XevXr3SxcdpGgUihefX362vr2vC4ySdApHCa2hocA1WysvLdbFxWhIFIoXnnd+1trYmCY+TdQpEBg/vpninCO/evdPFtufS8N5OVVWVsyEdRuEigzc4OJgA79+/f2GUIfZ5PHv2TJw/f16WH28ThGGRwfOuZ1ZWVoYRf+zyABi84nH9+nVx7tw5UVhYKKFRy2MdvEOHDrkKgQLuRQMYgoTj0aNHxY0bN1zXrIL38+dPV/Ao1Nu3b/ciO/mCFfr47e1tp4wTExOu8lsFDx21+mvE+d+/f/ckPL9CWQ3v8uXLLnhoSnLJrIZXXFzsgldXV5dL7IS18GZmZlzg0GSmM1gZGxsTAwMDAkc/29rackRC3q9fvxa61+ZnZ2edd2YeP34s3rx545ddqNe8gxhr+rxHjx4lwPvy5YtLHExcAdWvUHg59+zZs648Lly4IO9fWFgQqMkHDhxw+SC/xsZG6YeTu3fvCu+uBvzOnDnjAHc5h/jFWnj45w8Eog/mPqrNzc3JNPU6zlF7sN9XUVEhsCOBmkL5PH/+XGCFpqyszBG/ra1NTE1NiZWVFadmkx9qKwx5YM6FfyNh0gz78OGDKCgocPLEVAZvtWXCrIVH4pCYHR0dLn2oZpaUlLiu40tvb68jLP4SBlNFoMkvoHkNNZueB7g4P3z4sAPX63vp0iXpm6nXD9W4EQu+h2EZX2EhEeno3b+rrq52xOvq6kooD3YdUGPIcC/lg6O3WSS/jY0Nl9/BgwcDBUNTSnmm0xfTM3VHa+GdOnVKigOR1F/dp0+fZNrv379d5UcTCP+enh55XX2F4sqVK/K698QrlvcHo/rjx0HwMNDJhHnjUTXYzfMyXvOampqkOBBJbZqo1vmBQAExkJmcnJTlUwcbnz9/lte9Jw8ePJDPxBxTZwQOx8XFRZ1r2mnWwvv69atrcZa2RNDkQTAMSDCiTGZ//vyRQPz6R/X+mpoa6fvw4UM1yXWOaQfBy+TCgbXwoBYGHIBEQtHx5MmTKYFDHiMjI/J+v5qqUqHBDJ7z/ft3Ncl1jsEOxRLUf7puSPOL1fBQZryrggEBhEdzif+n6ybSXp2am5ul0JgyBBkm4AQEKzs6w/yOfF+8eKFz3VWa9fB2VXohxOnTp6XQGMwEmfqnTd0y3MePH2V+qKlra2tBWe76ek7D29zclEJjJUVnt27dkr7d3d2Brnh/hmodJu5kOzs7TgsBwcOynIaHlRASWp33+Yl7/Phx6fv+/Xs/F+ea6kerMEjAfBPP8i7hIQ2rPKjZppbT8NBXEjxMPYJM7e/gH9SnYgmN8sOR5phoOjGh9y7h4XnoE+keDL5GR0eDwki4ntPwaOEa4qnzRK9KtNQGv2PHjnmT5XdVTAyeyDo7Ox1Afistd+7ckfCQPwY7qZr6PNyL72FYxifpYQSJAtMHTVeQqeuUyf4DQc0mlsdgmI/m5+cLjGr9TP0BUSxBbwMAvvrxTpPwHfldvXpV3Lt3z/H1e2aya7GHp/5q1YGFX8FUgZM1a2pTjJHs/v37BQY7QYalM3VqAYB+/SLuJ7ipHhF3OhZ7eCgU+hvaxtEVEis1gKIbqKj30wavbpNX9cc5fky07opVHz8zbRZN/emZVsCjYONyBGzs/2XbGF4aBLC7cfHixTTuDPcWhmeoJ3YeUOuePHlieGf47gzPUFP0qdiaWl1dNbwzfHeGZ6ApTdR1c02D7HbtyvBSlBC7/tilQM2LizE8AxJxAoewGZ4BvLi5Mry4ETGIh+EZiBU3V4YXNyIG8TA8A7Hi5srw4kbEIB6GZyBW3FwZXtyIGMTD8AzEipsrw4sbEYN4GJ6BWHFzZXhxI2IQD8MzECturgwvbkQM4vkPcN6gY8X8Ki4AAAAASUVORK5CYII=;" vertex="1" parent="1">
          <mxGeometry x="315.8" y="119.55" width="41.2" height="33.41" as="geometry" />
        </mxCell>
        <mxCell id="zl-Cs-IY_Ymrk6EpAjJ--67" value="" style="shape=image;verticalLabelPosition=bottom;labelBackgroundColor=#ffffff;verticalAlign=top;aspect=fixed;imageAspect=0;image=data:image/png,iVBORw0KGgoAAAANSUhEUgAAAGwAAABQCAYAAAD83pAbAAAIDElEQVR4Ae2b94sVOxTH/Z/8zYIFBXVZURFRsaAswrMiKioiNhQVBdffdtEfXLFgfwt2sLcVxa5YsWMXxYpIHt95nOEkm+TO3Mn4Mo9z4HLnJmcyJ+czaSe5XZRIpTzQpVLWirFKgFXsJRBgAqxiHqiYudLCBFjFPFAxc6WFCbCKeaBi5koLE2AV80DFzJUWJsAq5oGKmSstTID964Hbt2+rY8eOqV27dqmWlpb0M3fuXDV79mz17NmzirkqDnNLaWHr1q1TXbt29X7ev38fhwcqZkUpwBobG72wkC9SnwdKAXbp0iVFH3SHZmtbvHhxfdbKXeXvhz18+LATsPb2dnF9nR4opYVxW/bt29cJ2IsXL7iKXOfwQOnA0P3xLlHGrxx0LKqlA+vbt68GTMYvC4UcSaUCu3//vgYLLU3Grxx0LKqlAtu5c2cnYDJ+WSjkSCoV2IIFCzRgMn7lIONQLRVYQ0ODBmzp0qUOMyQ5qwdKA4auj88OcX3w4MGsdomewwOlAcPkwgT27t07hxmSnNUDpQEz118jRozIapPoeTxQGjAzALx69WqPGZKV1QOlALONX8ePH89qk+h5PFAKMNv49eXLF48ZkpXVA6UAW7RokTbhGDt2bFZ7RK+GB0oBZq6/mpuba5gh2Vk9EBwYzmqY0/lz585ltaeSevv371eYVOG8yqRJk9SyZcvUpk2b1MmTJ4PXJziwvXv3dgL269ev4IbHUiBAmS8o/w2IT548CWZucGBm/LCpqSmYsbEV1L9//wQWjkGgF8HE6u3bt+rq1atq/PjxGsgtW7YEMT84sAEDBmiGojL/R1mzZk0Ky1a/z58/q1mzZmm+uHbtmk01V1pQYI8fP9YMRNdw5syZXAZVQfnDhw9JPQcNGqQOHDigPn36ZDX7ypUrmj8mTpxo1cuTGBQYDo3y/hvXr1+/zmNPJXRxIozXc/Jfk512T5kyRdO9deuWUzdLRlBg8+bN04wbPHhwFhsqp4PxiAPDtWtiYR6q3bFjR6H6BgXWr18/rSJz5swpZFysN+PUMgfm25hFSI7r4ph6EQkG7MGDB5phMLKeCUdHR4favXu3wrdNfvz4oS5fvpyUferUKeU78v3o0aPkDAne6tOnT9uKqzvt7NmzasiQIWrmzJkKdrgEdeHA0OKKSDBg27dv1wyDkTdu3NBsw6IS6RgDTMGB03HjxmllTJ06NVV7+fKlQovt2bOnpoPyli9fnurhYu3atcrcLYDemDFjvM7VCgn0Y+HChZq9J06cKFRyMGBo6nAKfbAO4fL06dM0j6fjGq0E+2UTJkxQiPSjRVA5mIVhjTN8+PDE4evXr1f37t1TmKnxY+B4kyEoo0+fPknUAREIyIULF1Tv3r2TMrHswGmuPyHfvn3r9OK8efOm0KODASOHkKNbW1s1w6gFDhw4UEvHj61btybOxN+TIHwWBuejTIAyBS2YngeguMZUG0BN4WuiP3XUzty1CBFTDQaMHEff5v7XtGnTEocixmYKovloGSTmQG12eaT39evXFBie26tXL2t3C310k2RbPWMrPTPP9/Tp09NnDhs2LM+tTt1gwEaNGpUaB8fwcQorfHLW8+fPNWPQGpDHQzf8eMH8+fM1ff6Dt0SUYb4kXBcvBNngmyTwe4pc8+4aY2coCQZsxYoVqUPgGN7tUOuyOR9Ox2Tk7t27aZ34hOH69etpunmxcePG9JlYA/qEYOEb8b4yBVF6eh6CvyElGLCbN28mgz0ZCgiAge4MaZhUYCZYS169epVW1jbe8ftnzJiR6m7bto1naddYIpBdZS/mEdmhZ4WGhUoFA4bCMGkAGDKYvkeOHJkJFso4fPhwer+tRXISNCHBc+7cucOztGtMWMgW13io3VDgB/UOZY2TQYGhnthigLFwNrpCLBR9i1vTN6tWrUqd6wvjYFFMEBBh8QnGENI9evSoT7VQHq0zy4IF44IDK1RjpdTo0aNT59qm51Q+/6OgLwSGvSmChRbpiqxTufV+E6z2v93/LkW0vmg3GRWw79+/p85FRMMnS5YsSXXb2tqcqlj7EDDurN+/fyc9AZ/NOgupkUGwLnZcdGr+/PlT9ejRQ23evNmpkyUjKmCISJBz+brMVhGsa0j3/PnzNpUkjetRNAQZWA/ifjN8hjxEW9CCswjB2rNnj1edljaHDh3y6tXKjAoYX7tgmeASPn7B6a4xkjYaCSytAdEtYpFths/wPIxxpI8JFIK8LqGlzJEjR5IZMVor/yCkBvCoF4LEKLdoi44KGL2tqBhfx5kOozAX9BAxdwmcQ87HBIhkw4YNSbptcrBy5cr0HtzrWvRSOI3Kz/qN6EwRiQoYrzS6JZfwuGCtM/vUJSI0BcF6sVu3bgqzUZvwl4bsMXfN0eooL8/30KFDbY/MlRYNMN4a+OTAVhvuVF+XhXt5N4sZaPfu3RUmLC5B2IovAwDEHOd4mXmAwe6iEg0wVATjB22J+CqGiAmc5pts8PtpU9S3Mcr1cY0XiOKciL5wQV69H15OPddRAaunAmXeA8DYP4tJBJiHBnYNsEUSkwgwBw1E9NG6aq2vHLeXlizAHK7FGIlA7sePHx0a/02yALP4nRbPvrWg5bY/kiTADDcjhIToP1pYjCLALFRihQVTBZgFWMxJAixmOhbbBJjFKTEnCbCY6VhsE2AWp8ScJMBipmOxTYBZnBJzkgCLmY7FNgFmcUrMSQIsZjoW2wSYxSkxJwmwmOlYbBNgFqfEnPQPWawx3phoUU4AAAAASUVORK5CYII=;" vertex="1" parent="1">
          <mxGeometry x="322.75" y="197.5" width="40.5" height="30" as="geometry" />
        </mxCell>
        <mxCell id="zl-Cs-IY_Ymrk6EpAjJ--68" value="" style="shape=image;verticalLabelPosition=bottom;labelBackgroundColor=#ffffff;verticalAlign=top;aspect=fixed;imageAspect=0;image=data:image/png,iVBORw0KGgoAAAANSUhEUgAAAGUAAABHCAYAAAAeGInyAAAH7UlEQVR4Ae1b6UtVQRTvf+pLFmlZiSZKhEZFC4L0QSvRihKLFigqCCrpg6JCikvZYtFChEW5VFDQIkYr0UaRFUGRIDLxu3SGM/Nm5r3nvc93lTnwuPfOPXfmzPnNzFlm3hzhKXYamBM7ibxAwoMSw0HgQfGgxFADMRTJzxQPSgw1EEOR/EzxoMRQAzEUyc8UD0oMNRBDkfxM8aDEUAMxFMnPlNkOyujoqLh165Y4d+6caGpqkr+dO3eK7du3iw8fPsRQBfETKbKZcvz4cTF37lzn7/v37/HTQAwligyUkpISJyB47yk1DUQGysOHDwX9sHTps2bfvn2pSeS5MrOf8ubNmwRQLl++7NWdogYimym8vb6+vgRQPn36xFn8vUMDGQEFSxVfvrw9cSBgeJURUPLz8xVQvD0xaN5RFDkor169UgDBjPH2xIGA4VXkoPT29iaA4u2JQfOOoshBaWhoUEDx9sShfcuryEEpLi5WQDlw4IClaV9s00CkoGCZ4l4X7q9fv25r25dbNBApKDDoOihjY2OWpn2xTQORgqLHJ6tWrbK168sdGogUFD0pefToUUfT/pVNA5GBYrInt2/ftrXryx0aiAwUkz35/fu3o2n/yqaByEDZu3evYuTXr19va9OXJ9FAZKDo8cmJEyeSNO1f2zQQCSjYe9dd4eHhYVubs6L8/fv3orGxUSCDsWnTpuCHcwg4nxD2LEIkoFy8eDEBlImJiVmhfFMnenp6REFBgZg3b56Ax1lRUSEWLVqk6OD8+fOmT1MqiwQUPd9VWVmZUuMzkam7uztQPmIyPdF68+ZNBZjq6uopdTESUAoLCxVhsEc/G+nevXtBP8vLy8Xdu3eNXezo6FB0MZUZExqUd+/eKULAtgwODhoFnumFbW1tSl9Ng+/Zs2cKD868pUuhQYFh0438169f05VjRvDDoPO+4tlEnAf36VJoUHbt2qUIWlpamq4MM4b/yZMnSl8xIHXCgOSgrFixQmdJ+hwalKVLlypC7NixI2mjM5nh5cuXgft7584dYzf05au2ttbI5yoMBcrr168VQDBCTOusSwC8e/DggYBBxNVE4+Pj4tGjR0HdMLCu469v374NzgScPXtWDAwMmKrLaBliFz5TcEAxXQoFCvx1LgDuMVI40TpsEg6H9jZs2KDUsXnzZvn558+fBWbewoULFR60c/DgQcmHm2PHjgUxgy7PunXrrJ6SUkEED8+fPxc5OTlSVgA0FQoFCiJYroSNGzcqMiDqpffKCyGC0Y79FgRe8Pcxson32rVrAhmBsrIyAaWePHlSYNn48eNHMFuIj9xN1LF48WIBT+fq1atBU/fv35cBHVx2nLLJJOEfB+gPybZnz54pNxcKFD2KbW5uVgShmVRUVKSU46GrqyvoAP46AcJMog5BwbgHGDrxNRuggW/58uUBaDrvtm3bZJ2ZOObE0ywkOyJ89C0MhQKFBKGrvn+yZcuWQCmnT59OkBFZZIxwInxL9eCqL0/E9+fPH4UvLy8vAJTe8yuWNKpzKraO12W6p5wX39yrq6sLZvO3b99Mn6RUFgqUNWvWyE6j89xucPfx48ePijBYisDf2dkpy/lWcn19vSzXb/iMQh36QOD8AJ1AsUXgnD/sPQYftYcl0+ahJWsnFCiHDh2SQkAYvkTQLDEpGIrFKHvx4oWUj4+2p0+fynL9prW1VbaJGMlFpCBcw4xcVxv6uytXrkj5MIvhNaZLoUAZGRkJDCx1HoqGwrH0oAyGDx5WMvry5YvsiMn+8O9ramokL5KDNoJ7TXJNd0CLgJG3jdAhHQoFChqCoeZeBwmzevXqlABBHTdu3JCdMM0s3iFyAtAOXFAbwUkgWWz2yfZt2HJaJah9vkynUndoUNAI9uJhSKFQCIT/P7oCPF2wI0eOSAXCNbYRAkPqKDIJLoIrTbxIqU8n6f//TDeqjwSUsB1eu3atVCCcABvxPyO50jmPHz+W9WFm/fr1y1ZlWuW7d+8OlmvEYy5vDu9oQNA1nYayDsrfv39lBxC5u2j//v2St7293cqK8wGkDJ46n5ycDJTJvURrJdoLiquoXtfox/lp4sMVszYdyjooiLypAzxuMXVi5cqVkhcbTjbifBT1g5dcVj0VhHfIKmAm2ogHoiSvjRepIuLBFYMpHco6KHyqw8W2Ebcn6KjNZiEVwxVCMRKWMLioeioI7fFtXDgtQ0NDCWJgZvJ6XQMoNzdX4b106VJCfa6CrINCCUt0mMc5utCUsgGfa4+CB5dwOohaWloCRZlsweHDhxUlmpYb2gpG+6Y6qJ3+/n6lLtcyR9/o16yDwkeffhCBC8uXj2RnlGn5QpoFhHhq/vz5Al6eifjAIHlMu6dnzpyRCj916lRCVQiGlyxZInlQ11Qoq6DwUc0NsqkjXHGm5YV/w5dEeHYLFixwrutIwXAXGso02R20gbopLlu2bJnAiRW4wBg0PEHrCmy5rKb7rIICgbCeU7rdJCCVITMAhbgMPPHiShtnrs0zzo97DBLKyyHL4CLIDRsI2wKvEZnqqqqqYDbCJQ9DWQcljPCZ+BYgIpmYTfKgaNpHtnrr1q1a6fQ+elCYvpFJxiy5cOECK53+Ww8K0zlsFrYQfv78yUqn/9aD8l/nFEC6YqXpgseDIoTALimyzpgpcSAPyn8U4gIIxPGgxGFqaDJ4UDSFxOHRgxIHFDQZPCiaQuLw+A+U2E3c62Z9mAAAAABJRU5ErkJggg==;" vertex="1" parent="1">
          <mxGeometry x="332.05999999999995" y="264.65999999999997" width="38.41" height="27" as="geometry" />
        </mxCell>
        <mxCell id="zl-Cs-IY_Ymrk6EpAjJ--69" value="" style="shape=image;verticalLabelPosition=bottom;labelBackgroundColor=#ffffff;verticalAlign=top;aspect=fixed;imageAspect=0;image=data:image/png,iVBORw0KGgoAAAANSUhEUgAAALwAAABZCAYAAACEwE6aAAAORklEQVR4Ae2dia/VRBTG/Z+IEgWfG6BoRFSiqOwQ4gImgmiEuCOoEVQWRRJC3JVNQR5oFFRAjAmCC6CS4AYkqKggq2hS82ty6rm9nWlfb/tee+85ycv0tTPTme98Mz0zc2buOYGJIdBBCJzTQXW1qhoCgRHeSNBRCBjhO0rdVlkjvHGgoxAwwneUuq2yRnjjQEchYITvKHVbZY3wxoGOQsAI31Hqtsoa4Y0DHYWAEb6j1G2VNcIbBzoKASN8R6nbKturhD979mywdevW4OWXXw62bNkSnDx50quB/fv3B59++qk3jj00BHqCQK8R/sUXXwwuueSSoF+/ftHf0KFDgyeeeCLo7u4ODh061FBuGsQNN9wQxn3//fcbntk/hkBeBHqF8C+88EJEck34+PWgQYOCyZMnBzQEeTZ16tTUL0Heylu6zkOgdMK/+eabEXmFxD0Jf/nll87TitW4NARKJfyPP/4Ykf2OO+4Ivvjii7C3hsQ7duwIZs+eHQwcODCKoxtCV1dXGL+0mlvGHYlAqYQHUezve++91wnuqVOngnXr1gV33nlnMHjw4NBunzdvXvDnn38609gDQyAvAqUTPm/BLJ0hUAYCRvgyULU8K4uAEb6yqrGClYGAEb4MVC3PyiJQCcJ/8sknwfDhw8PZmn/++aeyYFnB6o9AnxP+o48+apiW/PXXX+uPqtWgsgj0KeHxrRk7dmwD4b/77rvKgmUFqz8CfUr4JJeDzz77rP6oWg0qi0CfEX7Pnj3BBRdc0NC7s9L63nvvVRYsK1j9Eegzwt8z454mskP4N954o/6oWg0qi0CfEH7d2nWJZIfwS5YsqSxYVrD6I9DrhMd3RvzctbOYXM+dO7f+qFoNKotArxN+2bJlUe8+ceLE6FoIP2PGjMqCZQWrPwK9Snh2NeERCblnzZoVsAtKiC7hpEmT6o+q1aCyCPQq4Z966qmQ4Oedd17w+eefB2vXrm0i/HXXXVdZsKxg9Ueg1wjP5g/pxdnHirChW+5JyL5XE0OgLAR6jfB33XVXSG72rR44cCCsz1dffdVEeIh/5syZsupr+XY4Ar1C+NWrV0fEfuWVVyLIv//+++i+9PCEhw8fjuLYhSFQJAKlE/63334Lhg0bFhKbEwi04CimiS7X33zzjY5m14ZAYQiUTngZqJ577rlNm7KZkxeS6xB3YZNiEeDQq3feeSdAHzfddFNw/vnnB9dff30wc+bMRHcODsBiCpnN9+gG923MUs4LqrOUSngcwYTIOIolCcBLHAnXr1+fFNXu5UTgyy+/DEku+CaFnAYnwsb7pDhyr87+TqUSHhMGkG6++ebg9OnTgmdDeM011zSB+9JLLzXEsX/yI7Bq1aoIX3poxlM///xz+Mf1gAEDouecHqHJPmfOnPDFf/31V3isiugTE5V7dZTSCL9x48YISF+PwElj0nNIyDEdJq0jsH379gjbDRs2JGaY5KKNHpYuXRrFP3bsWPDQQw9FefH8ww8/jJ7X6aI0wo8bNy4ECK9In9x///0NQAKmuRf4EMv2jFVt6UCeffZZZ6Jt27ZF8SQ+i3+QXCTJs/X111+Xx7UKSyG8Pl7v22+/9QKycOHCJsDHjBnjTWMP0xHgYCsIzKDUJ9qEEcKvXLkySvLHH3806Yd4TCnXUQon/PHjx8PRP6DMnz8/FRN6CgFawssvvzw1XbtEYPaEQSW2NuYFf/zfijDDIlhypKFPXn311SguaZhEOHLkSJSERULJS0K2ZdZVCie89oZ0DVQ1WNj3AqQOO+H0gs2bNwdJg3ZwYBqQRpBHnnnmmRBTxkdp8thjjzXgH18rIb0eZ/G8zgfcFkp4PnOXXnppCOBrr72WhnX4nB5IE12uDx48mCl9XSPdfvvtYb2nTJkSvP322wE//oDdzODy6quvjjBh70BPhQEmJGXWJU2w1wVzwuXLlycmYfWbw3HrLoUS/sEHHwzBGzJkSDiNBZmz/GnA5TrtU1xn4CEV9XStTWiThHi4UpchO3fubCA778K/qZ2lMMJ/8MEHTeAJefOEH3/8cdvifuONN0ZYuUh/1VVXRXHArwwzgndr3bDy2u5SCOH//vvvYPTo0Q3gaSDzXLvmjeuuED1dKLgkkVnbzcRjNqVoufXWWxt0xnn97S6FEJ5FClFeFhMmHueiiy6K0ks+eQdsVVcYMyBSRwmTyqy/AsQrugNgpbR///4NZekEl46WCa/Pl1mwYEGS7lLviTelEICQ7X/tKo888khENL2iqesrg3/B5KefftKPW75mpVTylrDdJwoArWXCyyocO5VwBc4jLDQJ6BL6VgfzvKNqaTADXYKJIzgQ+n5BxZVH2n3cN/Q76HQ6QVoivD5fxjX4ygKirApqBfTEvYCtgjhGsZuKkxCY5tPCeZUscN13333RT2cydZfkhqxdaPn9qTGjx4SzKXkbsy5H1uv4YLLVhaik9+IirPHO0qiYPaJsPixwVQDbCy+8MJMurr322gAntSS3YyZCsBoYHxali9yExxaVI66xN9N+ZDgJdLmX5E8zcuRIeewNZWkchfEnSpRBHmMBzIMrrrgibBQo7LLLLovi4QYhIgPFUaNGBU8++WQYX/LjHqvIZQvjG0gg780zlkE3d999d3DxxReHddi1a1dDsdGV5C9hlg5LJiZccWmYeF/m1QXemyKyIFa0LnITHkIIWPSKrQguCJKXhJw7mSaYBXyKRQHa74MVQVkXYPlcC+6x8p4rr7wyfMRvw7IIE+9NdT3LMrMwYXbv3h3WQ87bxESUeumyp12zuo07ttSPkIashUaln3MtHYSOp6+1k5lrC6Z8DUmXRxeQG2HTSVm6yEX4vXv3RoAlLUVroLJcs881rgD+TxNxS/j666/DqJgu8XySzBYi6086pHetaOrB3fTp09OK1OPn4gagy405x2RAHqGR6Ly4pqfXwmaPeBxWen0i7sEu02fzps1hnixmIQyy4+9IMluIq3VBGtd4oghd9Jjw7777bmQHU7gsy9c+IHkmxI0DlJYOu107MsV7Ll8PmXX5Xm9A531Fi0zRQgbKSwciOPjK7yoHjUXSS6gbKj8HGncnIJ5PcBORvFykpSGQr0hcF5goLtG6YIraNUYoQheZCH/ixImAzQR6vl0AoOUnLZy4Kpd0X1dE8iWMmxfxtMTRm0VWrFgRKcYHMPXR7+GL5RKxJYnvy9OVPs99PRaBrD3ZXRQnPCe96c0aDzzwQFj3+Pme+/btcxZVsHrrrbe8cTD/RLQXpuurQNy4LjZt2iRZNIVF6MJLeMh8yy23NJBDKh8Px48fn8nmxEEKm5L42M3xfOL/E1f+NKCgQS/CyqUIszCS3meTYuZIPMrhE02MPD2uL2/fM9k8TTk5flDX05eOMkrduNZElr0HuF9jwui6MVMSPw9Id0Rp6yJxXdBQpRxV0oWX8HHbSirgCrMQApdYV/os913KZuaBaUnJw/fVef7556N4+gsRz5uFGMmPsDd/jmfx4sUN705rmLrsQmSmBm+77bawI5LOBX93yInESc9A+dFHHw1ndpjVos44AsanefW7XNdyhih5VEkXXsJLz5o1dNl3GhRs/qz5xePxxXGJbkhpU5qQQIjs6330ZzktT1e58t6Pe0xS3t9//z1zdow3pI4SMj6ImwyQHlx1Z0F8Brr00mmD2aQCkUbemYZbb+vCS/ikylT13uOPPx6BLLvtXWWVqT+U4ut9aHCiuOeee86VXY/vMx7yNTTJUN4tIQtsPRF2K9ER8OVlKjZN6Plp5MwQ/fvvv2nRnc/5IkiZq6aLtiG8fMYBuru726kM9tiKMtht5BIWmSQeoUx9uuJnvY9pIvnSoFzCGoPEk1AvkrnSVeG+DIwpd9V00RaEj7vc+gZ4eoO5z0RCUUI0xjJaIG2eGRu+JpKnhGJP6/y5TtpLmse8iOdb9v80VLH/qWNWXeBQ5xKti7iJRKfB1z2rtAXh9Tw+Pb1P9EyObw1BT+89/fTTUZbyriR3Xc7ExE3CtdiVRGKXaUNDkEZBmFavqIB9fME4TsqdVmatC3B1idaFXu326cKVV1sQXnv+cXaiT1hVFYX4eh+9GKIJzPI3sxn63Bbepwdq5M9e1STR+cpSelI8XSfyS5sWTMqjL+7pcvdEF3E8ddk1ZvqLOG3atERd6LTx67YgvLaL9SJLvLK61/TZz6RjOg6iMZ0nsmbNmvAeU4Zx0Yte0qCSfmRZ/IYYSLpMFEwfPt2Sz4QJE+Kvq+z/eXShMU6qmOgCPPDRQRhY83+WqXCdZ1sQXohBz+tblQQciZsGlBATz0XAZdWX/F3b4HTe8o4kswfwWUgiDp98GujRo0cjnfzwww+Bdpemd6uTSN27uroy6yKt8xFdkDeCLsAuvhCZBae2IjyOWD7RpHTZzpKeIylQhCiQUNuPEk+HDIgxmSSd68gL8tbL5OQ9YsSIpjNq6mLGaAwEL9yTfaJ1kdb5JOmCY07ySFsQPuu8NgAxqHKZEkkAstqKr43Pxoynw/kJxWPm+IR8Fy1aFDz88MNhrw5JGCBz1F2SOeTLqyrP0AX1ZoCeJszXs06QVTBJ8fTMssDpyrMtCO+qXF/dl1XS+KpmX5XH3vs/Akb4/7Eo7Irz7enh8/q0F1YQy6gJASN8EySt32C6kTlmk+ohYIQvWCfiUttTv5eCi2HZORAwwjuAyXOb3USYMj6X4zz5WpriEDDCF4QlMz/MDbPw0soJDgUVx7JxIGCEdwCT5zak78mUZ553WJrWEDDCt4afpa4ZAkb4minMitsaAkb41vCz1DVDwAhfM4VZcVtDwAjfGn6WumYIGOFrpjArbmsIGOFbw89S1wwBI3zNFGbFbQ0BI3xr+FnqmiFghK+Zwqy4rSHwHzdm3wygy2u2AAAAAElFTkSuQmCC;" vertex="1" parent="1">
          <mxGeometry x="243.44" y="265.99" width="59.56" height="28.2" as="geometry" />
        </mxCell>
        <mxCell id="zl-Cs-IY_Ymrk6EpAjJ--70" value="" style="shape=image;verticalLabelPosition=bottom;labelBackgroundColor=#ffffff;verticalAlign=top;aspect=fixed;imageAspect=0;image=data:image/png,iVBORw0KGgoAAAANSUhEUgAAAMYAAABcCAYAAAA1Zsp4AAAOIklEQVR4Ae1dB6sVOxD2P4mK7dor2MHutSJ2sT1RsXexixXF3vvVa8HeEexiBcUKdrFX2Me3780yJyfJ7il7zu7dGbhkbzabTb7Jl00yk5xKjoggIAikIVApLUYiBAFBwBFiSCMQBDQICDE0oEiUICDEkDYgCGgQEGJoQJEoQUCIIW1AENAgIMTQgCJRgoAQQ9qAIKBBQIihAUWiBAEhhrQBQUCDgBBDA4pECQJCDGkDgoAGASGGBhSJEgSEGNIGBAENAkIMDSgSJQhEihi/f/92zp0752zcuNE5e/as8+3bN6uGHj165Fy6dMmaRm4KAtkgEBlirF+/3qlXr55TuXJl769Zs2bO7NmznfLycufly5cp9QNx2rdv76Y9duxYyj35RxDIFYFIEGPlypUeGTgx1OuGDRs6ffv2dUAYujd48GDfL0uuIMnzyUOg6MTYvn2718ipsWcSvn79OnlakxqHjkBRifHkyROPFAMHDnRu3Ljh9v5o7FeuXHGmTZvm1KpVy0vDCVNSUuKmDx0heUEiESgqMYA45gejR482gv/9+3enrKzMGTJkiNOoUSN3XjFv3jzn48ePxmfkhiCQKwJFJ0auFZDnBYEwEBBihIGq5Bl7BIQYsVehVCAMBIQYYaAqecYegVgQ48KFC07r1q3d1ak/f/7EHnSpQPQRiDwxTp8+nbJc++bNm+ijKiWMPQKRJgZ8p7p3755CjAcPHsQedKlA9BGINDF0riKXL1+OPqpSwtgjEFli3Llzx6lRo0bK1wKW76NHj8YedKlA9BGILDH+GfVPGilAjG3btkUfVSlh7BGIJDHK9pdpSQFirFixIvagSwWij0DkiAHfKNpnwZ0G6XrmzJnRR1VKGHsEIkeMNWvWeF+L3r17e9dEjFGjRsUedKlA9BGIFDGwSw8etCDBuHHjHOzqI0JQ2KdPn+ijKiWMPQKRIsbcuXNdIlStWtW5evWqs3///jRitG3bNvagSwWij0BkiIFNSvRVwD5vCA5GoDgKsS9cRBAIG4HIEGPYsGEuCbCv+/nz5269b926lUYMEOTnz59h4yL5JxyBSBBj9+7dHgE2bdrkqeTx48dePH0xEL569cpLIxeCQBgIFJ0Yb9++dVq2bOkSACd+cIHDICcEXd+7d48nk2tBIO8IFJ0YNOGuUqVK2uEGsGkQGXgIN3SR/CKAw+0OHDjgQB+dOnVyqlev7rRr184ZO3as1g0HB91haR2HWEA32BaA4TDO+6oIUlRiwCGQGjwcBnUCBVEaCg8ePKhLKnFZInDz5k2XDISvLsTpkCQ4wEKXhuIqgj9bUYmBoRPA7Ny5s/Pjxw/CPSVs1apVmhI2bNiQkkb+yR6BXbt2efiix8d879mzZ+4frmvWrOndx2ktnBQzZsxwX/z582f3uCPSJ4bGiIuzFI0Yhw8f9gC39TA4eZB6IgpxfI5I7ghcvHjRw/bQoUPaDHWu/9DDqlWrvPSfPn1yJk2a5OWF+6dOnfLux/GiaMTo0aOHCyS8aG0yfvz4FMABuriF2BALdg9eBtTRLFq0yPjQ+fPnvXSUHkZWkIFE5wm9detWuh3LsCjE4Mdy3r9/3wrckiVL0hRTWlpqfUZu+iOAA+zQ0DG5tgkfOhExdu7c6T3y4cOHNP0gHZba4ywFJ8aXL1/c1Q6AN3/+fF/s0POQQihs0qSJ73MVJQFOXIRXAMb7O3bscLBg8eLFi5yqhxUlwhJHodpk8+bNXlo8g8WQd+/eeY/AGEt5UYjtyHGXghODe8+aJtwcVMw/CHAeJuG0EFrK5vWm665duzqYp2UjCxcudDHF/M1Ppk+fnoK/amvC83weiPsV4aDtghIDn9f69eu7QG/ZssVPJ+599GjUGHiYa68Z6OVFTERexmh0+FIcOXLEwaJDhw4dUvAYOnRoxqXERBn5YpXJTzCf4LivXbtW+wi8EXBId0WRghJj4sSJLsiNGzd2l/fQ6IP8ccXQtd8QIM4KGjNmjIsTtx1QfdAAyahGWJhWlOiZbMNr166lkALvg/9aEqRgxDh+/HgayKTYbMIzZ85USP1gGRR4mAyeqDTcaJo2bZqC5+3bt/OOh7pUC0t4UqQgxPj165fTrVu3FEVmQwb+TFi9ZLEVP3LkSBen2rVrO7ZlVLXRTpkyJe9F79evX4rO8HslSZGCEIN6QTTsIEMnNU2dOnVSFIR8YLGtiKJa+k1DRnwheEeBffL5FFiuq1WrlvKOJLnihE4Mfj7U4sWLs9Ided/yhoBtrxVR1CESlml1giVTjgeu379/r0uaVRws12r+FX3BgwMVOjHIKoqddxgbZyMw6KlKsg0zsnlHVJ7ByhOvq/prtbycPB2u82lUU8uBzilJEiox+PlQtsmkH+BkpeUNIRO3EGyRhYMcdgfi5JF9+/alvBLn4cKQiNUg+kllLGnq3Nu5azZ+H7C0W6k7Uc6W9CkF+f8f/H65WkZdOo4H5nD5FLie8/xtPwdH74XhEHq2YQEXE2CLOVQQXbRp08aBs6LOnR0LOhiFoO751kVoxMCnno7ux9q734/ZE7i6UOcv1bFjR13StDhyaYBi8UfKRjwEcxXYVjCEAXmg2AYNGnjp4L5CQoYsGNfmzJnjpqf8EAerfqFE9WGC4TSoQDeY5NetW9etw/Xr11Meha6oXhQG6dhogcWUFu7t8NbNVhd8WEmGx7B0ERox0HAIVPSyuQhcRygvCnGurZ9gNQxDAFIU9+uBhZbsKnB74AK3a3pP8+bN3Vv4bXEYu6BcLryehRzecW9W9L5BT4GHtwHc/Kl+CEF4Lpjw8/u4po6Ep+PXnKimrcf0dcVz2egCJIDAjhO2LkIhxt27dz1gdS4EHNAg19gHrioK//sJuZPQGj8aj5qPbriEfPlQAuQwrfrwSeqIESP8ipSX+5h38J95XrduXeB80UmoGODLwQWGRTUNhnc2IaKahlwnT5x084TREPL06dO0d+iGS0jLdYFymeY7+dRF3okB1wUap6MSQdwObIDjHjVwVVl+z2FoxB3a1J6QviS6fFq0aOEpzkQKPIfPO5UL7yuETJ061XsnbA2ZCOZmVF4KOaHhtKi6gSCdTeDeQ3mZGjcIg3xJVF1gaGQSrgss3ZvmMPnURV6I8fXrVwebXri9goBCT5KrUxmvMOWLUB3WqMAiDd/UBJ8jet6mCNSH0iHEF9AkNNZFOluepuczjcfuRSobOqCHDx9mlIVKDPhk8U1FEyZMcPNXzw+2vYfKs3fvXmNZkAbDThLutWv6yiCtqosTJ05QFmlhPnWREzHQ6Lt06eIpigDShT179vTG+mk1YhHYAIMxL9JjXK/Li8chLf1x4JEleiW+3Ek+SHjeNmbG8IregXLYhDcg2xfIlkfQe7xcWCDIRvhQCte8wdPeF7j1Y+jE64aVIfU8L95h+dmVVF3gK0UYR1EXORFDHftRRU1hkIZz8uR/Y1FTHn7xpsaClRYs19Lztq/Y8uXLvXT8i6PmDYMX5Ycw6ARYzSfI/2iotMrXq1evII8Y01CDx6S9f//+bodFnRD2W6ARQ1Ry4AuFYRyGjGSIhENokKVltTDkPQzcoqiLnIhBPXXQ0DT+5KBhThI0PzUdvmAm4YTzW+pFY6EGb+vN+HDAL09TuYLGU2OePHly0Ees6dC4qY4UYqFEHaqAHMCVdypIjwk7en3cz1TwDL3TD7di6SInYmQKSDHTz5o1y1MGnW5hKg//iTNbbwZikoKXLVtmyi7neHrP6tWrtXmhh6c/bQJDJHbfocPAlxxL1H6Cd6AzgJvP379//ZIb7+MLQ7hFVReJIQb1uFBIeXm5UWnYg05Kg0OfSWDMo3QIaUnYlD7beNp7odpaeH7Yt40ywDYQB6EJPsocVV0kghj8RAwog0/I1YbED2qwDc2gUOSFP8y1uGDCno8VKtqC6udJDLcJWO/jIDC60vwkE13Y3Oq5LtShGb62GC1kKokgBreD4MthE75yZbPB8GXPBQsWeFnSu3T7RXDmLtxbTEZFLxNmH/E7XI4syHC7iYNgnkkdSia6AK4m4brg3gc2XZjyovhEEIN7iuKAAZvAyk2Ks31ZuNGJN3S4LWD1hp+7hPfxCSfyHzRokLEYdGAExv6mP4zNMVmm+Uc2e7+NBQjxRra6UPHkReS6oBU13B8+fLhWF/xZ03UiiIGhDTV2bsxSQQGolA4NziZYpkRaLHOS7Nmzx41bunQpRXkhNy7SO3AUjircrYHSBQl171TzjsL/2eiCY6yrA+kCONE8CwsE+D+IiUCXZyKIQQ0LPbntTFWASGn9ACXHRozvoQRY4ZG/afsnz5veoRtu8UUCShcktA01dIovVhzVpaSkJLAu/Dop0gXyhkAXwFE1+GZS50QRA5NZm/DGa7NfIA8cFUPDGFI2H9/q3oOJPYZq9JzuKBrKK9OQekrde6MUR/WC27tNuC78OimdLgYMGGDL3vdeIogBPy6/hk5IYXKYidEK1m/4UtnGwJQ3hXCCQwPB8CppAl2g3vRzcrb6w94BO0tQwVAYnsFBDMl+eSaCGH4gFPo+HZGpWpkLXQ55nxkBIYYZm9DukIcs5iYi0URAiFEEvWBJF/YSkegiIMQosG7IVRsHNIhEFwEhRgF1g91xmHTbXNkLWBx5lQUBIYYFnHzewkoX1tZh4MrlxJR8lknyMiMgxDBjk/c7IEcmS8F5L4BkGBgBIUZgqCRhkhAQYiRJ21LXwAgIMQJDJQmThIAQI0nalroGRkCIERgqSZgkBIQYSdK21DUwAkKMwFBJwiQhIMRIkralroEREGIEhkoSJgkBIUaStC11DYyAECMwVJIwSQj8CxdJ+D8rljvXAAAAAElFTkSuQmCC;" vertex="1" parent="1">
          <mxGeometry x="234.21" y="195" width="63.79" height="29.64" as="geometry" />
        </mxCell>
        <mxCell id="zl-Cs-IY_Ymrk6EpAjJ--71" value="" style="shape=image;verticalLabelPosition=bottom;labelBackgroundColor=#ffffff;verticalAlign=top;aspect=fixed;imageAspect=0;image=data:image/png,iVBORw0KGgoAAAANSUhEUgAAAL4AAABTCAYAAAAhrr3BAAANAUlEQVR4Ae1dB6vUShR+/0lUbNdewQ52r4oidrA9sYtdsYsVROy9ey3YO4JdrHDFCjYUe4V5fHmccDKbTLK7yW7KObBMNplMZr7z7WTmnDOz/ygRQSCDCPyTwTZLkwUBJcQXEmQSASF+JtUujRbiCwcyiYAQP5Nql0YL8YUDmURAiJ9JtUujhfjCgUwiIMTPpNql0UJ84UAmERDiZ1Lt0mghvnAgkwiUlfi/f/9WFy5cUJs2bVLnz59X3759MyqhurpaXblyxZhHLgoCQRAoG/E3bNigGjdurGrUqGF/WrdurebNm6eqqqrUq1evHPXHD6NLly5W3hMnTjiuyRdBIF8EykL8NWvW2GTnxNePmzVrpgYOHKjwg6Brw4cP930z5AuC5M8eAiUn/o4dO2wSE5nzSd+8eZM9LUmLQ0egpMR/+vSpTfqhQ4eqW7duWb03yHzt2jU1c+ZMVb9+fTsP/0FUVFRY+UNHQArMJAIlJT4Qxvh83LhxnmB///5dHTx4UI0YMUI1b97cGtcvXLhQffz40fMeuSAI5ItAyYmfbwUlvyAQBQJC/ChQlTJjj4AQP/YqkgpGgYAQPwpUpczYIxBL4l+6dEl16NDBsu78+fMn9iBKBZOHQOyIf/bsWYc58+3bt8lDVWocewRiRXzE7vTp08dB/EePHsUeRKlg8hCIFfHdQhmuXr2aPFSlxrFHIDbEv3fvnqpbt66jt4fn9vjx47EHUSqYPARiQ/x/x/6bQ3oQf/v27clDVWocewRiQfyDBw66kh7EX716dexBlAomD4GyEx+xORRnz4PS6HjOnDnJQ1VqHHsEyk78devW2b19//797WMi/tixY2MPolQweQiUlfhYZYUITJB84sSJCquyiPCUDhgwIHmoSo1jj0BZib9gwQKL6LVq1VLXr19XBw4cyCF+p06dYg+iVDB5CJSN+FiEQr061tlCsPCczlGKdbkigkDYCJSN+CNHjrRIjnW1L168sNp1586dHOLjB/Dz58+w2y3lZRyBshB/z549NsE3b95sq+DJkyf2eerxkb5+/drOIweCQBgIlJz47969U+3atbMIjh0TuCAgjROejh88eMCzybEgUDQCJSc+TWhr1qyZs3gcNn0iO08RpiwSLgLYvOvQoUMK+ujevbuqU6eO6ty5s5owYYJrmAg28oLpGZsEQDcIG8dwFfsdJVFKSnwEnBGhEZDmJlAA5aH08OHDblnlXIEI3L592yI74euWYnc7EmwQ4JaHziUxnqqkxMfQBmD16NFD/fjxg3B1pO3bt88BeePGjY488qVwBHbv3m3jix4b863nz59bHxzXq1fPvo7dLjjpZ8+ebT348+fP1nYwpE8MXXEuSVIy4h89etQG1NRDYOc06kkoxfYiIsUjcPnyZRvbI0eOuBboFhoOPaxdu9bO/+nTJzVt2jS7LFw/c+aMfT0JByUjft++fS2gEIVpksmTJzsABagStmBCLNg1eMmpI1m6dKnnTRcvXrTzUX44EUF2ErdI2m3bttHlRKQlIT7fNvDhw4dGYJYvX54DfGVlpfEeueiPADboApExeTUJH9oQ8Xft2mXf8uHDhxz9IB9M0UmSyIn/5csXy1oAcBYtWuSLDXoOApzSli1b+t6X1gwYemB7xWIEFhnC0q+sLVu22HlxD4wN79+/tx8PZyOVRSmWiyZNIic+j770mtBy0DD+J0B5mrXdFmABmzRpkoWFlwWM42Y6XrJkiVUO5k9+MmvWLAf+uq8F9/N5GK4ncSPfSImP11+TJk0sILdu3eqHuXUdPRInPB2/fPky0P1JzQTyYJiBiTyGdtRupMUSHxNRkBVWGj/BeJ4/e/369a63wJuOTYCTKpESf+rUqRaILVq0sF7XIHWQDweejv1e0UlVAOrNe1BqLz9XLPGDYnPjxg0H6VEXxE+lUSIj/smTJ3NAJKUWkp47dy6N+FttAslhU587d661xhh29XIQHz8wrht4ctMqkRD/169fqnfv3g4QOaCFHHvZndOqmHIQf9CgQQ6d4f8K0iqREB/ODiJ3kKGNnqdhw4b2/VQOPI5ZklITH57X2rVrO3BPc6hI6MTn++MsW7asIK5S9CaRHimWJWZJSk18eF453jhOs0EhdOKTVw8rpxCCXIjoVg0oweRtLOQZcb+n1MSHNYkTH51PmiVU4vP9cYqxRJCXkSsin7AFLGHEZBGru7Bzw/79+x06xH6ccJSNHz/e/stRmPzcwp956C7+n6uyd6VlXiz0R+2oiOFLqYmP0GSOt+nvmqjacIxBzyYsEAIBbBs0aBBIFx07dlQIhnMLd4bBBKMIzB+L1UVoxId3j7b27tq1a1F/yekWr9OtWzfC25iSyx2Kw4eUifMQzBXgW2jVqpX144DimjZtaudDeAUJka9Xr15q/vz5Vn4qD+fglY5K6Nl4XjGdCOoH3YwZM0Y1atTIasPNmzcd1UZsPrWL0iDPJAOGV16EPyPas1BdIFqUhBxrYekiNOKDGAQaesliBKENVBal2FfTT2BNwiuaFMHjSuBhJL8C3PJcYD6k57Rp08a6hP/WhTMHyuPC2xnl8Css4sNbjjBwah9SlM0FxgV+HcfUUfB8/JgHs3ktDaW3I+4rRBcgOQSLX8LWRSjEv3//vg2cm4ubAxbkGOtwdUXgu59QuMPdu3etrBjS6OW4DWeQmb/qQX7s7uYmfBI4evRotyyhnAuL+OgEdAzQ83PBohM9T3V1Nc+Sc0xhyV5DotOnTltlwikGefbsWc4z3IYzyMt1gXp5zTeK0UXRxD927Jg9TkYlg7jFc1DUThCBdWVo2XK+YlzPA6b0nozeBDk3KqXatm1rK8aL9LiPL5TH86KSsIiPuZGOI//B4m9U9TAF5DcJwk+oTC/y4geBckl0XWDo4iVcFzBte80hitFFQcT/+vWrwqIGbq8nINATFBu0xBtE5SLVhx06cMjDF63s3LnTVpAJaLSHPwdvMC+hsSbym8r0uj/o+aiIj53r+KKRKVOmWG3X9y99/PixZ1UJq3379hnzYFhIwqM+vd4SyKvr4tSpU1RETlqMLvIiPkjds2dPB0kIBD3t16+fPdbOqTE7gQUOUDLyY1ytl6N/R176cGBRJHoVLLgggdWG7jeNWTH8oXyoh0k4QUxvEFMZQa6FRXw+1MExJzStfUDYN4Y2vG2wrOj7GfEOyc+vousCbxnCOA66yIv4+tiLGuKVBiHG6dP/jwW9yvA770UiWCpgzqT7TW+hVatW2fn4G0MvGw4dKg9plH9TFBbx0QYiNEyKgwcPtjok6mQQbw+SQnTywxczY8YMyxIEKxjajIBD3Tys4+T2nfZIRRlx0EVexKeeNmjqNf7jwGBOELQ8PR/eQF7Cf1B+plCQgQht6o3469qvTK96BT2PtlKdgnQgfuViPkLlUQpDhD6UAPmBK+80kB8TYvTafpNet3rgHnqmH26l0kVexHdrVFzPIdKRwKbdAbzqyv+CyNQbcTKuXLnSq7hQzvNnhUF8VAqrp9AhoDyYcP0EbwL82BGG8vfvX7/sntfxhoibLlJLfHq9A/CqqipPpWANMCkFW5t4CZxVlA8pmUy98hd7PgriF1unQu+nCXScdJFK4vMdBQA2n/DqyuML4U1DJ/x4iPiY63DBhDhsC09aiA+nIs0P8tHF9OnTOcSOY64LfegE3PC295NUEp/7AdDzm4Rbfkw+CG4PX7x4sV0kPcttvQD2/ET4hZfTzC7E5SAtxMc8jzqMfHQBXL2E64J7z0260MtKJfF5pCH2hjQJvLSkGNObgTtVOJHhVof1g+87g+fxCR3KHzZsmKkaOdfSQvxCdaHjyQHiuiCLFK6PGjXKVRf8XjpOJfEx9CAyc2cNNZpSgEb5QDSTwIyHvDADkuzdu9c6t2LFCjplp9x5Rs/I58+q00L8QnTBMbYBZQekC+CKGCAIJuD4HtQQkEriE9HQE5v2dARIlNcPMAqcQ9gsQIYXGeV7Lc/jZdMz3IZDUBo84CA6fSi/nlZUVFg2eeTjPR3jROwOqQ2oe1BdoH0mIV2gbAh0gWGU7tA0lZFq4mM/GZNwcprs9ygDW2lAIaRIpHx86fYcTJwxlKL7vLbqoHrgh4RYI+R3+2DxN+0mnTTiIyzaJIQBcMWxSdx0MWTIENMtOddSSXzEEfkRmZDA5Csfpwy8t4jlMY1BqWxKEWQFhWL4kzWBLtBu+rsnU/th74efIajgx4/I0iCOUr3MVBJfb2S5v9MWfrqXtNz1yvLzhfgl0D7290ePj7mBSDwQEOKXQA8wecJfIBIfBIT4EeuCQnmxAF4kPggI8SPUBVY3YYhjCnWO8PFStAEBIb4BnGIuwVIE2zIcOFgbIBIvBIT4EeoD5M/HVBphVaRoDQEhvgaIfM0GAkL8bOhZWqkhIMTXAJGv2UBAiJ8NPUsrNQSE+Bog8jUbCPwH2XBf4vyOlcUAAAAASUVORK5CYII=;" vertex="1" parent="1">
          <mxGeometry x="230" y="125" width="64" height="27.96" as="geometry" />
        </mxCell>
        <mxCell id="zl-Cs-IY_Ymrk6EpAjJ--72" value="" style="shape=image;verticalLabelPosition=bottom;labelBackgroundColor=#ffffff;verticalAlign=top;aspect=fixed;imageAspect=0;image=data:image/png,iVBORw0KGgoAAAANSUhEUgAAAKEAAABPCAYAAACDH6VEAAAJO0lEQVR4Ae1dZ4sWMRD2P/lF9Ox6WLCcYAUFEQQ7omdBxAJ29BTxgxUUxIJiQUURBRsWBLFix4qC+MEueEfkWZhlkje7+67vZpNzJ/CSvd1sMvPMs5Nkkt3roiQJAp4R6OK5fWleEFBCQiGBdwSEhN5NIAIICYUD3hEQEno3gQggJBQOeEdASOjdBCKAkFA44B0BIaF3E4gAQkLhgHcEhITeTSACCAmFA94REBJ6N4EIICQUDnhHQEjo3QQigJBQOOAdgVJI+OLFC3XlyhV1/PhxtXv3brV9+/bot3DhQjV16lSF65Kqi4BzEm7evFl17do19ff58+fqWkA0d7+pddiwYakExHVJ1UbAuSe8ffu2oh+6YdMrLl++vNoWEO3de0KO8fv372tIePLkSV5EjiuIgHNPyDE9d+5cDQlBTEnVRqBUEm7btk0joYwHq00+0r5UEs6ZM0cjoYwHyQzVzkslYffu3TUSyniw2uQj7Usj4eXLlzUCYpYs40EyQ7Xz0ki4fv16jYSDBw+uNvKifYxAaSQcP368RkIs2UkSBIBAKSR8+fKlRkB0xfv37xcLCAIRAqWQEBMQc6Xk7t27YgJBoDwSrlmzpoaEgr8gQAiU4glHjRqlkXDy5MnUvuSCgPsxoW29eOPGjQK9IBAj4NwTnjp1SvOCGBteunQpFkAOBAHnJFy2bFkNCX/8+CHICwIxAs5JOHToUI2EkyZNihuXA0EACDgl4du3bzUCoiveunWrIP+PCFy/fj16Jwebg10mhM82bdqkFi9eHLWH94BWrlypsBXvy5cvhTftlITHjh2rIeHNmzcLV+J/r/DRo0dq1apVMZYuSUi737t166aw1Q6RjD59+sRtjxgxQl28eLFQyJ2ScMmSJbHwFKzu6OgoVIH/sTIQAaSbNm2aGj58eA2Grki4dOnSqC1ssTM3l5w/f16TY8aMGYVB75SEgwYN0gSHW5eUjQA9sMgHDhyoZs2apeHogoTo6tHe6NGjFXY82dKePXs0OY4ePWorlvucMxK+evVKExgK7ty5M7eAVbwBL4bhXezv37/H6nNiuiChSTBbG2fOnNFsWtQmFGckPHLkiCYwQLxz504MqhzkQ8A1CdFL8TZsvRYeDl4Gx0UkZyRctGiRJjAGun/+/ClC5krWwY1v81KNgmI6DdsGk9OnT2s2xTChiOSMhAMGDHAicBFKd8Y6XJMQmGAlCx7w6dOnVoj27dun2XTHjh3WcnlPOiHh8+fPNWEBIL5Bkzeh+z58+HD0HZuke588eaIOHDgQDaY/ffqUVEwhZokn+eDBg1GIIa1sYiUeL5RBwiz1FrQuiO2K94Vev36ddUtd152QEIbmoOHYjA/SGATjDFvCoJfXgfABpd+/fytsghgyZIhWBuXNwTJilWPGjKkph5m7i26NZCw651j4kPvhw4cahkXK4ISE8+fP1wTu1auX4uvFb968ia/bSAgigTgYl/DBMGJnt27digKoiJ/hb4QWkE6cOBHXuWLFiujcli1bonOIt6ErwYeXMOvkIQ940s6QfJIQwXL+IBdJQGDvhIQ8wg7wzAEseUooZiZ0wbgH4QAkLBNxA9jqQ7mPHz9q5cjTUj28HbxaQHUWDShvp8hjkhd5GTJjeRWLDYQj2p07d25iDLERXZ2QkAOGY/P9YvJENjCxC7tv377xGqUZm8IyUtL6pdkuyG5LGIBTWYDcGRLJi9yGW9E6ABf8+FfVQEK0/evXr0Kbc0JC88063uU+e/YsJoDt45i9e/fWxnVYQiIDwHOiK09KVA75rl27kopFmyiobFtbW2K5kC6QvMjLIKGpO9okGSZMmFDoh02dkHD16tWxwCZo69ati66ZEwgo/eDBg+jp456TP4lpb+hh/EggZb3TzLuYs2fPmngH+TfpZuJZprCciHAINifyL/I4ISHIhC6VgAORQCxSol4FzHGeLYBKSvMYlo3gVA4TJJIL+YcPH+hSTW4u2vP7Gj3GpCpP4u358ISQ1bRHvXbM0tMJCdEotvtASA4ejseNG1f3E8Q/JZfl3fiMPM1jQi6SCcOGrASDu/glbRJIkodkRu6LhJDNHGqlYZ2ki3neGQnREBbgARg2R2Iygu9X5/k+NXXdAD7Nu6Et7DYhQ6V5zLVr18blOst4EPqRbr5JuGHDBk0WTFYaTU5J2KhwGAAT+GlPHN/BneUxsSmT6rx27VqjIpZ2P8nsgoT4zwoUsUCettEEToXLguNGU7AkRBiAK3vv3r1EXfnCOrxuUuKhGbz70t7eHhcFuGkeNC7o6YBjUXR3jCVVXn+ad8M2/3rL1gtVsCS8ceNGrOzIkSNT9cEgn4A5dOhQYlkOIK2qoDAFyNPuTay0pAukH/K8JMQsFuPrpDRv3rwYP2onqezMmTO1smk9VFId5vlgScjdPieMqQD+5hOgpB0gKMfHjTw009raGgFrbmm3teXrHJEjLwmxxk73Aidb4pEFlE37QgaWYKm+Hj16qMePH9uqzHUuWBLyWB6PG5raYe2XQEmb7fI1aOwA+fnzZ1TV1atXo/tBxJAT6Yg8jyfkDyjutX2imbb2Z9V94cKFGOussnmwDJaEUJJ+aR4K3QGVy/q8CBGbyIpuCkaaMmWK+vbtWx7cnJYFyfiP5CY9keMcHhxEEFCWr0px4fg9OEaIzJYwFMH15ubm6N+/mWXwsPfv3z/GGt1yUSlIEnKvlRWawXUCOmu2i4kJba6AEXv27Bktyr97964oPAupx0Y60jEpTyIhAu78g1ToBZISyEzRAywwzJ49W2EnEsaMhBvat20KSaqznvNBkhCCI6iMf8iYleAlsfG13ndh8URjNg0PislPiAmE+vr1a92iQackElIluL53717Vr18/OmXNsaKErf7otidOnKiampqifZvTp0+PvO79+/et9zVyMlgSNqKU3GtHAOGrsWPH2i96PCsk9Ah+2U23tLREw4+y281qT0iYhdB/cp3+hUfeNesy1BcSloFyAG1gFQQTjBCTkDBEqxQsE2a9mN1iAhNiEhKGaJUCZUIsFGEVzHhDTULCUC1ToFzwhCEnIWHI1qmIbELCihg6ZDWFhCFbpyKyCQkrYuiQ1RQShmydisgmJKyIoUNWU0gYsnUqIpuQsCKGDllNIWHI1qmIbH8BpxFJtAq6omIAAAAASUVORK5CYII=;" vertex="1" parent="1">
          <mxGeometry x="370.46999999999997" y="264.66" width="57.06" height="28" as="geometry" />
        </mxCell>
        <mxCell id="zl-Cs-IY_Ymrk6EpAjJ--73" value="" style="shape=image;verticalLabelPosition=bottom;labelBackgroundColor=#ffffff;verticalAlign=top;aspect=fixed;imageAspect=0;image=data:image/png,iVBORw0KGgoAAAANSUhEUgAAAJkAAABJCAYAAAAuYoSVAAAI7UlEQVR4Ae1d14sVPxT2f/JFBCsKFqwPNvgtFhBWUREVFRHLYkVxRXwQ3YddsWLbRcWGve26YEEFe0dRFOyCSn58Ayec5E5m7txN7h13zoFLZidnkpMv35xJTjKzPZSIIBAYgR6By5fiBQElJBMSBEdASBYcYqlASCYcCI6AkCw4xFKBkEw4EBwBIVlwiKUCIZlwIDgCQrLgEEsFQjLhQHAEhGTBIZYKhGTCgeAICMmCQywVCMmEA8EREJIFh1gqEJIJB4IjICQLDrFUEIxkT548UZcuXVJHjhxRTU1Natu2bdFv4cKFavr06Qr5IsVAIAjJGhsbVc+ePRN/Hz9+LAbC0sowO2NHjBiRSDDkixQHgSCerLOzU9EPj0nbqy1fvrw4CEtLw3gyjuubN29KSNbW1sZV5LibIxDEk3HMTp48WUIyEE+kOAgEJ9nWrVsNksl4rDjkopYGJ9mcOXMMksl4jKAvThqcZL179zZIJuOx4pCLWhqUZBcvXjQIhlmmjMcI+uKkQUm2fv16g2RDhw4tDrLSUo1AUJJNnDjRIBmWlESKh0Awkj19+tQgGB6Vu3btKh7C0uJwwVgM8O1I/+3btwXyAiIQzJOtWbOmhGQFxFearFQ4TzZ27FiDZFOmTBHAC4pAEE8Wt165cePGgkIszQ5CsqNHjxpeDGOzCxcuCNoFRSAIyZYtW1ZCsu/fvxcUYml2EJINHz7cIFldXZ0gXWAEvJPs1atXBsHwqNyyZUuBIe5a069duxa9E4HNnyHl2LFjCis09A5GQ0ODam5u9jLM8U6yw4cPl5Csvb09JD7dsuz79++rVatWaSxDksxe/rPjmyDeixcvKsbZO8mWLFmigSFj//79W7GBRbkQJAKp6uvr1ciRI0swDEWywYMHR3Wh/KtXr6pv376pDx8+qFu3bqlx48YZdlS6YuOdZEOGDDEMw+tvIukI0A2JFB0/a9YsA8cQJNuwYUNUR2tra6yBeG3RJlolqzZeSfb8+XMDGAC2ffv22AbISRMBvHiDToUnIeHE802yT58+6b46fvy4+vz5M1VrpBircTumTp1q5Jfzh1eSHThwwDAIxt28ebMcO0QnBgHeub5JBlLz8pMehTNnzjR07927F2Ot+5RXki1atMgwplevXur379/u2iUnEQFOAt8kA6l4+WPGjHHaYr+svX//fqduXIZXkg0aNMgwHOMKkcoR4CTwTTLbk82dO9dp6Llz54x+nT9/vlM3LsMbyR4/fmwYAoDwDYysgscr7hR8R8MlDx48UHv27FHY3o2ZkEsQs8OYYu/evers2bOJuq4yank+JMnQLngz7FZGiCJpQH/w4EGjb+HZsog3kqEjOSg4tuNjmGniPO6iOEFjeRlLly7Var9+/VJYZB82bJihA31cxwWxOntWBD3MfH17BF6v72OORS3tRj9wW86fP5+pqd5IBhfKDenbt6/i65UvX77U+XEkA1FADNxR3JUjdtTR0aGwVQjxI/yNKDgEU2+qc8WKFdG5zZs3R+cQb2ppaVH4sAtmbTwkAE/4Lwi1DWmtSPbjxw9lf9vk/fv3meDzRrL+/fvrDgco9niMPB2IZAsekbgGU2kIptMc4LjyoPfu3TtDjzwllcPr4QPdWnUYt6ecY45BrWy2dzhXMgTyRjIOCI7t9yvJk8SBhV20AwYM0LEakISXBy/miuNwPRyDzHGCrUak+68EiMlepHG4xbXT97nZs2dr3LIO+MkWbySz30zij8RHjx5pQ+M+ftevXz9jXIW3zAlgeD48al1Cekh37NjhUosW6Ul306ZNTr08ZZC9SGtBMtRJNnTlxvRGstWrV2uDbFDWrVsX5dkDdHTo3bt3o10G3PPxMUBSkBDjNwIh7Z1OepRC/8SJE3niktMWapuNp/MCjxlYx6T6Z8yY0aWSvZEMZMEjjwwDUUAcuhvgkeK8mG29Pc5KmlpjYE/1xRGYysYEhPSQvn37lrJK0tOnTxu6/LquHmPSkkV4fdX0ZFjaorrhILoq3kgGQxCLApnIQEonTJhQFsFQBv/UVJp34jPaJI8Hu8gWPNbTBB0a4oe4XhYhm5FWk2RUr686vZIMAOIugHGLFy+OZpgI3GX5Piw9WtHQJO+EumibCnSTPN7atWs1yf6V8RjaR52N1FeHp5Gc6vRZn3eSpTUiLX/SpEka3CTvxHfgpnm8UaNG6TKvXLmSZkJu8qnDq0Uyqq+t1f0lzMmTJ6fe/DaAuSLZz58/NRnQ4Dt37tj26r/5FhR4TZfw0AXePfjz549Wxd2a5AG1Yo0OqNOrQTK6ETvaO5ytffbsmcKmh507dzp14jJyRbLr169rko0ePTrOXn0Og2jqhH379unz9sHKlSu1Hq0KQIcCwEnX2mVV+29qXyUkwyQL49typO6/ugijQ4cOJarv3r070ss6O88VyeBZCFhOiLiW8wnGw4cP41Sic3zcxsFZsGBBVFeev5dGWGQlGdZ46VrglCQUJD916pT+YjlinPTD8AL7BNE3FAbiMdCksikvVySjRgAgHjcjYynF2iOBmDRbBBikhy8+Yh0Ocvny5eg8iJZnIduRZhmI8xsQ17o+ocrJyOtKO+Zr0uXglyuS8cYleRi+Dpn2+QMiLpERjxF0wrRp09TXr1/LwagqOiAR/5HdHBOcw42BGTh0XR6FX4NjhJBsgYey9cr5O2lzo10H/Z0bknGvkxa6QD4BkjZbxMCfFu/RSX369FHYoPf69WvCIBdpHKmoja7URTIElPkHb+DFbQFJXeUmncfKTlbJDclgOIKm+IdfaQIvh42N0C9H8HjFbBQeEJOLPAoI8+XLl7JNQ5tcJKNCkI8XdAcOHEindHrjxo1oyxQ2h2J/2JkzZ/Q4DNcl/XQhZR7kimRl2ixqGRBAeGf8+PEZrvCvKiTzj2muSsQYKmn/fjWMFZJVA+Ua1UGfuM+6ZurbXCGZb0RzVB482Lx582pukZCs5l0QxgDMHjGrzsP7DEKyMH1c01IRC0QYApH6PIiQLA+9EMAGeLK8iJAsLz3Rje0QknXjzs1L0/4HWjEpzCnw4vkAAAAASUVORK5CYII=;" vertex="1" parent="1">
          <mxGeometry x="363.25" y="197.32" width="53.75" height="25.64" as="geometry" />
        </mxCell>
        <mxCell id="zl-Cs-IY_Ymrk6EpAjJ--74" value="" style="shape=image;verticalLabelPosition=bottom;labelBackgroundColor=#ffffff;verticalAlign=top;aspect=fixed;imageAspect=0;image=data:image/png,iVBORw0KGgoAAAANSUhEUgAAAJ0AAABJCAYAAAAniSTvAAAH6UlEQVR4Ae2d60sWTxTH+596E0FZkZBGWb7o9iIJIYgQiZIKlS7QFcJEfCHmC4PIQiijpBCELuIFI4oItBSxoiB6kZUmJfPju3CWM/vs5bnsjPv85hx42PXZ2Zkz3/k8Z2dmZ9c1SkwUsKzAGsvlSXGigBLoBALrCgh01iWXAgU6YcC6AgKddcmlQIFOGLCugEBnXXIpUKATBqwrINBZl1wKFOiEAesKCHTWJZcCBTphwLoCVqCbmZlRz58/V/fv31c9PT2qq6vL+5w8eVIdPnxY4biYOwoYh+769etq7dq1sZ/v37+7o7jU1PwN/x07dsQCh+NibilgPNJNTk4q+uCyGox6Z8+edUtxqa35SMc1/vz5cw50Dx484Elk3wEFjEc6ruGTJ09yoAOIYm4pYBW6zs5ODTrpz7kFG9XWKnSNjY0adNKfo2Zwa2sVuvXr12vQSX/OLdiottage/bsmQYcRrHSn6NmcGtrDbqrV69q0FVVVbmltNTWV8AadPv379egwy0wMTcVsALd7OysBhwurbdu3XJTcam1nclhDBiCdyJev34t8juqgJVId+nSpRzoHNVbqq2UnUhXW1urQXfo0CER32EFjEe6sPut165dc1hyqbpx6B4+fKhFOfTtnj59Kso7rIBx6M6cOZMD3e/fvx2WXKpuHLrt27dr0B08eFBUd1wBo9B9/PhRAw6X1o6ODsclL776o6Oj3jMlWAxr0/r7+71y0yrTKHT37t3LgW58fDwt353J5927d+rChQu+lrage/TokTp69KhfblqCG4WuubnZd5gmh1dWVtLy/X+bD6ACZEeOHFE7d+7M0dAEdHikAPm2tLSouro6tXnz5pxy0xLcKHTbtm3THMfjhmLJCtAPFNvKykrV0NCg6WgKOl4uYG9tbdXKTfY8vxTGoJubm9McRoW6u7vz88rxVIg6eBb4169fvhIcCFPQoVz0w5eXl71yX758qbWh70yJO8agQ+eTC4X9V69eleiuu6dzLU1AF6Zs2UF36tQpDbp169apv3//htVNvstDAYEuD5G2bt2qQYd+iVjxCgh0Cdp9+PBBAw6C4R0mhRoux3fv3vXegxJ17tTUlLp9+7bCcvhv375FJfP6KpgC6OvrU8PDw7FpIzNZxQOrAR36eLzctKpvpE+HhuXOYj84P4eRLL5HxcIMK4t5HhhJkf3580dh0UB1dbWWBumDK5IxV7hnz56cdBhZ2+obkd+lbLkWtvwuK+hOnDihNfLGjRsVv986Pz/vHw+DDuAAFCz05BXH3NXExITC0igM6fE3ZulhAwMDfp7nzp3zvmtvb/e+w3zXzZs3FV7Ug1Ehn4JApCwHE+gSWmnTpk0+ABAr2J+jSAiwgoZLKs4ZHBz0Dv348UPLKyw/JPz69auWjiIp5cPLwVJ5akRbUYOXX8w++YutLZ/5Dx7lpmVGLq9cIOwHn2+lSBMmHlYZYzYcsMEADc8PUY6OBUXg6bAPuMMMS6sobblMWJO/2IbpFlbPUr8rK+iCT37xS+j79+/9Bg97GWJFRYXWL8NbAEhwREZcmqOM0mF748aNqGTeogNK29bWFpkuSwfIX2wFupCWuXjxog9KUKQrV654x4IdfmTz9u1bbzUDj4z8/XZxT5Ch/0cNk/RMLV16kf7x48chNcjeV1S3oJ4mPS2rSAd4+A1jgAOQ8AuFaIhYYVEuKGCwnxb3BBkGCtQwYUBT3hjQUDpsv3z5QodytkNDQ1pafl6p+xgEFWK8PIl0EcphLgxwcbGwv2/fvryAQ7b81WJJ0YuPmOMiIvwin9ANSDI0sIkP5hULMfIZW4EuRjncsIZAp0+f9kaweP9wIe8XpksxhI6LXnABqzGoYeIi4uXLl/105dKfQ/2obgJdDHBpHDpw4IAvdlz04iuUkyJiTU2Nn+fIyEgablrJQ6CzIPPS0pIPBwR/8+ZNZKm4vUWNgqgaZXyqBM9u/Pv3z0+KiBwXIf2Eq7RD9cNWLq+GGmFsbMwHadeuXbGloFNOjXLnzp3ItOfPn/fT0V0LJKYJ6bhzIzO1dIDqVwx0GLShf1yoldXotdDKhaXHr5mE5oCEpeUDlunp6bAk3ne838enSpqamryysvy+PNKiUOhwj5rOhU6FmHPQ8bk0Pm8XFA33TknUuNEoFxBvBF1cXPSyevHihXc+wMuyUR0LhY7/IHFuIa/c5Zrh3LTMyG2wNJzjIsdFIH4fNel1FQQywYnLDhqlvr5e/fz5Mw23U8kDUZ5/yG+uCb7DDwUjfKQFIGHGz8E+pqyijJeJUX4QWJSJD1b84FFSpC/GMgkd/4UlTZXgOAmbNBrFQIIWI0C8DRs2qGPHjqlPnz4Vo52xc+Ab1SnfbRR0mODmLzBClI+yfMuidPCzGMskdKgIJnHxD+ySDFEQCz2RPh/D5RijXURIDFayaABoYWEhb9dQpyjoKBMc7+3tVVu2bKGvcrZJefATcGenkPT83MxCx52U/XQUwHTS3r1708mshFwEuhLEK7dTd+/e7XUnVttvgW61W8BS+fQvFQq952vCPYHOhKoZzBMDpuPHj2fCM4EuE81g1glMbWDUnpXnQQQ6s+296rljLhJTHHjjQlZMoMtKSxj0o9hJXFMuCXSmlJV8IxUQ6CKlkQOmFBDoTCkr+UYqINBFSiMHTCkg0JlSVvKNVECgi5RGDphSQKAzpazkG6nAf+g3MB5Ik27QAAAAAElFTkSuQmCC;" vertex="1" parent="1">
          <mxGeometry x="351.93" y="124.80000000000001" width="58.07" height="27" as="geometry" />
        </mxCell>
        <mxCell id="zl-Cs-IY_Ymrk6EpAjJ--75" value="" style="rounded=0;whiteSpace=wrap;html=1;fillColor=#1ba1e2;strokeColor=#006EAF;fontColor=#ffffff;" vertex="1" parent="1">
          <mxGeometry x="556" y="155" width="42" height="28" as="geometry" />
        </mxCell>
        <mxCell id="zl-Cs-IY_Ymrk6EpAjJ--76" value="" style="rounded=0;whiteSpace=wrap;html=1;fillColor=#1ba1e2;strokeColor=#006EAF;fontColor=#ffffff;" vertex="1" parent="1">
          <mxGeometry x="556" y="224.64" width="52" height="28" as="geometry" />
        </mxCell>
        <mxCell id="zl-Cs-IY_Ymrk6EpAjJ--77" value="" style="rounded=0;whiteSpace=wrap;html=1;fillColor=#1ba1e2;strokeColor=#006EAF;fontColor=#ffffff;" vertex="1" parent="1">
          <mxGeometry x="556" y="294.5" width="59" height="28" as="geometry" />
        </mxCell>
        <mxCell id="zl-Cs-IY_Ymrk6EpAjJ--78" value="" style="rounded=0;whiteSpace=wrap;html=1;fillColor=#dae8fc;strokeColor=#6c8ebf;" vertex="1" parent="1">
          <mxGeometry x="556" y="224.64" width="37" height="28" as="geometry" />
        </mxCell>
        <mxCell id="zl-Cs-IY_Ymrk6EpAjJ--80" value="" style="shape=image;verticalLabelPosition=bottom;verticalAlign=top;imageAspect=0;aspect=fixed;image=data:image/svg+xml,PHN2ZyB4bWxucz0iaHR0cDovL3d3dy53My5vcmcvMjAwMC9zdmciIHZlcnNpb249IjEiIHZpZXdCb3g9IjAgMCA0OCA0OCIgZW5hYmxlLWJhY2tncm91bmQ9Im5ldyAwIDAgNDggNDgiPiYjeGE7ICAgIDxwb2x5Z29uIGZpbGw9IiM0M0EwNDciIHBvaW50cz0iNDAuNiwxMi4xIDE3LDM1LjcgNy40LDI2LjEgNC42LDI5IDE3LDQxLjMgNDMuNCwxNC45Ii8+JiN4YTs8L3N2Zz4=" vertex="1" parent="1">
          <mxGeometry x="598" y="149" width="34" height="34" as="geometry" />
        </mxCell>
        <mxCell id="zl-Cs-IY_Ymrk6EpAjJ--83" value="" style="shape=image;verticalLabelPosition=bottom;verticalAlign=top;imageAspect=0;aspect=fixed;image=data:image/svg+xml,PHN2ZyB4bWxucz0iaHR0cDovL3d3dy53My5vcmcvMjAwMC9zdmciIHZlcnNpb249IjEiIHZpZXdCb3g9IjAgMCA0OCA0OCIgZW5hYmxlLWJhY2tncm91bmQ9Im5ldyAwIDAgNDggNDgiPiYjeGE7ICAgIDxwb2x5Z29uIGZpbGw9IiM0M0EwNDciIHBvaW50cz0iNDAuNiwxMi4xIDE3LDM1LjcgNy40LDI2LjEgNC42LDI5IDE3LDQxLjMgNDMuNCwxNC45Ii8+JiN4YTs8L3N2Zz4=" vertex="1" parent="1">
          <mxGeometry x="615" y="288.5" width="34" height="34" as="geometry" />
        </mxCell>
        <mxCell id="zl-Cs-IY_Ymrk6EpAjJ--89" value="" style="shape=umlDestroy;whiteSpace=wrap;html=1;strokeWidth=3;fillColor=#f8cecc;strokeColor=#b85450;" vertex="1" parent="1">
          <mxGeometry x="563.63" y="227.5" width="21.75" height="20.18" as="geometry" />
        </mxCell>
        <mxCell id="zl-Cs-IY_Ymrk6EpAjJ--90" value="" style="shape=image;verticalLabelPosition=bottom;labelBackgroundColor=#ffffff;verticalAlign=top;aspect=fixed;imageAspect=0;image=data:image/png,iVBORw0KGgoAAAANSUhEUgAAAM0AAABRCAYAAABxGCJRAAAQJ0lEQVR4Ae2dh68cRQ/A+Z8QvfcueguEDiKhCxJIKIHQe6+i9947SugBAiJAKAGE6L33rv30W31evN7Z3Zm9t3fcw5aets3YHs94xvZ47i2VObgEXAJJElgqqbQXdgm4BDJXGh8ELoFECbjSJArMi7sEXGl8DLgEEiXgSpMoMC/uEnCl8THgEkiUgCtNosC8uEvAlcbHgEsgUQKuNIkC8+IuAVcaHwMugUQJuNIkCsyLuwRcaXwMuAQSJeBKkygwL+4ScKXxMeASSJSAK02iwLy4S8CVxseASyBRAq40iQLz4i4BVxofAy6BRAm40iQKzIu7BFxpfAy4BBIl4EqTKDAv7hJwpfEx4BJIlIArTaLAvLhLYChK88ILL2T8vf7669mXX375r5T6L7/8kr322mvZZ5999q/kz5n690igV6VBUZZeeunov7vvvrsXyfzwww/Z9ttvH83HxRdf3AsfjnRySKBXpWHwpSjN+eef34tUTz755JyPTTbZJIqfa665phc+HOnkkECvSvPxxx/nZhkrzn333ZddccUV2a677loM3GWWWaa4R7nmzp074VK99957SzSsEqPY/N1///0Fr5hqDi6BOgn0qjQhokceeWQ+iNdbb73MzvwHHHBAqErnd5hlW221VU4vtOrdeeednXFP5oovv/xy0TeHHnpo9v3330/m5ia3behKI4N4zpw52R577FFaBbbZZpvkBjRVwNxjZZk6dWqFFu/ffPPNpur/yW8///xztv7665f6BUvB4R8JDFVp/vjjj6IzHnrooWzWrFnFM4MYc22iYMmSJdkKK6yQ4//www9LdKC1wQYbTBSpSYUHMxr56D9XmnIXD1VpCOlKZ2A6nXnmmcWzvH///ffLHHZ8mjFjRo77+uuvz/0pwS/Xo446qiPmyV3trLPOKvXJ5ptvPrkb3KF1Q1Waa6+9Nu+QzTbbLGf1uuuuK3UQA/rxxx/v0IxylVtuuSXHu9122+Ufjj/++AqdvsLbZU7G72mfffYpyeroo48ev0b0zPFQlWb//ffPO4RBDDzyyCOlDkJprrrqqoGazEolNvl3332X48JXkhVGrh999NFAdCZj5Q8++KAip5tuumkyNnWgNg1NaXAwxceYN29ezjRRGhnEcj3xxBMHahBmF7gEz9dff12hwUanQ1UCd911V0VWHiypymloSoPZJYrx66+/5px88sknxTv5duCBB1a5jHwjTqy2wx977LEKjdNPPz0S43+r2AknnFCS1ZprrvnfEkBka4emNGeccUbeIXqW/+uvv7LVV1+91FH6e2Qb8mKsKFtuuWWO64knniiqCl1RSq6PPvpo8d1v/pGA3nhGTgRTHKoSGJrS7LbbbvmAZhBrwFnXA3qNNdbQn6PvTz311BzPMcccU6rDHo3Gz/23335bKjNRD7///nueVTBR+GLx4J8RmRwkk+HTTz/NVl111ZKsbr311lgWksoxWeI/vfLKKxl02YpIBcxGIrAx8Ntvv01ovwxFaVgFlltuubxDnnzyyVI7McfsoMb/SQFwgmOjjTYqVfvpp58quLfYYotSmUEfyNwmdL7XXnsVtFZZZZWMnXT2ovoAduhvuOGGPCXJrtRMQmQ/1GWTk9okqUP6eskllxT8S38QOdNl5L5Lm1566aXs2GOPzQjKyFgQOgRuwF3Hs6b39NNPZ0RfpS4b5NS1gEJhhuvVk7058hAHmVygMxSl0f4Ms4yGk046qRCACOKdd97RRRrvwSeCsWkxCxYsqOC2K1Ej8oaPKIsNZS+//PK58qy11loF3ZtvvjnHwkYug4PUIQmENKCv/XTbbbdlG264YYEfmeHDbbrppqV30HrqqacqeMj/Ezl3uaZuCjPIDzvssApNBv4OO+yQrb322sW3KVOmZBLxrDCeZflqITzrSYp3++23X756UY+NbRkTfENJkZGuy+TRFYaiNJLOQkMsXHnllUVjpFEIOhZkhpw9e3alitAVvFyJEA0KNlTOIGZiwAwQYPYTuvqed3R4FyAiKDi5ogCff/55gerdd9/NbrzxxnwA8Z0B/tZbbxXfubGblxpfzD17a7Fw3HHHlfhl4kB2mmdwsQEttOv8KH3MRFbwRYsWFfWozyTGhEReI8/kOfL8559/5izj6x500EH5N+smxLaJckNRmmnTpuWMXnjhhRXeHnzwwVLDaWzs3gAzykorrZSts846GQPGgs1tA/d7771niyU9W4VhdqwDu1EIff4w51LBbgTX1ecQHaah0HrggQfqipbea5OHuqxoXQGf0Z5fwqJoAoncsS2Bb2hh5oyZeZvIWRT45ptvinZKe+V69tlnS7GMVQVTU75xrVPOolLDTe9Kg18hDmYoh8nOFjQoNiQsuWshJQv5M5hNg4BVGIIWEj4P4cU323bbbUudRfusXxeqq9/9+OOP+aohnd6UNXHwwQeX6IXsfY2b+xdffLFUBzoEFroAvovwKdeY9uqVxI4TnX6l216nNLJ5LvxfdtllFZ5ClomUb7v2rjTPPfdcwfDff/9d4YfoiQhXriyhbcASTflDDjkkWDTkzzCgugLRHutLxPgmIZ8tNVokgQ6RT53D/NVXX1VkiaK3gR1Ug4T9hUe5xq5YOg/RRjdllWUC0qAVTegxkVqwqx5lB8k86V1ppEMIOdeBNFiuW2+9dV3R/D2zO2YRUSpMtBBYPwLc2PtdQVY14THWL7FmQWw9zSemhtDlWufEoky6HPdELttg3333LdXrmm8m/oLwgHMeC+Ko641pqStOv101Q32M5WJB6gtfXPWKZcu3PfeuNCLIc889t5YXmxu24oor1pblgzj/l19+eW256dOnlwYCgkqJymnEKJsWOPc2UqfL6/t11123VLdJDrqevidMrunbwaPLYtoySDiyHZMxrs1noXH77bdrlFH32pkXPDGTFJaG9v1CR94lGrl48eISL1YZwBMCViQUGL4IRoWiiqF6de96VRqiFjjpMNvEqHZcReB1pwXF+cfJrwMGguS5CT7JrK6rU/cef4L9H8Ej1y+++KKuSvH+jTfeqNTrMsPpsKzQZ6LheDjKGwqCFEy03ITMWNKbUoDVzJ7Chc8mYCAzgWifj30cC4T2mSRCE4XIQq5EBocBvSqNdgqbNixDy+yrr74abL+YSU1h6dBA6Lo/I8cMpGO47rnnnkHe7EsCFLoe9zivqbD77rtX8Fi8u+yyS6eIl5U9qUipEFqJ4Q/cmJb4dSTSErFiNbCr78Ybb5xvOqbQDfkzTWMiBXdb2V6VRs7PtDmWNiqFwEm+tMAZGL6dcsop9lPp2Q4E6vADG10gNGBDJkQItyg49PljA7IL4EwLjrYrZgjRsFiw/gzpSKkgpk8bb/o7vgv7KPR9KMTcxoPt466WRBud0PdelYbIFoJqi9Hja2iBcn/RRReV+MX5xQRAOESJmsAOBPClmhzg15E/zV/sjGajbYP82k7IhNU82Xt4bwNSTVZeeeWS7GXjsK2u/m5p84xvxcC+9NJL8303JkE2F7EgMHkHBevPHHHEEYOijK7fm9JgjpFajgBDq4bl0Ar+8MMPLxWRKFTbjj6+kOwLCc5Yc6pEMMuykGkGziZTU3CEQukx4V+pH7oyCOWAnbSt7srk0hbatqFscKUezgvtlRDV7Btsu8mOGBb0pjS6Q/hhizYg5UMLYueddy6qiFkWisEXhf5/8/DDD5fwgPOCCy6wxaKe9d6B8MYMFwP8jprUkSsBikEBhV24cGFG+tHMmTMrK4XQ4oriNoFNM+qy+RuyEmJl1MRb07eQPxOzsjbhTPnWm9LI3gKRnxjQCXZ0uHSgmGWrrbZaJY8qhJcIjB443HcVqJiXGh+zfQzYZM5Q3l0MnrYyyIeNOhuWhmdS75uAiUm3jePoqRAawIOkqMTQp72ab+4nYkKKoU2Z3pSGaA6NqduxtwyGbHbK4AeAJ3YHl0iMFWibmWJ5kecQTwySGLB7T1bZOA/CjGzfC26CKAQhmHTafELqhAZv3SYo5UPZA3W8UB7TEn6feeYZYTG/4p9Yeds0llKFCXhghdU02wJNE0CyhKIXpdE/0CCp8SWqgQccRy0I7iWqtvfeewdqVF+R0WtxDGIqMIgsvirV6puQyWL9GcEdyoGSb5p2jLLqKFbbYb6QGdtEY8cdd8xlEVIse5AwNrpYlVzcG7tvFpurGIe9vVQvSqN/oCFmVxo2Q3saO03dKe+o559/vr0lWZbvU+iBxn2XEKoQE6XVOOVb0zU06G02gmzqhZJN7SoF/bYACPxopWlKW6KsrOAxbZOQN4oYCoKQeazxcNCrC4i8m37Mg41UTYt7MuWHCb0ojXTIsssuG92WZ599tiIMBHLeeedF47B+BPVj011CREIrRlu4WzIWbMdq/GQFyHf7/3BCNCnblnX89ttvFzgp33YkgBVYeOBatyIzSGUlIX0pBMhY4yKNPxVEYcATWs0EH7/voGlxHzsxC45BrxOuNFqAzJh2hq1jmMFjhcH5/qbUe4tLTAiNp2nWsvVDz4SrNb4m55q2hlYJ+NIgMzP5cRY4uajpcR+zB0FKitSLccQxC6U817ozPqJc7H01gfymHbgIi9dlYodwaIXBj2wCa8Zz+nPYMCFKgy9BiDVkljCIMEGwl0NLu26wzRfj55dioS6Vg99WGwRwfPXgqju5SDlRGBloUk+ntLMSyXtkFgKJJGIOxfwSqD3CHNNm21ehjVf5URL2vdqAMLi0i2vTaiG49ElK6sT8VLBN8x9WvpnwzHUgpbEhSy20uvsmYepz7k0RGL7ZH5Sooxd6rwUQc687CoVgViYrgOPNTBhXX311MWBkT0iHgNnkZYViI1BSa5rkwKAnxA7vtBNFJfmTY8JEArkyCd1xxx15Koq0kdSUJmdetxWThmxyqTt92vT83ztyloWcQZkAiODFgg0FE/4nA0An37IC0XY9dpBPzC/fMOkKv3KNzc6IbUNMuYGURhhPuTYNFpmh6bC6jTkGTAo9WxYaXUCOOFh88owJpjuQ/C+7ckpZrm0wf/78YuDqenX3TCR1MqujxfGBOny87zKLz583P99ja8Ir31Dyc845J/pfnjAhSF2urISjgIGUBgVI/WtqJCchCVG3+UH4Tal0pXzTEYUm3viGOUFkCMUjVYQV6LTTTsvuueeeYD4VJhs795wYlZWxzWbXPPBTQxziw1xjgElaEsctcM5RZNpFVndXoC4hYvk9BWjhN+BndAWCFsgF/pgAWdHIbGbvjpUW/yt2RdQ8kFkiG860n+DRKGAgpRkFw07TJTBqCbjSjLoHnP7YScCVZuy6zBketQRcaUbdA05/7CTgSjN2XeYMj1oCrjSj7gGnP3YScKUZuy5zhkctAVeaUfeA0x87CbjSjF2XOcOjloArzah7wOmPnQRcacauy5zhUUvAlWbUPeD0x04CrjRj12XO8Kgl4Eoz6h5w+mMnAVeasesyZ3jUEnClGXUPOP2xk4Arzdh1mTM8agm40oy6B5z+2EnAlWbsuswZHrUE/geQ0at0ZPEIsAAAAABJRU5ErkJggg==;" vertex="1" parent="1">
          <mxGeometry x="101.27" y="265.83" width="70.47" height="27.84" as="geometry" />
        </mxCell>
        <mxCell id="zl-Cs-IY_Ymrk6EpAjJ--91" value="" style="shape=image;verticalLabelPosition=bottom;labelBackgroundColor=#ffffff;verticalAlign=top;aspect=fixed;imageAspect=0;image=data:image/png,iVBORw0KGgoAAAANSUhEUgAAAPUAAABNCAYAAAB+KCJ9AAASq0lEQVR4Ae2dhc8kNw+Hv/+pKjMzM1y5VZmv3KrMTFKZGdRW5faujCqjyqxyqzJ3Pj0reeT1ZmY8s5nbvfds6VVmdxPH+SVO7MSZ939FUCAQCMwoBP43o1oTjQkEAoEilDoGQSAwwxAIpZ5hHRrNCQRCqWMMBAIzDIFQ6hnWodGcQCCUOsZAIDDDEAilnmEdGs0JBEKpYwwEAjMMgVDqGdah0ZxAIJQ6xkAgMMMQCKWeYR0azQkEQqljDAQCMwyBUOoZ1qHRnEAglDrGQCAwwxAIpZ5hHRrNCQRCqWMM9ILAN998Uzz//PPl3xNPPFHceeedxZVXXlkcddRRxdVXX91LvdPK9Ndffy2xEFzuv//+4vrrry9OP/304vjjj88mejalfvPNN4uFFlponv99/PHH2cAIRnkQePDBBxvHAYq9oNBPP/1UbL755rWYrL322tngyKbUzDSTUGpmPS8x8YiczI5fffWVt+jU5XvssceKfffdt1httdWKCy+8cKrkQ56msXD33XdPlcx9CsMYbcIj5ySXTanpSP7OPffc4pBDDil23nnnyobwG42QMlUpCrj99tsXK664YiWvzz//3NUfn3zyyQiPyy+/3FV22jLdc889I23BtJ0Wev/99wemJjKdeeaZxVJLLTUi73fffTct4s4TOVBsXBDG+rrrrjuCR87+y6bUKWS22mqrEeG7+g5z584tjjzyyBF+qXpT35111lkjZffff/9U1qn/brvttpuv2mIn+M0222zqMe5TwNTK7V2cPHL1ptQImTI5br/9do9clXm22Wabku8GG2xQmc/+gGVg5WHWnB8J/2t+act///03Iiuuz4JMWC+6/3L60+Dam1JjTmjB5RnTbBx65JFHSr74lF566aWXynLIcvTRR3uLTl2+a665pmzLYostNnU+tQbsueeeK2WVMTBnzhydZYF71gsTmOT0pwGzN6VOrYzLLbfc2B344YcfloPk7LPPbsUPswdTkHR+JyZNMM5ptvWByQUXXFD2lyj1tMvcBw7C8+effx7BI6c/TT29KfX6668/InwOH5bzPhkc1157rWAV6ZQisMMOO5T9Rb9tuummUyrpvBGLzTIZv5LmnuR6Ueoff/xxRHAakEsJBYx777133vRE1NIJgb///ntkHHTdKO0kwBQWOv/884cwye1P0+RelPrpp58eElyU8O23384Cs/B75plnsvALJv0gkBoHC/pEbE8CcvvT9GQvSn3JJZeMKPWyyy7rGjms8k0+ryg1/nXQ9CJAzIL0FenCCy9c4D4tqPTvv/8OMNCY5PanwbYXpWZXWgvOs3enWjbYqkx1fVT2559/LqjjY75o97bbbjs0Dnbdddf5Qu6+hExZLrn9aWTvRamXXnrpoc5EqQnkbyKUdJ111hmUfeutt5LZifWGn8dsYdV/7bXXiu+//z7Jy/vlRx99VLz77rsFO5de+uWXXwrCUn///Xdvkdp8hLRiwfQ9kf3222/FG2+8UXz22We18jT9+Mcff4yMgauuuipZjD4d96gzybjiS6ILwZJ6c1sOjDXG7pdffjlS+7zwp6k0u1K/+uqrI52JEvJ9E3FrhbyLL754U9ba31EAAhzgJX+sGrfeemttOfvjo48+OghTFR6kbPRUDcCnnnpqcGZs/aYttthi8D03l9rSK6+8Uhx00EFlO8AGq4fY71yEEnM8SKSXbitHkESvdYnTTu3yyh7IP//8U1x00UXF3nvvXay88splnSwG1Ne2n5pwYILiaI1+WHLJJcv6pK30KRNwV3rnnXcKIhZ1W+DNebQOcMJSkTpJPQtTF5myK/XFF188JDjCr7feeo2ysQLJ8QdK0ZXsjRirYCeeeKKLNTM5CoT8XJrQnbHJJpuMKPZ55503lGettdYqbJgsfJ588klX/WRCBql3iSWWGImnJwhlXNITBnWhWGBmrS3i+dtQKiyXeO/HH398oLjSLlLqW3755cu28h3YjbuKsjF76qmnFssss8wQb5SPSX6VVVYZ+v7ZZ59t08RB3ksvvXSIB7JzI4sJUdp4wAEHFFh7Vo4+/GmEyq7UO+64Y9kYadQRRxzRCNYZZ5xRlgOorjR79uwBHwar+CuAKrKQ4tvU0XvvvVe6ATLTvvzyy0M8UGzo9ddfL2QG3m233Yrbbrut+OCDD0r27A3ouhlIVa5FWagoBrIzGVKWCQOzGLJt6TIQpR7aILIxoWIVaOLzOeecU+ZpE+wza9asspzUofuYOH4sIWkXfSX7KZJ/nJXshhtuGKofRSNE2VpZ1113XZkPvL0TCXz22WefsiwyIy+mvZBYnvy28cYbD+XlOxmfkj9XmlWpWW2lQ3R6yy23JOWlUffdd9/ARNH58YO7EIMOPii0Jvle6rjsssv0zyPPkn/33Xcvf/vhhx9G2sY+gaxoVRt7MLArNoO7ifbcc89BfYcffvhQ1lNOOWVIjrvuumvod+8HrdB1sdjcjRb5V1ppJRd7FEOwtukKK6xQ1I0Hm7/LwMec1nx22WWX2r0IvUuPddREKLTGj7q4cJQixoiWRZ77OJ+W+rMqNX6eCN01RUm6EEAvuuiig/qtf4TpqOWpM+9ZOeTCBKuwJs1DPzf5t3aQNZmyKCr8WdX1zI8somBSv1gSWs6mZ8pIeczEqo1EXAXJJ6ln0LMCS36dsgnaFKtgryXim3uJftf18Yzv7iEp14RnSqGb9gBkPEkdpMccc4xHrE55siq13ZzSjfA+s3nShWR1RYEsWVOwzrzHz0HWrbfeeohN1epz2GGHDeVLfbCra92kQnlWFmTAhNTEgLI4vvDCCzqL61mb8HWhu/Y2EXV7NvtS44AV2pr3KWHtZl2TkgkPNsMsNpj4HpI+p3ydjH/99Vex5ZZbDtXjOarVk6jI2GcQTlalRhFEaElpUNUfg1vySYop1JbYHGNV48aSXUlSu7DcHKqivfbaayCTVXy9aSWy4od6SExpKYffX0UiLxtt9vjKDg6sGo6O2tKqq65a4l53W83WV5dXy2AH/iKLLDLYINN5qp7ZEBScSHkhhIfsXg6bYV988YWnaHHooYcO6mQjs444ktOy8ezZ0xDLS5f99ttv66oa67dsSp2K86URmGJ1hHm5xx57lGB1mcEefvjhQfmddtpppKrjjjuu5I08dHbdZogAbycHO8AxW5tMSRFGNryE97HHHis/jaQnnHDCQF4sD0v2PVddrJpPP/10CA98QyyAKsJMZI8C39pDqXGApeIhjiIFI0k9+yscuUl+Sdl99xCnIVKGc+QqQrbVV1+9zEuZun7UfMgndZCCeZ+UTalTKxkzdOoQ3jZITGcaTJBHW2LAMfBQPE34ivZVSE2dDY/Uuay1Ktr4RLpDeU4prMhN/fzZSSXl37K72pY4U7XycNTCxEq9nLVbC6FNHfaUgLq8cqbGEAFETcSGpm1TXRkmY95mqi2oJgVNHdF5J7qNNtpoSD7vJFfXhrrfsil16ryOQAIPnXTSSYNGe86zPfwkDxsYtrMZ1G2JHVjLx/sGl9TmoXcwaDmtf8s+QRdKRXrZtuHKcDzTZpNKZNEvcBC+3h1sGQdSbsMNNxS2lWlqkqI8ExRHgSeffPKgLbg8KP+aa6451Je4IuSpI44gce1ELkm//vrrumKD3zibl/ySYln2SdmUWnxREZyUg38PSax47hnMzuB1vmydnHfcccdIx9SZrJqX3fnmJXxdyJreV1xxRRc2gzKCt+6rqucbb7yxVT32pKHN+8jsLjFK2UTIVyV71fdrrLFGwXhlYmY/polsrAF8vQsWb3mxcnjqbJKp7vdsSs0tLCt8yoxNCSMvVGgTbZXio78j9NHK08VfhyfBM5pXG5/IRqPZc2ctc9UzfqWuH7dmnPedYz1YuTR/+9y0W6/ltorpdVNSprd1QXQ98mzdImTHymCl5rYgSs84pM3g6DHnhbekqUmw7mxfypHakwAm574pi1JjntiBwGfv1Ug6hlU652tj6VQtE4Otq69oFcA7UFN+cBfTW0di0aaDDz547HHB3oVdVTVe9hk8myhlanpDIe1lBzalPGSDQJDbxil4+NTlsVjwmXfleUhCn4WHdzLw8K7Kk0WpU1Ez7A5PkuzL3fBJuxCbKtIhknr9aSYqKUNK8EVbYmWxk8oDDzzQlk1lfiZeVjJcJXuer2WvO88W5nIKoct5/WnbX94QUaLcdH085yTO5S1/Pkt4a11d5JH7A8Kjb38aebIotfVdaYBnENQBMs5v1lxFnrqggrq6CGmUDpHU609bU5SNoLZ00003DdWPq8Itp76IzTEUStoqqWeStqYm7fdQqr+8E5fIJ2mb10Z7ZEtFqXn9aU4SRC5J+/anadPYSo3JxRstRGhJ62KhPWCOk8femCJCyxLmJGZ/kzlMwIW0idTrT3MbSZfj2cYH4zPyX0LqTDK5LCK8uGBhicmCSbRqssENwGrgdAH5Paa0dV88u+12M88brGLrSk1ctIH+srLbGABPhJfFr+5zylLjGqeH7BuAUmOHNjUds3rq0nnGVmqUQgacTr2BGVqYXM8chWhZbLgl9Yip2WQOWZ/N60+TT8uAmWiDXsRXrgoiIfZc8+CZVU0TN8okT2rPIGW+k7+J7DFeajLRPFiBRA5JvdFg1vRO1UUcAnytUuuzZn6viwHQ8qaeUyZ16iKPZwMP/vvtt98QJjaEWe+5pOTp+t3YSm1NLoD1middha4rlzqbtvHK8g8BOI+tM4d4a4kMUEm9/rS9MG93vYlQklWm6pTAHocx+C3JBhPXAFM0d87ckTbQFu731pFV6oceeqgue5Hypz079CnT27pKWCDIzK6/3XzVEWHkISKvC1EHx1wpyw3XQ/qf1KvUdi/E9rPEHthbhV3k12XGVmoUWDeY56arjVqA3M+2k1PmmOz6Ns3qdJ5tW5WJq9uRKmdXLf4vMbyxKqp8ZGsl2P/pTCCJ3GpKDUZkSm1i8k8Hm0j78in3xZa3k3vK1LRl+GxN79QtPcmTupfPJKv7iNWxLdGngjXmsLWorFth+zJVn1gWWja7aSh8m255pfjXfTeWUqdidWmEdyarE6zrb3SKBtKa3gTg8zvXNJsUVFZB4efxK5HbKjUBJ/Z8lDh1+NZdDZR6JbXRcBK9VWcZ2Yg23jDSFI9PeK1MFtTtiSyTASqyWlOzqj9tf/FZEyu5RHOxT5EiHfjUJiYfXsQzaIW2ikceu1A0LVophQYXTWKhsJpbS1Ln6/I8llLrmG3pTFJmVo/p1UXgpjIArmXBbxFiBpYOrAvel/zidws/TxnK2snOTgasuPBs8s+tv6hvZL344otlO+tiq/WRDLeM6twNZOf8Wt94apKRMil/uspyEGwlPe2008p2gIk9ehS/tG4z0f6/Ls/JCzvTXJuVvuWaZsqnRk72KvSriLjTXkWi0E1vOsEdo267R1DFt833bqXGZBMAuqa5fYdUQ+1rWDE/IS4aSGSQ52iJCcC2s40FInXBg6MdVgQUTIccpja2dJvE7BQ5pH6UmKMbvr/55pt1keSz5sNxFXywUuTlCPjXrN5gpS/AWAVLMi+KwUouMkpaldd+b60aCeXFKhEFwQpomoysm0FZjqOshYRfq49g697EomUFc2kbKZOAnGYwwXL3QW4bcl+d23Aiv5QTMxvzne/oQzbicpNLqS3wImTbtI9ZKQWINZe0nJ6XGsAz1WZRglSd9jvMXns3WMvhjXraetboHXXhw3GYl+z1P+GRSlFs3rXmJatQHp9d89aTjpWHIz3PTT/4sSmoJyXLS3/G7OX0oc0pDcprX5CoefJsx7hVbJ3fa81orDzPLqWGEcJ6/vARU/n4Ptc7sD0NY1ZkcNHJ/PEsM6WnPHnoEHw0VoouHcC/z8WUlSAUTH+vrykysrqDp7zelssIWAFMGm2J/QTK0h7CMJl02JjCf8Yvx9QmVrrNQEcGrBr4wgs+TXsVKbkJJ8WsFaWBDyZ32zGDRYRJjzzgTRs55WByPHD2gQNFHudf6bKycq7Mas8JB5MDLgIrddULLRl3bPLx4guUmn0DFo2+yK3UfQkQfAOBQCAvAqHUefEMboHAxBEIpZ54F4QAgUBeBEKp8+IZ3AKBiSMQSj3xLggBAoG8CIRS58UzuAUCE0cglHriXRACBAJ5EQilzotncAsEJo5AKPXEuyAECATyIhBKnRfP4BYITByBUOqJd0EIEAjkRSCUOi+ewS0QmDgCodQT74IQIBDIi0AodV48g1sgMHEEQqkn3gUhQCCQF4FQ6rx4BrdAYOIIhFJPvAtCgEAgLwKh1HnxDG6BwMQRCKWeeBeEAIFAXgRCqfPiGdwCgYkjEEo98S4IAQKBvAiEUufFM7gFAhNHIJR64l0QAgQCeRH4PyN19Cp7dVCZAAAAAElFTkSuQmCC;" vertex="1" parent="1">
          <mxGeometry x="540.34" y="185" width="75.89" height="23.85" as="geometry" />
        </mxCell>
        <mxCell id="zl-Cs-IY_Ymrk6EpAjJ--92" value="" style="shape=image;verticalLabelPosition=bottom;labelBackgroundColor=#ffffff;verticalAlign=top;aspect=fixed;imageAspect=0;image=data:image/png,iVBORw0KGgoAAAANSUhEUgAAANcAAABGCAYAAABfRwFTAAAQlElEQVR4Ae2dh8/dRAzA+Z8QICibsveeLXu0iE3LRuy9lwRiI/Zs2btlSuy995DYe4N06BfJT45zSfxeklK+2tKny0vufD7HvrN9vnxLpYDgQHBgEA4sNQjWQBocCA6kUK4QguDAQBwI5RqIsYE2OBDKFTIQHBiIA6FcAzE20AYHQrlCBoIDA3EglGsgxgba4EAoV8hAcGAgDoRyDcTYQBscCOUKGQgODMSBUK6BGBtogwOhXCEDwYGBOBDKNRBjA21wIJQrZCA4MBAHQrkGYmygDQ4sdsr10UcfpYcffjhdfPHF6cEHH0zvv/+++y1R/9Zbb3XXj4rBgSE58J8r16OPPppOPvnktNtuu6XVVlstLb300pW/VVZZJe28887pgQceqOUFikXbrbbaKlsHpb3mmmvS6aefng477LC0xx57jP6mT5+eNtxww/Tyyy9n28bNqcmBJ598spjETznllHTIIYeM5AHZ2HbbbWtlycuN/0S5/v7773THHXcUCpVTpqZ7Rx99dPrggw8q45M2J554YuUZN2CY1Kkrf/3112zbuDn1OPD222+nVVddtVEm5syZ02ngi1S5vvnmm3TVVVcVM4IV8C222CKdc8456bnnnitMwe+++64Y2Ouvv55uuummdOyxx6Zll122YMbqq69emIxUkBVL8NWZhfK8rmSmClhyOICc1cmC3EdWu8AiUy6W4E022aQ0IMxAfKtXX33VNYbHH388rbnmmiMcDz300OhaGMKM1AQw1Sokbc8888ymZvFsinLgl19+Scjm3nvvXZGlt956q9OoF4ly3XDDDRXC8bPwg8YFVjJWOVEmXeI7eeDzzz+vtMf3C1hyOTB//vySTEybNq0zMwZXrrlz5paIRhmuvfbaToTfeOONFZzgPfzww1148fe0UnL9008/udpGpanJAXx1LROzZ8/uPNDBlIsVRhMr119//XVnogk8WBMT/Nddd50LN9FCoYcy/C0X26Z0JStPuCtdYRDl+uKLL0rCK4KMwvUFl156aaWPV155xYXehvzD33KxbcpWyrkJTz31VOfxDqJca6yxRkXwL7/88s7EagTsSYnSUm666ab6ce31u+++W2pH2/C3atm1RDyw/hYyQaCjK/SuXLn9pD333LMrnZX2BEO0ch1//PGVOrkbN998c6kdOMLfynFqybl36qmnlmSiLhFhXI70qlyWSBH+tvD4uERT//vvvy8xxLv6HHHEEaV24W9Nwv2p1WbHHXcsycRxxx3XywB7Uy42b0WZdNk1Mtg0St1PUz39bP311y/RGf6W5s6Sd83Er+WI67vuuqsXRvSiXN9++21ad911K0SyvP7zzz+9EJpDIkwh79ADOcfVu+J58Eed/x8HyDcVOZLyyy+/7GUgvSgXwQohTJdXX311L0TWIZG+SLz0QM5x7cvfYnuAKCkBE0nh+vHHHz1kuev8+eefRWrYJJvvdZ0w4UCvpJvV1ZP7TKRvvPGG/Oxc/v777wXfyIaAjk8//TQxzj6Bsb355pvZnNR99tmnJLubbbZZb113Vq66PSdWMvyioUCvQvfcc4+rm2OOOabEyD78LTL17QsSpaecPWt2mj9vvou+XCXGiS+LFaDxrrTSSmmXXXZJenuDPUQE1AtkgmucG2+8cZHfadu/9NJLCT9E07DyyisXmeS2rvf3I488knbddddS/5oWkma97zXXJ22PPPLIykkL8lLBzcRHRFD3yTWZQ31BZ+XCp7IE8vu0007ri8ZaPAjSxx9/XPvcPuBYiaa1i791++23F8Kt8XFN7iNmqjWTJ9mUxGRZe+21RzSzxcGEwOwq/a6zzjrpiSeeKLJe5B4OehtwuoD6pIzZCC/tv/rqqwLF9ddfn1ZYYYVR3e233744niN9oaBeYJWqS9yGbzvttFNaa621RmOjj7pE7Lo+kQc7aYAT3JtvvnlafvnlC/wccXr++edLfdEfZwn7gk7KhT+19dZbVwiESJIhFyfQK50IxqT+ls3w2G677YojNPZgJ8qvBfexxx5zs8QKCMnGGlhNDjjggIL3IvwyLsom003Sx8hKELjyyitL75HJQBQQfNbEZ+tD+sPcbgPMvpkzZ47a0BYlJhXN8g18eiL0+kDwyE5qTFAaCGDk9mFlLH2a8p2Uqy5CqF+aHth/eZ3zt8bdKMSn2mijjUoC0paDpjPwOTrjAatYdW0QBEw5EQxd1rX5+eefk0RMUTIBFF+319eMWwCl08+4bttjvP/++yttMNmaAKtC+rETS66d5rO0y9XjHquT1NElq3Kf0Em56va1FoVJOC4TrL81Y8aMsVAw8+oXwfX555/vwiHt7Oyfa2wVqy1fEt9F8EvJ8Yk6kE10DgrqPM/c5AM+AgwaMK+kHymbAkqXXHJJpb7HqmHVF/yYpk2QU6x33nmnqUnJf5R+OE/YJ3RSrgMPPHDEACGQ8s477+yTxl5waTMDGs8991w3XlYIjiDoMbIZ7QEtJG1CpWdr+mJCaIOcU96kxBJ8sRultm/6R3E1fPjhhyUeCD/qzN0XXnihUt8rwFdcccWobVMSAquq9dM8FoLGL+Noez+aF57rTsqFcy2E6bJt1vAQ1mednL81TmIm0SU9Pmx2cHpAm1GffPJJbZPcMRgCFW2Q2wQl7JwDwugyDovb+kN1kVQ7SeFvYmpaoC8deKFf/CGP//TXX3+NIrDrrbeeRV36jfUgY6IkQOPZVpg3b16pHW3pt0/opFy5bxDwMZnFDXImD9/x8MB9991XeQknnHCCp2kRQpcXj7lXByQhE9qWupRes9VGa4mG1QEzcw43vNB9c10X3WSVIpACvUw6P/zwQ7Y7Vk+L05Otw6S11157jdrW0UGnrKRsSeh+mkxUTShn/3Q7ood9w8TKBVM1cXJNdGxxA+tvjcNIm3fGODH1csCGNBHI8847r3RsvEmxwHPooYdWeOk1nw466KBS2yb+42MhrNaM06arvMdxVvYcL7bZZpsSXeCtAxSKCRAfXkefmxQLXPj2Qq+UnuAHbfUWB23b+qqjven+xMqVM0cgsk2QmojxPGPTmvAqK4oXrCnjZWRO6ORFnH322cUm5axZswrn2J4Rox5RU86dNQEmjHx4hzbyt2DBgqZmo2fWevAGWUYIUkoXXXTRqF/6x+ztArkAA3jhOwqBjDDBwR+78lCPzWX2EZsA03eZZZYp0U1b2Z9rapuT3a6TSa6/3pXLuyzniPHck5Dxfvvt56le+EYwXf/VrTwWIcKg23muEUwyJwhzMxG0Ac53Dq8nuyUnJAsXLmzrsvKcTW9NQ9cJkvYan+ca32r//fdPfHTIA7l3480xzeUTjrst46FxYuXCBMoxzbsqeIjL1ZHggjdzOedv5fDm7ukNYBkr45M/fAjwYwqisB5n3faT66PJtNPtrb8Fjb/99puu0npN1oSMTcq2VaMNqeDRpfCMlZyJ5+677y7MU778NcnGLYdjNX6uvRk3svku7fs6v2X5MrFygciaJBDbtjloCRjnt5hpmBPe5E7rb3kFF7p0Lp28iKbMh3HGInVtRgH9eCcomWiENsypcYGVTtpL2SXai5kreKQkRatPEDkQ/FJ6TWmboWG3JfqitZNy5ULxk7xg72AkHefCCy/0Niml0fASvIJLB4R15cVJ6e7YUfGPP/6o4KefZ555xtG66pS3+Xc5pGeddVaJBlKpugCpTMIrKceZ0Dx95yK49OVZtXOKSVh+COikXLmNR1JrhgD9NSnvzJrb34K5XhDhkNL7XUQvfsYhuHXpWZU/++yzSludIe+lwWamd1WEnPB29eHsWHI+k9ffyn3YqM8jPJrWTsqFvayFQq7fe+893Ufna8L+4nTPnTvXjS/nb9n9LV48ApVTOgITMibKvm3zXEqVV7jt2FZcccUKX2RsTRvekiUu4yRy2AUI4gguKfsOcuVyWr10S4aK0GYjowQ2eAferZAmXnVSLhDbnX2IHsdsayJOnh188MHFC8PX8q5atLX+FrRqwJGWzVt9X65hsLwESq/gS/u2MrdX6DVb8W01bXbTGd9HxlaXGZKLNvYRkrYy4R1Tjl82Y546uUk9NzlafCi+jRPgt2qQjXZ42xU6KxeM0y+ZazK18Sf6gJNOOqnAj1Ps/S6h9Gv3t2w0iQN10Eu9HBDR0mPzfr4th4vN6JyQWec6V8fiI5/O7qvZPESZ3ZtO1t52222l8TFWj99i6bG/5Z0J7+r+84xtZ3+zimAtMAloyOVTepRLK47Qpk8G0Af7lzzrw5TtrFwQJCuLEEzZx+olGdWkVD377LOav65rTQ/XduNZZv86gSY/boMNNhgJIBue4wKH9zikR/+5lY8VR9NZR4vuN3cawf5HDvnHAk0JyvznGN03eYJ9gBVi756k7psVVGjL8cQG09pOLePH2ugq+O3/ZBO84x7S1LTLdS/KBbLcuSJvDp4QIyUrFJkPDH655ZYrTtrKs3FKu3Lp2Y09KZn98X3qwObI3XvvvXVVK/eJQkkGAjNwzsSxm8g5QdKIeS5Cp0udiKuDPxyqrAObWHvBBRfUVR37vs7dIwLpPTHOvptMqoyvbgW57LLLSnxo+ugsaV8iT5pnXGsQcxMrSR/H0XXGue5NuegUoizxbNjZXLYmAhFmOVnLwcQux66POuqoEj365LHkpbUddmTG03lyzMJtJq8+JQw/SPXJKZbwge9sCN/qTFT+t5nQTF3Law4kCiCQ1Gkyx+x3H6nfh78lNNgvIrdNGrRjDKyewgu2XuoA01D/txv88RyQ3Cs+4JZbbjnCLX3oYI9sLntozfVl7/WqXCDXs44MgFKUTJ9qpT6DQ4GYNcWUoT6CMUnGgx6g+FRChzBN/BHuW1NRt5drVgW9ChK+fvHFFwv6UD4OFLIqYq9LVFP6xCyzEUrBK6XdeGVFoR3jZzYl9IzwgBP87IPZFYzf4NErYVPmg6SRCZ0oKwLbJ9gMEk4sv/baa0VGBsEFVjP4hpmrJzA+InPLLbe0kiIHP2UMO+yww+ibG2yOY/aKT4sLgKzJxCNtxPwTfsJ7T+pZK3Eppd6Vi0752lEu80AGhDmGg29nX57jg3RZreyg6z77Rl+eIxCCD//LroQyHlsSkWLXX5tqgqeuRJH0rG1x8huF03tgNnCg27SZryJM0obfQwArmJ1wpE9bIg9satsARhNdTBIy8Vh8/EbW7OFJq2C6nTervokmeTaIcoEc7cfEy6UQ6cFwzR4N0a5xhFEG4CmZHVk5SQ4lPL3vvvsWOYGetrYOik+wBhwcW0CRcII5+kE0suvLQcj5AA6RSXCDl4/HPP3005aU4jczPIESmcwoPRkHmKlMcPiECP+QwCrF6fQzzjgj7b777kWfnB6eOWNm4v+3oVBdJlT8I7ZNsHz4ihQ8QIGYPOsUlQAQ+5iyssFD7ZP3wY/BlEuI4wtRzC6EPGEAZ5fYyGPWRWgQRm33SrsogwP/dw4Mrlz/dwYF/cGBSTkQyjUp56JdcKCFA6FcLQyKx8GBSTkQyjUp56JdcKCFA6FcLQyKx8GBSTkQyjUp56JdcKCFA6FcLQyKx8GBSTkQyjUp56JdcKCFA6FcLQyKx8GBSTkQyjUp56JdcKCFA6FcLQyKx8GBSTkQyjUp56JdcKCFA6FcLQyKx8GBSTkQyjUp56JdcKCFA/8Cf1KMTSbw1+wAAAAASUVORK5CYII=;" vertex="1" parent="1">
          <mxGeometry x="550" y="255.5" width="68.46" height="22.29" as="geometry" />
        </mxCell>
        <mxCell id="zl-Cs-IY_Ymrk6EpAjJ--93" value="" style="shape=image;verticalLabelPosition=bottom;labelBackgroundColor=#ffffff;verticalAlign=top;aspect=fixed;imageAspect=0;image=data:image/png,iVBORw0KGgoAAAANSUhEUgAAAPUAAABNCAYAAAB+KCJ9AAASq0lEQVR4Ae2dhc8kNw+Hv/+pKjMzM1y5VZmv3KrMTFKZGdRW5faujCqjyqxyqzJ3Pj0reeT1ZmY8s5nbvfds6VVmdxPH+SVO7MSZ939FUCAQCMwoBP43o1oTjQkEAoEilDoGQSAwwxAIpZ5hHRrNCQRCqWMMBAIzDIFQ6hnWodGcQCCUOsZAIDDDEAilnmEdGs0JBEKpYwwEAjMMgVDqGdah0ZxAIJQ6xkAgMMMQCKWeYR0azQkEQqljDAQCMwyBUOoZ1qHRnEAglDrGQCAwwxAIpZ5hHRrNCQRCqWMM9ILAN998Uzz//PPl3xNPPFHceeedxZVXXlkcddRRxdVXX91LvdPK9Ndffy2xEFzuv//+4vrrry9OP/304vjjj88mejalfvPNN4uFFlponv99/PHH2cAIRnkQePDBBxvHAYq9oNBPP/1UbL755rWYrL322tngyKbUzDSTUGpmPS8x8YiczI5fffWVt+jU5XvssceKfffdt1httdWKCy+8cKrkQ56msXD33XdPlcx9CsMYbcIj5ySXTanpSP7OPffc4pBDDil23nnnyobwG42QMlUpCrj99tsXK664YiWvzz//3NUfn3zyyQiPyy+/3FV22jLdc889I23BtJ0Wev/99wemJjKdeeaZxVJLLTUi73fffTct4s4TOVBsXBDG+rrrrjuCR87+y6bUKWS22mqrEeG7+g5z584tjjzyyBF+qXpT35111lkjZffff/9U1qn/brvttpuv2mIn+M0222zqMe5TwNTK7V2cPHL1ptQImTI5br/9do9clXm22Wabku8GG2xQmc/+gGVg5WHWnB8J/2t+act///03Iiuuz4JMWC+6/3L60+Dam1JjTmjB5RnTbBx65JFHSr74lF566aWXynLIcvTRR3uLTl2+a665pmzLYostNnU+tQbsueeeK2WVMTBnzhydZYF71gsTmOT0pwGzN6VOrYzLLbfc2B344YcfloPk7LPPbsUPswdTkHR+JyZNMM5ptvWByQUXXFD2lyj1tMvcBw7C8+effx7BI6c/TT29KfX6668/InwOH5bzPhkc1157rWAV6ZQisMMOO5T9Rb9tuummUyrpvBGLzTIZv5LmnuR6Ueoff/xxRHAakEsJBYx777133vRE1NIJgb///ntkHHTdKO0kwBQWOv/884cwye1P0+RelPrpp58eElyU8O23384Cs/B75plnsvALJv0gkBoHC/pEbE8CcvvT9GQvSn3JJZeMKPWyyy7rGjms8k0+ryg1/nXQ9CJAzIL0FenCCy9c4D4tqPTvv/8OMNCY5PanwbYXpWZXWgvOs3enWjbYqkx1fVT2559/LqjjY75o97bbbjs0Dnbdddf5Qu6+hExZLrn9aWTvRamXXnrpoc5EqQnkbyKUdJ111hmUfeutt5LZifWGn8dsYdV/7bXXiu+//z7Jy/vlRx99VLz77rsFO5de+uWXXwrCUn///Xdvkdp8hLRiwfQ9kf3222/FG2+8UXz22We18jT9+Mcff4yMgauuuipZjD4d96gzybjiS6ILwZJ6c1sOjDXG7pdffjlS+7zwp6k0u1K/+uqrI52JEvJ9E3FrhbyLL754U9ba31EAAhzgJX+sGrfeemttOfvjo48+OghTFR6kbPRUDcCnnnpqcGZs/aYttthi8D03l9rSK6+8Uhx00EFlO8AGq4fY71yEEnM8SKSXbitHkESvdYnTTu3yyh7IP//8U1x00UXF3nvvXay88splnSwG1Ne2n5pwYILiaI1+WHLJJcv6pK30KRNwV3rnnXcKIhZ1W+DNebQOcMJSkTpJPQtTF5myK/XFF188JDjCr7feeo2ysQLJ8QdK0ZXsjRirYCeeeKKLNTM5CoT8XJrQnbHJJpuMKPZ55503lGettdYqbJgsfJ588klX/WRCBql3iSWWGImnJwhlXNITBnWhWGBmrS3i+dtQKiyXeO/HH398oLjSLlLqW3755cu28h3YjbuKsjF76qmnFssss8wQb5SPSX6VVVYZ+v7ZZ59t08RB3ksvvXSIB7JzI4sJUdp4wAEHFFh7Vo4+/GmEyq7UO+64Y9kYadQRRxzRCNYZZ5xRlgOorjR79uwBHwar+CuAKrKQ4tvU0XvvvVe6ATLTvvzyy0M8UGzo9ddfL2QG3m233Yrbbrut+OCDD0r27A3ouhlIVa5FWagoBrIzGVKWCQOzGLJt6TIQpR7aILIxoWIVaOLzOeecU+ZpE+wza9asspzUofuYOH4sIWkXfSX7KZJ/nJXshhtuGKofRSNE2VpZ1113XZkPvL0TCXz22WefsiwyIy+mvZBYnvy28cYbD+XlOxmfkj9XmlWpWW2lQ3R6yy23JOWlUffdd9/ARNH58YO7EIMOPii0Jvle6rjsssv0zyPPkn/33Xcvf/vhhx9G2sY+gaxoVRt7MLArNoO7ifbcc89BfYcffvhQ1lNOOWVIjrvuumvod+8HrdB1sdjcjRb5V1ppJRd7FEOwtukKK6xQ1I0Hm7/LwMec1nx22WWX2r0IvUuPddREKLTGj7q4cJQixoiWRZ77OJ+W+rMqNX6eCN01RUm6EEAvuuiig/qtf4TpqOWpM+9ZOeTCBKuwJs1DPzf5t3aQNZmyKCr8WdX1zI8somBSv1gSWs6mZ8pIeczEqo1EXAXJJ6ln0LMCS36dsgnaFKtgryXim3uJftf18Yzv7iEp14RnSqGb9gBkPEkdpMccc4xHrE55siq13ZzSjfA+s3nShWR1RYEsWVOwzrzHz0HWrbfeeohN1epz2GGHDeVLfbCra92kQnlWFmTAhNTEgLI4vvDCCzqL61mb8HWhu/Y2EXV7NvtS44AV2pr3KWHtZl2TkgkPNsMsNpj4HpI+p3ydjH/99Vex5ZZbDtXjOarVk6jI2GcQTlalRhFEaElpUNUfg1vySYop1JbYHGNV48aSXUlSu7DcHKqivfbaayCTVXy9aSWy4od6SExpKYffX0UiLxtt9vjKDg6sGo6O2tKqq65a4l53W83WV5dXy2AH/iKLLDLYINN5qp7ZEBScSHkhhIfsXg6bYV988YWnaHHooYcO6mQjs444ktOy8ezZ0xDLS5f99ttv66oa67dsSp2K86URmGJ1hHm5xx57lGB1mcEefvjhQfmddtpppKrjjjuu5I08dHbdZogAbycHO8AxW5tMSRFGNryE97HHHis/jaQnnHDCQF4sD0v2PVddrJpPP/10CA98QyyAKsJMZI8C39pDqXGApeIhjiIFI0k9+yscuUl+Sdl99xCnIVKGc+QqQrbVV1+9zEuZun7UfMgndZCCeZ+UTalTKxkzdOoQ3jZITGcaTJBHW2LAMfBQPE34ivZVSE2dDY/Uuay1Ktr4RLpDeU4prMhN/fzZSSXl37K72pY4U7XycNTCxEq9nLVbC6FNHfaUgLq8cqbGEAFETcSGpm1TXRkmY95mqi2oJgVNHdF5J7qNNtpoSD7vJFfXhrrfsil16ryOQAIPnXTSSYNGe86zPfwkDxsYtrMZ1G2JHVjLx/sGl9TmoXcwaDmtf8s+QRdKRXrZtuHKcDzTZpNKZNEvcBC+3h1sGQdSbsMNNxS2lWlqkqI8ExRHgSeffPKgLbg8KP+aa6451Je4IuSpI44gce1ELkm//vrrumKD3zibl/ySYln2SdmUWnxREZyUg38PSax47hnMzuB1vmydnHfcccdIx9SZrJqX3fnmJXxdyJreV1xxRRc2gzKCt+6rqucbb7yxVT32pKHN+8jsLjFK2UTIVyV71fdrrLFGwXhlYmY/polsrAF8vQsWb3mxcnjqbJKp7vdsSs0tLCt8yoxNCSMvVGgTbZXio78j9NHK08VfhyfBM5pXG5/IRqPZc2ctc9UzfqWuH7dmnPedYz1YuTR/+9y0W6/ltorpdVNSprd1QXQ98mzdImTHymCl5rYgSs84pM3g6DHnhbekqUmw7mxfypHakwAm574pi1JjntiBwGfv1Ug6hlU652tj6VQtE4Otq69oFcA7UFN+cBfTW0di0aaDDz547HHB3oVdVTVe9hk8myhlanpDIe1lBzalPGSDQJDbxil4+NTlsVjwmXfleUhCn4WHdzLw8K7Kk0WpU1Ez7A5PkuzL3fBJuxCbKtIhknr9aSYqKUNK8EVbYmWxk8oDDzzQlk1lfiZeVjJcJXuer2WvO88W5nIKoct5/WnbX94QUaLcdH085yTO5S1/Pkt4a11d5JH7A8Kjb38aebIotfVdaYBnENQBMs5v1lxFnrqggrq6CGmUDpHU609bU5SNoLZ00003DdWPq8Itp76IzTEUStoqqWeStqYm7fdQqr+8E5fIJ2mb10Z7ZEtFqXn9aU4SRC5J+/anadPYSo3JxRstRGhJ62KhPWCOk8femCJCyxLmJGZ/kzlMwIW0idTrT3MbSZfj2cYH4zPyX0LqTDK5LCK8uGBhicmCSbRqssENwGrgdAH5Paa0dV88u+12M88brGLrSk1ctIH+srLbGABPhJfFr+5zylLjGqeH7BuAUmOHNjUds3rq0nnGVmqUQgacTr2BGVqYXM8chWhZbLgl9Yip2WQOWZ/N60+TT8uAmWiDXsRXrgoiIfZc8+CZVU0TN8okT2rPIGW+k7+J7DFeajLRPFiBRA5JvdFg1vRO1UUcAnytUuuzZn6viwHQ8qaeUyZ16iKPZwMP/vvtt98QJjaEWe+5pOTp+t3YSm1NLoD1middha4rlzqbtvHK8g8BOI+tM4d4a4kMUEm9/rS9MG93vYlQklWm6pTAHocx+C3JBhPXAFM0d87ckTbQFu731pFV6oceeqgue5Hypz079CnT27pKWCDIzK6/3XzVEWHkISKvC1EHx1wpyw3XQ/qf1KvUdi/E9rPEHthbhV3k12XGVmoUWDeY56arjVqA3M+2k1PmmOz6Ns3qdJ5tW5WJq9uRKmdXLf4vMbyxKqp8ZGsl2P/pTCCJ3GpKDUZkSm1i8k8Hm0j78in3xZa3k3vK1LRl+GxN79QtPcmTupfPJKv7iNWxLdGngjXmsLWorFth+zJVn1gWWja7aSh8m255pfjXfTeWUqdidWmEdyarE6zrb3SKBtKa3gTg8zvXNJsUVFZB4efxK5HbKjUBJ/Z8lDh1+NZdDZR6JbXRcBK9VWcZ2Yg23jDSFI9PeK1MFtTtiSyTASqyWlOzqj9tf/FZEyu5RHOxT5EiHfjUJiYfXsQzaIW2ikceu1A0LVophQYXTWKhsJpbS1Ln6/I8llLrmG3pTFJmVo/p1UXgpjIArmXBbxFiBpYOrAvel/zidws/TxnK2snOTgasuPBs8s+tv6hvZL344otlO+tiq/WRDLeM6twNZOf8Wt94apKRMil/uspyEGwlPe2008p2gIk9ehS/tG4z0f6/Ls/JCzvTXJuVvuWaZsqnRk72KvSriLjTXkWi0E1vOsEdo267R1DFt833bqXGZBMAuqa5fYdUQ+1rWDE/IS4aSGSQ52iJCcC2s40FInXBg6MdVgQUTIccpja2dJvE7BQ5pH6UmKMbvr/55pt1keSz5sNxFXywUuTlCPjXrN5gpS/AWAVLMi+KwUouMkpaldd+b60aCeXFKhEFwQpomoysm0FZjqOshYRfq49g697EomUFc2kbKZOAnGYwwXL3QW4bcl+d23Aiv5QTMxvzne/oQzbicpNLqS3wImTbtI9ZKQWINZe0nJ6XGsAz1WZRglSd9jvMXns3WMvhjXraetboHXXhw3GYl+z1P+GRSlFs3rXmJatQHp9d89aTjpWHIz3PTT/4sSmoJyXLS3/G7OX0oc0pDcprX5CoefJsx7hVbJ3fa81orDzPLqWGEcJ6/vARU/n4Ptc7sD0NY1ZkcNHJ/PEsM6WnPHnoEHw0VoouHcC/z8WUlSAUTH+vrykysrqDp7zelssIWAFMGm2J/QTK0h7CMJl02JjCf8Yvx9QmVrrNQEcGrBr4wgs+TXsVKbkJJ8WsFaWBDyZ32zGDRYRJjzzgTRs55WByPHD2gQNFHudf6bKycq7Mas8JB5MDLgIrddULLRl3bPLx4guUmn0DFo2+yK3UfQkQfAOBQCAvAqHUefEMboHAxBEIpZ54F4QAgUBeBEKp8+IZ3AKBiSMQSj3xLggBAoG8CIRS58UzuAUCE0cglHriXRACBAJ5EQilzotncAsEJo5AKPXEuyAECATyIhBKnRfP4BYITByBUOqJd0EIEAjkRSCUOi+ewS0QmDgCodQT74IQIBDIi0AodV48g1sgMHEEQqkn3gUhQCCQF4FQ6rx4BrdAYOIIhFJPvAtCgEAgLwKh1HnxDG6BwMQRCKWeeBeEAIFAXgRCqfPiGdwCgYkjEEo98S4IAQKBvAiEUufFM7gFAhNHIJR64l0QAgQCeRH4PyN19Cp7dVCZAAAAAElFTkSuQmCC;" vertex="1" parent="1">
          <mxGeometry x="550" y="326" width="75.89" height="23.85" as="geometry" />
        </mxCell>
        <mxCell id="zl-Cs-IY_Ymrk6EpAjJ--94" value="" style="shape=image;verticalLabelPosition=bottom;labelBackgroundColor=#ffffff;verticalAlign=top;aspect=fixed;imageAspect=0;image=data:image/png,iVBORw0KGgoAAAANSUhEUgAAAF0AAABTCAYAAAD9ewuzAAAGpElEQVR4Ae2byUscTxTH8z8JccMNFDfUqKAGguLFg2JEFJe4H1wikSjiQUVExSWguGCCXgT1kAhJPLiguOCOOagIRhJU6se3f6lKLzNOp7tresauB033dC2v6lNvXq39jAjxOoFnXtcoFBIB3QYjENAFdBsI2KBSWLqAbgMBG1QKSxfQbSBgg0ph6QK6DQRsUCksXUC3gYANKoWlC+g2ELBBpbB0Ad0GAjaoFJYuoNtAwAaV3Cx9b2+PLC8vk6mpKdLX10e6u7ulq7y8nOTl5RGEO1W4QG9vbycBAQGPXhcXF05lzme7zhPwpKQkxwJHxblY+tevXwm94FbUjVBfXy+g8yRwenqqgT4zM8NTpc/nzcXS5bWen5/XQD88PJRHcdwzd+hdXV0K6GFhYY6DrK4wd+hFRUUK6BguOl24Qw8JCVFAf//+vdOZ8xm9UKpLS0sK4BjFzM3N0WDH3rlaemtrqwb62dmZY2HTinOF/vLlSwX0lJQUqtfRd27Q9/f3FcDhWhobGx0Nm1aeG3RMgNQzUYzZhXBaBgDY5uZmDfTLy0vBnNfaC8impaUpoGdmZgrgfwhwcS+u1lvevXsnoPOEPjs7q7By+PbFxUUBnSf0uro6DfSfP38K6DyhJyYmKqBnZ2f/E3Cswbe1tZGSkhJpaw/rNfi3rK2t/VM+vhrZcp9+fHysAA5YnZ2duuuPzQ/1UBO/7VqdHB8flxpedwV0RLQc+uTkpAbaysqKjqL8jQLwHz9+lCpLGyA3N/dvBC88QX9BQQGri5UqLYdeVVXFCkqBPTw8GCpzdXU1y6upqclQHnoSoZHh0qAvJyeHREVFMb20Dnry0RvHcuhxcXGKAptZP4+NjWV58dziU7u05ORkUlNTw3QDvJViKfSDgwNFQVHY3t5eQ+VFp0mtDHeeW3yAjgv90e/fv6Xyfvv2TaHfUCXcJLIUOjodOSg8r66uulH9+GscUKJ52XFkw2+gV1RUMFAAFhQURO7u7h6n6yb09evXLK83b964icXvtd9Aj46OZqAAvbCw0BCVm5sbEhERwfIaHh42lI+ZRH4BfXd3l0GibgEuwoh8+fJFkdf29rbLbBYWFsjAwIDkj11GMPFS3bmayEqT1DKfPjY2pgAF8OrxOZ1ZYnj2mKDzpQ2XkZGhiYp1nFevXrE4iIsZrJXiF9BLS0sVEMLDw4l8veXo6IiFY8P6MZH7czXMz58/S/lg4oIJDAQNgM7WaP/hqix+AT0yMpJBheWp/Tn9J7iyXHmlf/36RUJDQ1leqDyVwcFB6X1/f7/0anp6msWDzs3NTRrV9N0voFN3QO/qyQwaAWGeXIu6svTfgnRIDz9OJTU1VQH9+vqaBpm+q8thOkNZBpb5dPXOv9xCd3Z2GBxPHwPAimnDpaenS0XFKd+YmBhZsf9/zM/PZ3E9NaYmsYcXfgEdayMUltqi3759K4XhKwxPIl9kamhoIOgrsrKyyI8fPzRJb29vycbGhnNHL+vr64qFInRscDHULcCXe7Ly+/t78vz5c9Z4OCcDK8f03NviF5YOKPC3gCu3eDzDUj0BR/rv379r0tK84uPjpXMzevKxooH8Bjoqi9kkrLu2tlZaD8eQT+/3RT09PQw6+ggIhpd0fI8GQKN6w/L9CroZK5PDVX8iU1lZyRoEfp63OAZ6YGAgAzsxMaHgitO+1NVgTiAXhDly9CKHYOQZHTGFGhwcTE5OThTZyC1PvdSLf0FCQoIiPv2BPsDIcT65PpTLSrFsnG62UFhJpNABUS1yCFgmoIL+AttrIyMj9BW7oz+heXqaCbNEfx7k+p4sdBy3oIBGR0fVDKSdIxre0dHBwj98+CCt25+fn7N39EE9klL3EzSeq7sjoMvXblBhtWAbDW4F4GlHirUWfF7j7ogHbSR6x9DVnaBPoFdLS4tm6ItOHhf2TqHPTB/iM+6FgsGdrreoAWFJlx5MpSMdQHAnACPfKEcDuRO5fj3P0G9UfAY6Zq9DQ0MeJ1FXV1fk06dPkqW5+ke4AoFdIGyoYIHMnWxtbbkL0ryHUejVrUnM86i0K2V2visrKyOuOmg7yuQzls678i9evDDlh60snyOg008r3e21WglUT16OgF5cXCydANYDxBtxnjx0jGAwHPUVK0ejPmnoGBFh+IeTZ74kTxo6QJuZxPBqqCcPnRc4M/kK6GboGUwroBsEZyaZgG6GnsG0ArpBcGaSCehm6BlMK6AbBGcmmYBuhp7BtAK6QXBmkgnoZugZTCugGwRnJtl/tASTLdz18zcAAAAASUVORK5CYII=;" vertex="1" parent="1">
          <mxGeometry x="523.31" y="155.82999999999998" width="32.69" height="29.17" as="geometry" />
        </mxCell>
        <mxCell id="zl-Cs-IY_Ymrk6EpAjJ--95" value="" style="shape=image;verticalLabelPosition=bottom;labelBackgroundColor=#ffffff;verticalAlign=top;aspect=fixed;imageAspect=0;image=data:image/png,iVBORw0KGgoAAAANSUhEUgAAAFcAAABJCAYAAABIFLqHAAAHUElEQVR4Ae2b/UsVTRTH+5+CzMRSMHwjsoRS8BH1B0EjI4osX8oQDSNREX9IkUjpFaX3MBGzJFK0QnoBsbQXMw0yApMkZR6+C2eYnbt7d+/dmW7d3QOX2d2ZPTPz2bNnzszs3cQC0UZgkzbNgWIWwNVoBAHcAK5GAhpVB5YbwNVIQKPqwHIDuBoJaFQdWG4AVyMBjaoDyw3gaiSgUXVguQFcjQQ0qg4sN4CrkYBG1Uot9927d2x0dJTdvHmTdXd3s/Pnzxu/yspKVlpaypDvJ1EGt7W1lW3evDns79u3b35iq26x3Ansrl27fAUWnVVmuZOTk4x+cAcy7Lq6ugCuCgKfP38OgXv79m0Vqv8pHcosV+z1gwcPQuB++PBBLOKLYy1wOzo6THCTk5N9AVPupBa4hw4dMsFFGOZH0QJ327ZtJrgtLS1+ZKsuWiB6jx8/NoFF1DAwMEDZvkqVW+7Zs2dD4C4sLPgKKnVWOdz8/HwT3N27d1NdvkuVwp2dnTWBhUtoaGjwHVTqsFK4mCjIMzPEvH4VpXDPnDkTAnd5edmvbNVGC3v37jXB3b9/v2/BouPKLNdqPeHcuXMBXBUE7t69a7Ja+N5Hjx6pUP3P6lBmuadOnQqB+/Pnz38WjIqGK4ObnZ1tgltYWBhR+7AG3NzczI4cOWJsCWE9Atb/8uXLiPT8TYWVwP306ZMJLKC0t7e77icW2eUQDud/ajXt3r17DDNL2uurr69nFy9e9OzWlMC9ceNGCJzx8XHXcFEQgNFJsljALS4ujkhHNIWtpuvigwbwaNeilcCtrq4OgbuxsRFNX1lNTQ3X1djYGJUOtzft3LnTqAsuCQ8X8uXLF/bixQu2b98+3g7AvnTpklu1vJwSuBkZGaaGeFm/TU9P57p0bg0hTAS0W7ducRjiAT4DkAFPTU2JRRyPPcN9//49h0GvU1dXl2PFVgUweJEOpNG+jla6xWuYNVI99+/fZz9+/BCz+THcFJVDWlJSwvPcHHiG29fXZ2oAGoHXKhrBhyTUGZ1b8fIAGu6VLysr421C216/fu26a57hHj9+3FT51q1b2e/fv103QCxYUVHBdVVVVYlZSo8Bkx4i0j179tjqF8cAlL1+/bptWTnDM9y0tDRTQw8ePCjX4ep8ZWWF7dixg+sKZ02uFIYpJFvu4cOHbUsjpBQfxNGjR23Lyhme4L59+9ZUMRqBVzsaGRsbM+manp62VDM8PGzEoDS6WxZycREPLzMz04htww1U8gcu+GzLrXiCe/XqVRMQwJXjW4pb0chwgkGQLASjtCxYpygoKOBlUBYzOt1SW1trqnNkZMR1lZ7g4hUhIEi3b9/OxPWEjx8/8nxsXIYT0d/K0J4+fWroOXDggDHRgB6AxqAXrX8P1xbKW11dNeoQ+/j161fKdkw9wU1JSeHw0ADZ35JlW1mi2LJfv36xpKQkrkt85Xt6eozrFy5cMG5BXCp29s2bN6IqpcfyzkqkLs8TXLGTOJaDfsDGdSeXIA8wZP3k7+BnSTCyi/XaxahU3ksqvk2RDGRUpye48k6vaHEzMzMcgtNHz7BKApabm2u0DV9FYnoqS3l5OS/r9NDkeyM5x5oCtSnaGacnuJj7UwOQip1tamoy8tBIJ4EvJT2nT59msJK8vDy2tLQUciv8IAJ58UGGFPJ4QXQ9eJjRiie4r169YqmpqRwMBhi4Bnqd4WudrHZ9fZ1t2bKF68B3DrBaLGPGQr5//87bAgPxIp7gomL4Q3mBA1YIy3MCi/ufP3/OO0PWSyniUHz34EaPFwjivVT3tWvXxMtRHXuGi1oxu4K1njx50liPRSjl9v8PnZ2dHC58OARhG8XH6Cwe3p+wZAKLCY0KUQLXS0NEiPKn/SdOnODgoxmtI2kXgX348KHtbUVFRcaMzraAlBFzuAkJCRxgf3+/qXn4OpI6jZhaFOSJA6iYF+kx/DzqwV+87GRubo5hUaq3t9euSMj1mMLFgEjwEhMT2fz8vKmBYvwrL0HCqrOyskzl6QQ+2u1nVIX/FRptuHPnDt1umV6+fNkoF8nnsDGFKy79AZYsIlwE9CTw54hS0GFZ4O/pgTnNDGmSMzg4yP+JhDrp9+TJE4b1arwh5L6Q51ZiChfb6ATiypUrIW3GTgTlt7W18XyM5HhFFxcX+TU6kCMX2Y9TOfEhUB1uUpo9kp5waUzhimsTVhaxtrbGF05oQMNaAv4WYLd1LwNCSCgLLFIu5+Y83KK6XAfOYwpX7JCdRWCpkT7wo1cTy4B2gldY3DDFg5AFZcS63R5HuhsdU7iYzWH0dZokYNaEjURAsbJwGR7Onz17ZizcW1nbxMQEwzIm/gSO9dmhoSHuZ8nf2qVWddldiylcu0apun7s2DFmNVCq0u+kJ67h5uTkKIuFnUBa5cctXPrLlt1enBUM1dfiFi52dBHqxVLiEi4GPoR5sbRaPNS4g0v7XphZxVriDi6AwnL/BolLuH8DWLQhgKvxSQRwNcL9H0Wjy50AupDNAAAAAElFTkSuQmCC;" vertex="1" parent="1">
          <mxGeometry x="522.63" y="223.59" width="31.48" height="26.41" as="geometry" />
        </mxCell>
        <mxCell id="zl-Cs-IY_Ymrk6EpAjJ--97" value="" style="shape=image;verticalLabelPosition=bottom;labelBackgroundColor=#ffffff;verticalAlign=top;aspect=fixed;imageAspect=0;image=data:image/png,iVBORw0KGgoAAAANSUhEUgAAAEoAAABICAYAAABRGGN6AAAHVElEQVR4Ae1b60sWTRTvfxLSksooryGVgaWI4BfBLCXyNSszTbxrKekHC5OKvKGYUlGEQvlBhSzEjMoLeUnsQ4rQTSrm5bdwhtnZyzO7zyVc9sDDXubsmXN+c/bMOTP77GI+KSGwS4nLZ2I+UIpO4APlA6WIgCKb71E+UIoIKLL5HuUDpYiAIpvvUT5Qiggosvke5QOliIAimyuPWlhYYGNjY+zhw4eso6ODtbe3a78LFy6w3NxchnavkWOgmpubWVRUlO3v69evXsPJeVEcCKTU1FTPgQSDHHvUq1evGP3wysnAlZeX+0DJCHz+/NkA1PDwsMzmiWvHHiVa/ezZMwNQS0tLIotnzoMCqq2tTQfUvn37PAOMbEhQQBUWFuqAQmrgVQoKqL179+qAunHjhldxcj7rERIvX77UgYTZ7+nTp9TsuaNrj6qvrzcAtba25jmAyCDXQGVkZOiAOnr0KMn05NEVUIuLizqQ8NpVVVV5EiAyyhVQSCrljBw5lZfJFVA1NTUGoDY2NryMk7tZLy0tTQfUyZMnPQ0SjHPsUWb1XWNjow+UjMCjR4903oRY9eLFC5nNc9eOPerq1asGoL5//+45YGSDHAN15MgRHVDZ2dmyTNtrrGE1NTWx8+fPa8vGqA/hlTMzM7bP/etGR0CtrKzoQIKBN2/eVLYBC35yWoHrSK06TE5OsuvXr7OLFy/yQbp27RpDarO1tWVrhyOgBgcHDYaicycEsB4/fqwpSqDl5OQ4EeGKFwU7+ouJiWFYrkafcXFx3B5UFqOjo5ayHQF1+fJlLpiM/Pv3r6Vwu4bS0lIuq7q62o416DZ4DfTFMjVmbZGeP3/O9QBPfn6+2MzPHQGVlJSkExrM+lNiYiKXFc7lY1rXR6738eNHbrh4cufOHa4LwBoYGBCbtXNloD59+qQTBoG3b982CFS5gcCN5+kXzuXjyspK3g/6A3AyPXnyRMeD/UmZlIHq7+/XCUOnb968keUpXWPTlEAK9/YWzarUn9lbYDbJyIYoA1VSUsKNQ6cIir9//5blKV0XFBRwWZcuXVJ6xi2TPMDT09MGUZhcCEgcz549a+BRBurw4cMBhRmkm9z49u0bO3DgAJf14MEDE67Q3kLlAE+yilH37t3j+gCoW7duGRRQAmp+fl4nCMLw+rihiYkJnawPHz6YisFUfffuXW2z1ZQhhDeL/yvmOmEfwCxmKgHV09PDBZGLyvkTxQKzYCnahAmAZKSnp4tN2jlGPysri/OAF5l8uGh2dlbXl5X+SkAVFRXphO3fv5+J9d3y8jJvx6aDHYnxSQZgfHxck4NcBnEDBNAQ8N3GQztdRkdGWUJCAtfdCiTIUAJKzGAxwnKwI48z8xBR0V+/frHY2FiuGGYbIooTnZ2d2q2hoSHOhz7fvXtHrEEdW1tbWVlZGcvLy+Pyz507xwINsBJQ9KrQUU4QARza7EYE1snTMHklnsPzYglx/PhxbgjaAtViqughROAnJs8ACjr8/PnTUowSUPKOi+gJc3Nz3KBAH5DBWwjsEydOaEqhrIiPjzcoePr0ac4baAAMDzu4QYMEvTIzMy0/glMCCrUYGYijqHhdXZ3WZpbNyvoi9pCciooKhth36tQp9uXLF5mV/fjxgyHQioNiYArRDREshA+zAVcC6u3bt+zgwYPcSARXvH7UgZVw0Y4/f/6w3bt3cxmo1uFNWLr517S+vs71wkCa2aMEFAxB/IAA8gg6wiPMRkA2/vXr14ZnSUZycrK2L6giR5Ybqms5vMiJsDJQUAhZNbwIswYCIqZ31e81ke0SMFAKhJmG8i+0YSD+lYc1NDRw/aALArxIjoASH3R6LgIif76IFUcCEXErVIQvl2lGxtGuiKcwQnrgKFLEgIqOjuZgyOs9+AqGFETOJhLaYIQbElcpIF/2ElEmLe6RHjJvRIDCZEAK7Nmzh62uroo66vIredkF3paSkqLjpwvENLutfGxgUL84IneyojNnzuh4g4pRVp0Euo9OSWEYLpOYiKLEIUL8w2zb1dVFt/gR8ZFkIraZEWX7xCeXTOIzKMuID9XD+/fvxWa1Ekb3hIsLcWS7u7sNElCtk5ItLS28vbe3V1v3wvQtkzwDy3EP/FQ7Qrbd6zsyMsL7t+KNyKsn1opmCeT29rZW+EJJCuao7bDkYbUdRsDSEWmKGdEHuSh+8ZcUmbDMc+jQIQ4UXkEzighQZAyOVN/JymB5hT7+oBnyypUrMhu/hoeI9RpAtaLa2lpGC49IdDEYeB6giK8c1s6tKCJAIYu/f/9+wMR0c3OTQVkYYeZ5ZkZMTU1pi4goou0InyX19fUxgA/vw6AdO3ZMSx/wmWWgneqIAGVnQCjaiouLtd3fUMiykuEJoOAZdsHayngn93c8UPQZt9XauxMw7Hh3PFDIoJF+hJt2NFB43ZB6hNubMAg7FijMpJi5sMEZCdqxQAGccAdwcQB2NFCiIeE+94FSRNgHygdKEQFFNt+jfKAUEVBk+x9/Kt09oukDVwAAAABJRU5ErkJggg==;" vertex="1" parent="1">
          <mxGeometry x="527.39" y="295.5" width="26.72" height="26" as="geometry" />
        </mxCell>
      </root>
    </mxGraphModel>
  </diagram>
</mxfile>
